<svg width="490" height="159" viewBox="0 0 490 159" fill="none" xmlns="http://www.w3.org/2000/svg">
<path d="M2.05078 40.6953V38.6445H14.2871L21.0547 59.9727L26.9336 38.6445H41.6992L48.5693 59.9727L53.1494 38.6445H66.0352V40.6953H54.79L49.7314 62.0234H47.4414L40.2979 40.6953H28.6768L22.5244 62.0234H19.585L12.8174 40.6953H2.05078ZM63.9844 51.291H66.0352V53.3418H65.625L56.8408 88H40.7764L34.5215 67.082L29.3262 88H13.2617L2.46094 53.3418H2.05078V51.291H4.10156L14.9707 85.9492H27.7539L33.1543 65.0654H35.957L42.3486 85.9492H55.3369L63.9844 51.291ZM127.996 63.5957C127.905 58.6283 126.811 54.4014 124.715 50.915C122.641 47.4287 119.622 44.7855 115.657 42.9854C111.715 41.1852 107.021 40.2852 101.575 40.2852C97.4736 40.2852 93.805 40.7979 90.5693 41.8232C87.3337 42.8486 84.5993 44.3411 82.3662 46.3008C80.1331 48.2604 78.4355 50.6872 77.2734 53.5811C76.1341 56.4521 75.5189 59.779 75.4277 63.5615C75.5189 68.5745 76.5671 72.8128 78.5723 76.2764C80.6003 79.7399 83.5739 82.3604 87.4932 84.1377C91.4124 85.915 96.1064 86.8037 101.575 86.8037C107.044 86.8037 111.749 85.9264 115.691 84.1719C119.633 82.3945 122.641 79.7627 124.715 76.2764C126.811 72.7673 127.905 68.5404 127.996 63.5957ZM130.047 63.5957C130.047 68.9961 128.919 73.599 126.663 77.4043C124.407 81.2096 121.137 84.0693 116.854 85.9834C112.592 87.8975 107.5 88.8545 101.575 88.8545C95.6507 88.8545 90.5579 87.8975 86.2969 85.9834C82.0586 84.0465 78.8457 81.1982 76.6582 77.4385C74.4707 73.6559 73.377 69.0417 73.377 63.5957C73.377 59.4714 74.0036 55.8483 75.2568 52.7266C76.5101 49.582 78.3444 46.9388 80.7598 44.7969C83.1751 42.6549 86.1374 41.0371 89.6465 39.9434C93.1556 38.8268 97.1318 38.2686 101.575 38.2686C107.477 38.2686 112.57 39.2484 116.854 41.208C121.137 43.1449 124.407 46.016 126.663 49.8213C128.919 53.6038 130.047 58.1953 130.047 63.5957ZM89.6465 63.6641C89.6465 55.0052 93.5202 50.6758 101.268 50.6758C106.189 50.6758 109.414 51.9746 110.94 54.5723C112.467 57.1471 113.322 60.1777 113.504 63.6641C113.322 66.1022 113.014 68.1986 112.581 69.9531C112.148 71.6849 111.043 73.2344 109.266 74.6016C107.511 75.946 104.845 76.6182 101.268 76.6182C96.6647 76.6182 93.5771 75.3307 92.0049 72.7559C90.4326 70.1582 89.6465 67.1276 89.6465 63.6641ZM91.8682 63.7666C91.8682 66.6605 92.5062 69.1898 93.7822 71.3545C95.0583 73.4964 97.599 74.5674 101.404 74.5674C104.321 74.5674 106.508 73.9977 107.967 72.8584C109.425 71.7191 110.337 70.4316 110.701 68.9961C111.066 67.5605 111.305 65.8174 111.419 63.7666C111.305 60.8727 110.61 58.3548 109.334 56.2129C108.081 54.071 105.438 53 101.404 53C95.0469 53 91.8682 56.5889 91.8682 63.7666ZM139.439 88V38.6445H171.568C175.533 39.0091 178.712 39.9889 181.104 41.584C183.497 43.179 185.126 44.7171 185.992 46.1982C186.858 47.6794 187.473 49.4909 187.838 51.6328C188.202 53.7747 187.963 56.1104 187.12 58.6396C186.277 61.1689 184.83 63.2311 182.779 64.8262C180.729 66.4212 177.789 67.6745 173.961 68.5859L177.652 73.3027H190.367V88H172.936L157.281 71.6963V88H139.439ZM141.49 85.9492H155.23V69.6455H158.546L174.132 85.9492H188.316V75.3535H176.456L171.91 69.7822V66.9111C176.604 65.9541 179.806 64.7578 181.515 63.3223C183.246 61.8867 184.465 60.1322 185.172 58.0586C185.901 55.985 186.129 54.0026 185.855 52.1113C185.605 50.2201 185.115 48.6592 184.386 47.4287C183.679 46.1755 182.244 44.8197 180.079 43.3613C177.914 41.903 175.077 41.0143 171.568 40.6953H141.49V85.9492ZM156.427 50.0947H170.235C170.851 50.0947 171.603 50.4593 172.491 51.1885C173.38 51.8949 173.904 53.376 174.063 55.6318C173.972 57.9788 173.494 59.4486 172.628 60.041C171.785 60.6335 170.999 60.9297 170.27 60.9297H156.427V50.0947ZM158.546 52.0771V59.0498H169.107C169.654 59.0498 170.258 58.8675 170.919 58.5029C171.603 58.1156 171.967 57.1471 172.013 55.5977C171.899 54.1849 171.489 53.2507 170.782 52.7949C170.099 52.3164 169.529 52.0771 169.073 52.0771H158.546ZM199.418 88V38.6445H228.539C232.481 38.6445 235.967 39.1344 238.998 40.1143C242.051 41.0941 244.592 42.5068 246.62 44.3525C248.671 46.1982 250.38 48.6364 251.747 51.667C253.137 54.6976 253.832 58.5827 253.832 63.3223C253.581 67.9251 252.829 71.7988 251.576 74.9434C250.323 78.0879 248.66 80.5716 246.586 82.3945C244.512 84.2174 241.972 85.6302 238.964 86.6328C235.979 87.6354 232.23 88.0911 227.719 88H199.418ZM214.936 49.9238H225.258C227.65 49.9238 229.587 50.4023 231.068 51.3594C232.549 52.2936 233.757 53.6038 234.691 55.29C235.648 56.9762 236.173 59.5853 236.264 63.1172C235.99 66.9681 235.398 69.6455 234.486 71.1494C233.598 72.6305 232.436 73.8496 231 74.8066C229.564 75.7637 227.673 76.2422 225.326 76.2422H214.936V49.9238ZM201.469 85.9492H227.719C233.188 85.8125 237.095 85.277 239.442 84.3428C241.789 83.4085 243.738 82.2236 245.287 80.7881C246.837 79.3525 248.272 77.2334 249.594 74.4307C250.915 71.6279 251.645 67.9251 251.781 63.3223C251.599 58.9017 251.269 56.042 250.79 54.7432C250.312 53.4443 249.696 52.0544 248.944 50.5732C248.192 49.0921 247.019 47.5768 245.424 46.0273C243.829 44.4779 241.607 43.179 238.759 42.1309C235.91 41.0827 232.504 40.6042 228.539 40.6953H201.469V85.9492ZM216.986 51.9746L217.021 74.1914H225.326C227.673 74.123 229.394 73.6559 230.487 72.79C231.581 71.9242 232.401 70.9899 232.948 69.9873C233.518 68.9847 233.939 66.6947 234.213 63.1172C234.008 60.1094 233.598 57.9674 232.982 56.6914C232.367 55.3926 231.49 54.2988 230.351 53.4102C229.234 52.4987 227.536 52.0202 225.258 51.9746H216.986ZM263.225 88V38.6445H279.289V73.3027H306.018V88H263.225ZM265.275 40.6953V85.9492H303.967V75.3535H277.238V40.6953H265.275ZM313.018 88L329.253 38.6445H353.76L370.269 88H351.606L348.496 79.1133H333.833L330.723 88H313.018ZM341.558 48.8643L348.564 69.1328H334.004L341.558 48.8643ZM315.889 85.9492H329.355L332.534 77.0625H350.137L353.35 85.9492H367.466L352.427 40.6953H330.962L315.889 85.9492ZM337.217 67.082H345.352L341.592 56.0762L337.217 67.082ZM377.303 88V38.6445H393.367L408.064 57.1016V38.6445H424.129V88H408.064L393.367 69.543V88H377.303ZM379.354 40.6953V85.9492H391.316V67.4922H394.563L409.261 85.9492H422.078V40.6953H410.115V59.084H406.868L392.513 40.6953H379.354ZM433.18 88V38.6445H462.301C466.243 38.6445 469.729 39.1344 472.76 40.1143C475.813 41.0941 478.354 42.5068 480.382 44.3525C482.433 46.1982 484.142 48.6364 485.509 51.667C486.899 54.6976 487.594 58.5827 487.594 63.3223C487.343 67.9251 486.591 71.7988 485.338 74.9434C484.085 78.0879 482.421 80.5716 480.348 82.3945C478.274 84.2174 475.733 85.6302 472.726 86.6328C469.741 87.6354 465.992 88.0911 461.48 88H433.18ZM448.697 49.9238H459.02C461.412 49.9238 463.349 50.4023 464.83 51.3594C466.311 52.2936 467.519 53.6038 468.453 55.29C469.41 56.9762 469.934 59.5853 470.025 63.1172C469.752 66.9681 469.16 69.6455 468.248 71.1494C467.359 72.6305 466.197 73.8496 464.762 74.8066C463.326 75.7637 461.435 76.2422 459.088 76.2422H448.697V49.9238ZM435.23 85.9492H461.48C466.949 85.8125 470.857 85.277 473.204 84.3428C475.551 83.4085 477.499 82.2236 479.049 80.7881C480.598 79.3525 482.034 77.2334 483.355 74.4307C484.677 71.6279 485.406 67.9251 485.543 63.3223C485.361 58.9017 485.03 56.042 484.552 54.7432C484.073 53.4443 483.458 52.0544 482.706 50.5732C481.954 49.0921 480.781 47.5768 479.186 46.0273C477.59 44.4779 475.369 43.179 472.521 42.1309C469.672 41.0827 466.266 40.6042 462.301 40.6953H435.23V85.9492ZM450.748 51.9746L450.782 74.1914H459.088C461.435 74.123 463.155 73.6559 464.249 72.79C465.343 71.9242 466.163 70.9899 466.71 69.9873C467.28 68.9847 467.701 66.6947 467.975 63.1172C467.77 60.1094 467.359 57.9674 466.744 56.6914C466.129 55.3926 465.252 54.2988 464.112 53.4102C462.996 52.4987 461.298 52.0202 459.02 51.9746H450.748Z" fill="white"/>
<path d="M3.05078 41.6953V39.6445H15.2871L22.0547 60.9727L27.9336 39.6445H42.6992L49.5693 60.9727L54.1494 39.6445H67.0352V41.6953H55.79L50.7314 63.0234H48.4414L41.2979 41.6953H29.6768L23.5244 63.0234H20.585L13.8174 41.6953H3.05078ZM64.9844 52.291H67.0352V54.3418H66.625L57.8408 89H41.7764L35.5215 68.082L30.3262 89H14.2617L3.46094 54.3418H3.05078V52.291H5.10156L15.9707 86.9492H28.7539L34.1543 66.0654H36.957L43.3486 86.9492H56.3369L64.9844 52.291ZM128.996 64.5957C128.905 59.6283 127.811 55.4014 125.715 51.915C123.641 48.4287 120.622 45.7855 116.657 43.9854C112.715 42.1852 108.021 41.2852 102.575 41.2852C98.4736 41.2852 94.805 41.7979 91.5693 42.8232C88.3337 43.8486 85.5993 45.3411 83.3662 47.3008C81.1331 49.2604 79.4355 51.6872 78.2734 54.5811C77.1341 57.4521 76.5189 60.779 76.4277 64.5615C76.5189 69.5745 77.5671 73.8128 79.5723 77.2764C81.6003 80.7399 84.5739 83.3604 88.4932 85.1377C92.4124 86.915 97.1064 87.8037 102.575 87.8037C108.044 87.8037 112.749 86.9264 116.691 85.1719C120.633 83.3945 123.641 80.7627 125.715 77.2764C127.811 73.7673 128.905 69.5404 128.996 64.5957ZM131.047 64.5957C131.047 69.9961 129.919 74.599 127.663 78.4043C125.407 82.2096 122.137 85.0693 117.854 86.9834C113.592 88.8975 108.5 89.8545 102.575 89.8545C96.6507 89.8545 91.5579 88.8975 87.2969 86.9834C83.0586 85.0465 79.8457 82.1982 77.6582 78.4385C75.4707 74.6559 74.377 70.0417 74.377 64.5957C74.377 60.4714 75.0036 56.8483 76.2568 53.7266C77.5101 50.582 79.3444 47.9388 81.7598 45.7969C84.1751 43.6549 87.1374 42.0371 90.6465 40.9434C94.1556 39.8268 98.1318 39.2686 102.575 39.2686C108.477 39.2686 113.57 40.2484 117.854 42.208C122.137 44.1449 125.407 47.016 127.663 50.8213C129.919 54.6038 131.047 59.1953 131.047 64.5957ZM90.6465 64.6641C90.6465 56.0052 94.5202 51.6758 102.268 51.6758C107.189 51.6758 110.414 52.9746 111.94 55.5723C113.467 58.1471 114.322 61.1777 114.504 64.6641C114.322 67.1022 114.014 69.1986 113.581 70.9531C113.148 72.6849 112.043 74.2344 110.266 75.6016C108.511 76.946 105.845 77.6182 102.268 77.6182C97.6647 77.6182 94.5771 76.3307 93.0049 73.7559C91.4326 71.1582 90.6465 68.1276 90.6465 64.6641ZM92.8682 64.7666C92.8682 67.6605 93.5062 70.1898 94.7822 72.3545C96.0583 74.4964 98.599 75.5674 102.404 75.5674C105.321 75.5674 107.508 74.9977 108.967 73.8584C110.425 72.7191 111.337 71.4316 111.701 69.9961C112.066 68.5605 112.305 66.8174 112.419 64.7666C112.305 61.8727 111.61 59.3548 110.334 57.2129C109.081 55.071 106.438 54 102.404 54C96.0469 54 92.8682 57.5889 92.8682 64.7666ZM140.439 89V39.6445H172.568C176.533 40.0091 179.712 40.9889 182.104 42.584C184.497 44.179 186.126 45.7171 186.992 47.1982C187.858 48.6794 188.473 50.4909 188.838 52.6328C189.202 54.7747 188.963 57.1104 188.12 59.6396C187.277 62.1689 185.83 64.2311 183.779 65.8262C181.729 67.4212 178.789 68.6745 174.961 69.5859L178.652 74.3027H191.367V89H173.936L158.281 72.6963V89H140.439ZM142.49 86.9492H156.23V70.6455H159.546L175.132 86.9492H189.316V76.3535H177.456L172.91 70.7822V67.9111C177.604 66.9541 180.806 65.7578 182.515 64.3223C184.246 62.8867 185.465 61.1322 186.172 59.0586C186.901 56.985 187.129 55.0026 186.855 53.1113C186.605 51.2201 186.115 49.6592 185.386 48.4287C184.679 47.1755 183.244 45.8197 181.079 44.3613C178.914 42.903 176.077 42.0143 172.568 41.6953H142.49V86.9492ZM157.427 51.0947H171.235C171.851 51.0947 172.603 51.4593 173.491 52.1885C174.38 52.8949 174.904 54.376 175.063 56.6318C174.972 58.9788 174.494 60.4486 173.628 61.041C172.785 61.6335 171.999 61.9297 171.27 61.9297H157.427V51.0947ZM159.546 53.0771V60.0498H170.107C170.654 60.0498 171.258 59.8675 171.919 59.5029C172.603 59.1156 172.967 58.1471 173.013 56.5977C172.899 55.1849 172.489 54.2507 171.782 53.7949C171.099 53.3164 170.529 53.0771 170.073 53.0771H159.546ZM200.418 89V39.6445H229.539C233.481 39.6445 236.967 40.1344 239.998 41.1143C243.051 42.0941 245.592 43.5068 247.62 45.3525C249.671 47.1982 251.38 49.6364 252.747 52.667C254.137 55.6976 254.832 59.5827 254.832 64.3223C254.581 68.9251 253.829 72.7988 252.576 75.9434C251.323 79.0879 249.66 81.5716 247.586 83.3945C245.512 85.2174 242.972 86.6302 239.964 87.6328C236.979 88.6354 233.23 89.0911 228.719 89H200.418ZM215.936 50.9238H226.258C228.65 50.9238 230.587 51.4023 232.068 52.3594C233.549 53.2936 234.757 54.6038 235.691 56.29C236.648 57.9762 237.173 60.5853 237.264 64.1172C236.99 67.9681 236.398 70.6455 235.486 72.1494C234.598 73.6305 233.436 74.8496 232 75.8066C230.564 76.7637 228.673 77.2422 226.326 77.2422H215.936V50.9238ZM202.469 86.9492H228.719C234.188 86.8125 238.095 86.277 240.442 85.3428C242.789 84.4085 244.738 83.2236 246.287 81.7881C247.837 80.3525 249.272 78.2334 250.594 75.4307C251.915 72.6279 252.645 68.9251 252.781 64.3223C252.599 59.9017 252.269 57.042 251.79 55.7432C251.312 54.4443 250.696 53.0544 249.944 51.5732C249.192 50.0921 248.019 48.5768 246.424 47.0273C244.829 45.4779 242.607 44.179 239.759 43.1309C236.91 42.0827 233.504 41.6042 229.539 41.6953H202.469V86.9492ZM217.986 52.9746L218.021 75.1914H226.326C228.673 75.123 230.394 74.6559 231.487 73.79C232.581 72.9242 233.401 71.9899 233.948 70.9873C234.518 69.9847 234.939 67.6947 235.213 64.1172C235.008 61.1094 234.598 58.9674 233.982 57.6914C233.367 56.3926 232.49 55.2988 231.351 54.4102C230.234 53.4987 228.536 53.0202 226.258 52.9746H217.986ZM264.225 89V39.6445H280.289V74.3027H307.018V89H264.225ZM311.283 89L327.519 39.6445H352.025L368.534 89H349.872L346.762 80.1133H332.099L328.988 89H311.283ZM339.823 50.582L332.748 70.1328H346.352L339.823 50.582ZM374.885 89V39.6445H390.949L405.646 58.1016V39.6445H421.711V89H405.646L390.949 70.543V89H374.885ZM430.762 89V39.6445H459.883C463.825 39.6445 467.3 40.1686 470.308 41.2168C473.315 42.265 475.856 43.6777 477.93 45.4551C480.003 47.2324 481.724 49.6364 483.091 52.667C484.481 55.6976 485.176 59.6396 485.176 64.4932C484.925 68.9821 484.173 72.7988 482.92 75.9434C481.667 79.0879 480.003 81.5716 477.93 83.3945C475.856 85.2174 473.315 86.6302 470.308 87.6328C467.323 88.6354 463.574 89.0911 459.062 89H430.762ZM447.236 51.8809V76.6953H456.636C458.755 76.6953 460.464 76.251 461.763 75.3623C463.062 74.4508 464.121 73.3001 464.941 71.9102C465.762 70.4974 466.286 67.9681 466.514 64.3223C466.445 60.9954 465.978 58.5459 465.112 56.9736C464.269 55.3786 463.175 54.1367 461.831 53.248C460.487 52.3366 458.732 51.8809 456.567 51.8809H447.236Z" fill="white"/>
<path d="M106.453 144.129H110.22L112.462 151.71L114.731 144.129H118.689L115.169 154H109.926L106.453 144.129ZM129.545 149.119C129.545 150.199 129.319 151.12 128.868 151.881C128.417 152.642 127.763 153.214 126.906 153.597C126.054 153.979 125.035 154.171 123.851 154.171C122.666 154.171 121.647 153.979 120.795 153.597C119.947 153.209 119.305 152.64 118.867 151.888C118.43 151.131 118.211 150.208 118.211 149.119C118.211 148.294 118.336 147.57 118.587 146.945C118.838 146.316 119.204 145.788 119.688 145.359C120.171 144.931 120.763 144.607 121.465 144.389C122.167 144.165 122.962 144.054 123.851 144.054C125.031 144.054 126.049 144.25 126.906 144.642C127.763 145.029 128.417 145.603 128.868 146.364C129.319 147.121 129.545 148.039 129.545 149.119ZM121.718 149.146C121.718 149.78 121.859 150.331 122.142 150.801C122.429 151.27 122.992 151.505 123.83 151.505C124.477 151.505 124.96 151.382 125.279 151.136C125.603 150.89 125.803 150.609 125.881 150.295C125.963 149.976 126.018 149.593 126.045 149.146C126.018 148.513 125.865 147.962 125.587 147.492C125.309 147.018 124.723 146.781 123.83 146.781C122.422 146.781 121.718 147.57 121.718 149.146ZM136.668 151.061H139.758V154H135.383C134.312 154 133.343 153.811 132.478 153.433C131.612 153.05 130.928 152.478 130.427 151.717C129.93 150.956 129.682 150.024 129.682 148.921C129.682 148.146 129.83 147.456 130.126 146.85C130.427 146.239 130.841 145.733 131.37 145.332C131.899 144.926 132.505 144.626 133.188 144.43C133.877 144.229 134.608 144.129 135.383 144.129H138.09H139.758V147.068H136.668C135.975 147.068 135.463 147.089 135.13 147.13C134.797 147.171 134.501 147.239 134.241 147.335C133.981 147.431 133.751 147.597 133.551 147.834C133.35 148.071 133.234 148.49 133.202 149.092C133.225 149.675 133.341 150.092 133.551 150.343C133.76 150.593 134.016 150.76 134.316 150.842C134.617 150.924 134.927 150.981 135.246 151.013C135.565 151.045 136.039 151.061 136.668 151.061ZM139.211 154L142.458 144.129H147.359L150.661 154H146.929L146.307 152.223H143.374L142.752 154H139.211ZM144.919 146.316L143.504 150.227H146.225L144.919 146.316ZM150.531 154V144.129H157.265C158.345 144.138 159.165 144.325 159.726 144.689C160.291 145.054 160.632 145.665 160.751 146.521C160.792 147.178 160.653 147.693 160.334 148.066C160.015 148.44 159.489 148.748 158.755 148.989V149.017C159.115 149.062 159.448 149.16 159.753 149.311C160.058 149.456 160.313 149.632 160.519 149.837C160.728 150.037 160.89 150.265 161.004 150.521C161.118 150.776 161.175 151.026 161.175 151.272C161.175 152.052 160.974 152.642 160.573 153.043C160.177 153.444 159.664 153.706 159.035 153.829C158.411 153.952 157.652 154.009 156.759 154H150.531ZM153.936 150.179V152.004H156.13C156.508 152.018 156.839 151.936 157.121 151.758C157.404 151.58 157.545 151.361 157.545 151.102C157.572 150.814 157.456 150.589 157.196 150.425C156.941 150.261 156.586 150.179 156.13 150.179H153.936ZM153.936 146.521V148.019H156.328C156.46 148.019 156.599 147.95 156.745 147.813C156.891 147.672 156.968 147.485 156.978 147.253C156.959 146.984 156.87 146.795 156.711 146.686C156.556 146.576 156.426 146.521 156.321 146.521H153.936ZM164.531 144.129V149.967C164.504 150.632 164.632 151.095 164.914 151.354C165.197 151.614 165.639 151.753 166.24 151.771C166.723 151.762 167.127 151.621 167.45 151.348C167.774 151.074 167.926 150.614 167.908 149.967V144.129H171.121V149.919C171.107 150.739 170.971 151.396 170.711 151.888C170.456 152.375 170.13 152.783 169.733 153.111C169.341 153.439 168.847 153.695 168.25 153.877C167.658 154.059 166.997 154.16 166.268 154.178C165.661 154.164 165.044 154.082 164.415 153.932C163.791 153.777 163.244 153.535 162.774 153.207C162.31 152.879 161.95 152.457 161.694 151.942C161.444 151.427 161.318 150.755 161.318 149.926V144.129H164.531ZM171.6 154V144.129H174.812V151.061H180.158V154H171.6ZM179.611 154L182.858 144.129H187.76L191.062 154H187.329L186.707 152.223H183.774L183.152 154H179.611ZM185.319 146.316L183.904 150.227H186.625L185.319 146.316ZM190.932 154V144.129H197.357C198.15 144.202 198.802 144.411 199.312 144.758C199.823 145.104 200.197 145.569 200.434 146.152C200.616 147.027 200.625 147.702 200.461 148.176C200.297 148.65 200.01 149.046 199.6 149.365C199.189 149.684 198.602 149.935 197.836 150.117L198.205 150.589C198.451 150.903 198.88 151.061 199.49 151.061H201.527V154H199.162C198.141 154 197.109 153.458 196.065 152.373L194.5 150.739V154H190.932ZM194.5 146.59V148.408H196.988C197.12 148.408 197.264 148.36 197.419 148.265C197.574 148.164 197.656 147.916 197.665 147.52C197.642 147.141 197.549 146.893 197.385 146.774C197.225 146.651 197.091 146.59 196.981 146.59H194.5ZM212.068 144.129L207.762 150.377V154H204.535V150.377L200.229 144.129H204.125L206.135 147.178L208.172 144.129H212.068ZM218.084 154V147.068H216.033V144.129H221.297V151.061H226.643V154H218.084ZM227.053 154V144.129H235.516V147.068H230.266V148.203H233.656V149.926H230.266V151.061H236.35V154H227.053ZM235.393 154L238.64 144.129H243.541L246.843 154H243.11L242.488 152.223H239.556L238.934 154H235.393ZM241.101 146.316L239.686 150.227H242.406L241.101 146.316ZM246.713 154V144.129H253.139C253.932 144.202 254.583 144.411 255.094 144.758C255.604 145.104 255.978 145.569 256.215 146.152C256.397 147.027 256.406 147.702 256.242 148.176C256.078 148.65 255.791 149.046 255.381 149.365C254.971 149.684 254.383 149.935 253.617 150.117L253.986 150.589C254.232 150.903 254.661 151.061 255.271 151.061H257.309V154H254.943C253.923 154 252.89 153.458 251.847 152.373L250.281 150.739V154H246.713ZM250.281 146.59V148.408H252.77C252.902 148.408 253.045 148.36 253.2 148.265C253.355 148.164 253.437 147.916 253.446 147.52C253.424 147.141 253.33 146.893 253.166 146.774C253.007 146.651 252.872 146.59 252.763 146.59H250.281ZM257.309 154V144.129H260.521L263.461 147.82V144.129H266.674V154H263.461L260.521 150.309V154H257.309ZM266.947 144.129H270.16V154H266.947V144.129ZM270.844 154V144.129H274.057L276.996 147.82V144.129H280.209V154H276.996L274.057 150.309V154H270.844ZM287.264 151.061V149.064H290.354V154H285.979C284.908 154 283.939 153.811 283.073 153.433C282.207 153.05 281.524 152.478 281.022 151.717C280.526 150.956 280.277 150.024 280.277 148.921C280.277 148.146 280.425 147.456 280.722 146.85C281.022 146.239 281.437 145.733 281.966 145.332C282.494 144.926 283.101 144.626 283.784 144.43C284.472 144.229 285.204 144.129 285.979 144.129H288.686H290.354V147.068H287.264C286.571 147.068 286.058 147.089 285.726 147.13C285.393 147.171 285.097 147.239 284.837 147.335C284.577 147.431 284.347 147.597 284.146 147.834C283.946 148.071 283.83 148.49 283.798 149.092C283.821 149.675 283.937 150.092 284.146 150.343C284.356 150.593 284.611 150.76 284.912 150.842C285.213 150.924 285.523 150.981 285.842 151.013C286.161 151.045 286.635 151.061 287.264 151.061ZM297.258 154V147.068H295.207V144.129H303.684C304.477 144.202 305.133 144.407 305.652 144.744C306.172 145.081 306.541 145.551 306.76 146.152C306.96 146.882 307.042 147.428 307.006 147.793C306.969 148.158 306.896 148.499 306.787 148.818C306.678 149.137 306.377 149.507 305.885 149.926C305.393 150.345 304.736 150.616 303.916 150.739H300.826V154H297.258ZM300.826 146.59V148.408H303.314C303.447 148.408 303.59 148.36 303.745 148.265C303.9 148.164 303.982 147.916 303.991 147.52C303.968 147.141 303.875 146.893 303.711 146.774C303.551 146.651 303.417 146.59 303.308 146.59H300.826ZM307.525 154V144.129H310.738V151.061H316.084V154H307.525ZM315.537 154L318.784 144.129H323.686L326.987 154H323.255L322.633 152.223H319.7L319.078 154H315.537ZM321.245 146.316L319.83 150.227H322.551L321.245 146.316ZM335.854 144.129V147.068H332.723V154H329.51V147.068H326.379V144.129H335.854ZM336.195 154V144.129H344.658V147.068H339.408V148.203H342.799V149.926H339.408V154H336.195ZM356.266 149.119C356.266 150.199 356.04 151.12 355.589 151.881C355.138 152.642 354.484 153.214 353.627 153.597C352.775 153.979 351.756 154.171 350.571 154.171C349.386 154.171 348.368 153.979 347.516 153.597C346.668 153.209 346.025 152.64 345.588 151.888C345.15 151.131 344.932 150.208 344.932 149.119C344.932 148.294 345.057 147.57 345.308 146.945C345.558 146.316 345.925 145.788 346.408 145.359C346.891 144.931 347.484 144.607 348.186 144.389C348.887 144.165 349.683 144.054 350.571 144.054C351.752 144.054 352.77 144.25 353.627 144.642C354.484 145.029 355.138 145.603 355.589 146.364C356.04 147.121 356.266 148.039 356.266 149.119ZM348.438 149.146C348.438 149.78 348.58 150.331 348.862 150.801C349.149 151.27 349.712 151.505 350.551 151.505C351.198 151.505 351.681 151.382 352 151.136C352.324 150.89 352.524 150.609 352.602 150.295C352.684 149.976 352.738 149.593 352.766 149.146C352.738 148.513 352.586 147.962 352.308 147.492C352.03 147.018 351.444 146.781 350.551 146.781C349.143 146.781 348.438 147.57 348.438 149.146ZM356.744 154V144.129H363.17C363.963 144.202 364.615 144.411 365.125 144.758C365.635 145.104 366.009 145.569 366.246 146.152C366.428 147.027 366.438 147.702 366.273 148.176C366.109 148.65 365.822 149.046 365.412 149.365C365.002 149.684 364.414 149.935 363.648 150.117L364.018 150.589C364.264 150.903 364.692 151.061 365.303 151.061H367.34V154H364.975C363.954 154 362.922 153.458 361.878 152.373L360.312 150.739V154H356.744ZM360.312 146.59V148.408H362.801C362.933 148.408 363.076 148.36 363.231 148.265C363.386 148.164 363.468 147.916 363.478 147.52C363.455 147.141 363.361 146.893 363.197 146.774C363.038 146.651 362.903 146.59 362.794 146.59H360.312ZM367.203 154V144.129H370.416L372.576 148.23L374.723 144.129H377.936V154H374.723V149.898L372.658 154H372.48L370.416 149.898V154H367.203Z" fill="white" fill-opacity="0.77"/>
<g filter="url(#filter0_d_269_29108)">
<path d="M5 111H485V119H5V111Z" stroke="white" stroke-width="2" shape-rendering="crispEdges"/>
</g>
<defs>
<filter id="filter0_d_269_29108" x="0" y="106" width="490" height="18" filterUnits="userSpaceOnUse" color-interpolation-filters="sRGB">
<feFlood flood-opacity="0" result="BackgroundImageFix"/>
<feColorMatrix in="SourceAlpha" type="matrix" values="0 0 0 0 0 0 0 0 0 0 0 0 0 0 0 0 0 0 127 0" result="hardAlpha"/>
<feOffset/>
<feGaussianBlur stdDeviation="2"/>
<feComposite in2="hardAlpha" operator="out"/>
<feColorMatrix type="matrix" values="0 0 0 0 0.807843 0 0 0 0 0.717647 0 0 0 0 1 0 0 0 1 0"/>
<feBlend mode="normal" in2="BackgroundImageFix" result="effect1_dropShadow_269_29108"/>
<feBlend mode="normal" in="SourceGraphic" in2="effect1_dropShadow_269_29108" result="shape"/>
</filter>
</defs>
</svg>
