<svg width="93" height="151" viewBox="0 0 93 151" fill="none" xmlns="http://www.w3.org/2000/svg">
<g opacity="0.2">
<path d="M41.8996 151C65.0401 151 83.7992 148.549 83.7992 145.525C83.7992 142.501 65.0401 140.05 41.8996 140.05C18.7591 140.05 0 142.501 0 145.525C0 148.549 18.7591 151 41.8996 151Z" fill="#371A45"/>
</g>
<path d="M62.576 67.6641H30.8448C25.9646 67.6641 22.0084 71.6202 22.0084 76.5004V107.431C22.0084 112.311 25.9646 116.267 30.8448 116.267H62.576C67.4562 116.267 71.4124 112.311 71.4124 107.431V76.5004C71.4124 71.6202 67.4562 67.6641 62.576 67.6641Z" fill="white"/>
<path d="M62.5755 117.152H30.8448C25.4848 117.152 21.1239 112.791 21.1239 107.431V76.5012C21.1239 71.1407 25.4848 66.7798 30.8448 66.7798H62.5755C67.936 66.7798 72.2964 71.1407 72.2964 76.5012V107.431C72.2964 112.791 67.936 117.152 62.5755 117.152ZM30.8448 68.5498C26.4602 68.5498 22.893 72.1165 22.893 76.5021V107.432C22.893 111.817 26.4597 115.384 30.8448 115.384H62.5755C66.9607 115.384 70.5278 111.817 70.5278 107.432V76.5012C70.5278 72.116 66.9611 68.5489 62.5755 68.5489L30.8448 68.5498Z" fill="#371A45"/>
<path d="M77.4224 99.2919C77.4224 99.2919 79.6023 106.092 72.4361 107.551C71.145 107.816 69.9109 107.708 68.8076 107.305C64.052 105.552 61.7518 98.2195 67.9992 90.8826C68.3287 90.4936 68.6826 90.1065 69.0606 89.7175C69.0776 89.7028 69.0935 89.6869 69.1082 89.6699C69.1082 89.6699 68.7753 89.1216 67.7153 88.3474C67.0495 87.8633 66.0946 87.2883 64.7568 86.7067L62.1888 78.8462L62.184 78.8329L61.7289 77.4395L58.9517 68.9531C58.9517 68.9531 61.4964 69.8177 64.7492 71.2905C65.824 71.777 66.9781 72.332 68.1433 72.9445C68.4638 73.1124 68.7867 73.2869 69.1096 73.4638C69.1096 73.4638 69.8149 73.8443 70.9205 74.53C76.573 78.0491 92.6398 89.6052 77.4224 99.2919Z" fill="white"/>
<g opacity="0.2">
<path d="M68.1419 72.9435C66.6915 74.6993 64.4801 76.2358 61.7276 77.4385L58.9503 68.9521C58.9503 68.9521 61.495 69.8167 64.7479 71.2895C65.8226 71.776 66.9749 72.331 68.1419 72.9435Z" fill="#371A45"/>
</g>
<path d="M40.1153 67.6631L31.6774 76.9018C29.1522 75.6411 27.1686 74.0779 25.9346 72.3202C30.2395 69.696 35.0927 68.1022 40.1153 67.6631Z" fill="#D8D8D8"/>
<path d="M64.3541 76.0899C60.182 78.6018 54.0787 80.1849 47.2773 80.1849C39.967 80.1849 33.4618 78.3564 29.2959 75.5131C29.4176 75.2544 29.5389 74.9975 29.6654 74.7388C29.6654 74.7388 27.339 61.3656 38.9788 56.8193C41.7097 56.2629 44.4902 55.9858 47.2773 55.9923C50.3042 55.9923 53.1923 56.3066 55.8345 56.8768C65.8445 61.4698 63.7154 74.7388 63.7154 74.7388C63.9342 75.1901 64.1487 75.641 64.3541 76.0899Z" fill="#D8D8D8"/>
<g opacity="0.2">
<path d="M63.9888 80.3099L64.7554 86.7043C68.227 88.2118 69.1087 89.6675 69.1087 89.6675C69.0925 89.6841 69.0759 89.7008 69.0612 89.715C69.9923 88.947 71.2416 88.0686 72.5532 87.575C72.5532 87.575 70.0803 86.291 69.3284 85.2976C66.9112 82.1199 66.8607 80.9733 65.9358 79.665C65.6367 79.2465 63.6493 79.607 63.9888 80.3099Z" fill="#371A45"/>
</g>
<g opacity="0.2">
<path d="M72.4366 107.553C79.5182 106.109 77.4723 99.4514 77.4248 99.293C77.4248 99.293 76.195 105.883 69.793 104.075C65.6994 102.917 66.0456 97.1473 66.8269 93.1398C66.7582 92.9812 66.7011 92.8178 66.6562 92.6509H66.6538C61.0009 101.055 66.0237 108.86 72.4366 107.553Z" fill="#371A45"/>
</g>
<path d="M71.0552 108.58C68.3165 108.58 65.8183 107.094 64.4297 104.534C62.5703 101.11 62.5593 95.4512 67.9089 89.6493C67.4428 89.2156 66.5597 88.5341 65.0313 87.8065C64.9249 87.7575 64.8294 87.6879 64.7502 87.6016C64.6709 87.5154 64.6096 87.4143 64.5698 87.3041C64.53 87.194 64.5124 87.0771 64.5181 86.9601C64.5238 86.8432 64.5527 86.7285 64.6031 86.6228C64.6534 86.517 64.7243 86.4224 64.8115 86.3443C64.8988 86.2661 65.0007 86.2061 65.1113 86.1677C65.2219 86.1293 65.3391 86.1132 65.4559 86.1204C65.5728 86.1276 65.6871 86.1579 65.7922 86.2096C68.8724 87.6762 69.774 89.0601 69.8668 89.2132L70.223 89.802L69.7403 90.2918C64.4991 95.6181 64.3636 100.707 65.9834 103.692C67.2721 106.07 69.677 107.216 72.2579 106.688C74.1449 106.303 75.466 105.485 76.1855 104.257C77.3982 102.186 76.5879 99.5904 76.5798 99.5647L76.3715 98.9151L76.9469 98.5485C81.0172 95.9572 83.0226 93.0543 82.9085 89.9204C82.6132 81.833 68.8286 74.3197 68.6893 74.2445C63.8053 71.5496 58.7159 69.8114 58.665 69.7943C58.4449 69.7173 58.2641 69.5566 58.1618 69.3471C58.0596 69.1376 58.0442 68.8961 58.1191 68.6753C58.1939 68.4545 58.3529 68.2722 58.5615 68.168C58.77 68.0638 59.0113 68.0461 59.2328 68.1189C59.4463 68.1912 64.5172 69.9217 69.5363 72.6914C70.1321 73.0119 84.3418 80.7564 84.6762 89.8538C84.8103 93.5118 82.7097 96.8193 78.4302 99.6922C78.6561 100.806 78.9057 103.116 77.7121 105.151C76.7281 106.832 75.0119 107.932 72.6112 108.422C72.0992 108.526 71.5779 108.579 71.0552 108.58Z" fill="#371A45"/>
<path d="M77.5557 99.9969C76.2716 100.475 74.9092 100.797 73.531 100.774C74.0218 100.431 74.7085 99.9784 75.2069 99.6431C75.7481 99.2841 76.3059 98.916 76.8556 98.5869L77.5557 99.9969Z" fill="#371A45"/>
<path d="M82.2061 95.6368C82.1189 95.6366 82.0326 95.6193 81.9522 95.5857C81.8717 95.5521 81.7987 95.503 81.7373 95.4411C81.6758 95.3793 81.6272 95.3059 81.5941 95.2253C81.561 95.1446 81.5442 95.0582 81.5446 94.971C81.5484 93.4126 80.135 91.7406 77.9441 90.7124C75.31 89.476 71.3106 89.1454 67.985 91.9232C67.9184 91.9811 67.8409 92.0252 67.7571 92.0529C67.6733 92.0805 67.5848 92.0911 67.4968 92.0841C67.4088 92.0771 67.3231 92.0527 67.2447 92.0121C67.1663 91.9716 67.0968 91.9158 67.0402 91.8481C66.9836 91.7803 66.9411 91.702 66.9152 91.6176C66.8893 91.5332 66.8805 91.4445 66.8893 91.3567C66.8981 91.2689 66.9243 91.1837 66.9665 91.1061C67.0086 91.0286 67.0658 90.9602 67.1347 90.905C70.9392 87.7278 75.5045 88.1025 78.5077 89.5116C81.1637 90.7581 82.8762 92.9024 82.8709 94.9744C82.8701 95.1502 82.7996 95.3186 82.6751 95.4427C82.5505 95.5668 82.3819 95.6366 82.2061 95.6368Z" fill="#371A45"/>
<path d="M68.4167 89.0468C69.7355 88.3811 71.1098 87.7871 72.5541 87.4946C71.3548 88.2555 70.3285 89.2499 69.385 90.2885L68.4177 89.0468H68.4167Z" fill="#371A45"/>
<path d="M46.0189 115.819C45.8819 118.028 45.7935 120.234 45.7359 122.386C45.7226 122.93 45.7093 123.471 45.6984 124.006C45.5148 133.444 45.871 141.495 45.1658 143.529C44.2013 146.298 41.6985 146.538 41.6985 146.538H33.1384C33.1384 146.538 27.222 146.835 25.6488 145.388C24.0757 143.942 24.2312 141.888 25.3787 140.466C26.3607 139.246 28.1208 138.732 28.1208 138.732C28.1208 138.732 26.9319 129.927 25.7149 118.206C25.6674 117.73 25.6155 117.251 25.567 116.766C25.1956 113.144 24.8285 109.28 24.4946 105.33L46.0189 115.819Z" fill="white"/>
<g opacity="0.2">
<path d="M46.0189 115.818C45.882 118.027 45.7935 120.234 45.736 122.385C45.7227 122.93 45.7093 123.471 45.6984 124.006C35.987 124.577 29.4638 121.153 25.7159 118.204C25.6683 117.729 25.6165 117.249 25.568 116.765C25.1966 113.143 24.8294 109.278 24.4956 105.329L46.0189 115.818Z" fill="#371A45"/>
</g>
<g opacity="0.2">
<path d="M25.6488 145.389C27.2181 146.832 33.1364 146.538 33.1364 146.538H41.6965C41.6965 146.538 44.2008 146.295 45.1647 143.528C45.2855 143.181 45.3759 142.659 45.4425 141.982C44.3458 142.832 43.2345 142.939 43.2345 142.939H33.5559C33.5559 142.939 26.8686 143.272 25.0909 141.638C24.9977 141.553 24.909 141.464 24.8251 141.37C24.2383 142.675 24.3881 144.229 25.6488 145.389Z" fill="#371A45"/>
</g>
<path d="M31.7621 147.456C29.7443 147.456 26.3778 147.261 25.051 146.04C23.2871 144.418 23.1354 141.841 24.69 139.912C25.4129 139.015 26.4591 138.452 27.1529 138.153C26.7249 134.889 24.9064 120.678 23.6129 105.406C23.5931 105.172 23.6671 104.94 23.8184 104.761C23.9698 104.581 24.1861 104.47 24.4199 104.45C24.6537 104.43 24.8857 104.504 25.065 104.655C25.2442 104.807 25.356 105.023 25.3758 105.257C26.8391 122.537 28.9772 138.456 28.9986 138.615C29.0269 138.825 28.979 139.038 28.8636 139.215C28.7481 139.393 28.5728 139.523 28.3694 139.582C28.3566 139.586 26.8591 140.039 26.0672 141.022C25.2493 142.037 24.9882 143.579 26.248 144.738C27.1425 145.56 30.7886 145.768 33.0927 145.656C33.1069 145.656 33.1217 145.656 33.1364 145.656H41.6423C41.8977 145.618 43.6177 145.286 44.3297 143.239C44.7496 142.032 44.7501 137.805 44.751 132.91C44.751 128 44.751 121.888 45.1367 115.764C45.1514 115.53 45.2585 115.311 45.4345 115.156C45.6104 115.001 45.8408 114.922 46.075 114.936C46.3091 114.951 46.5278 115.058 46.683 115.234C46.8382 115.41 46.9171 115.641 46.9024 115.875C46.522 121.943 46.522 128.024 46.522 132.911C46.522 138.584 46.522 142.332 46.0027 143.82C44.8656 147.088 41.9086 147.409 41.7835 147.421C41.7555 147.423 41.7269 147.425 41.6989 147.425H33.1578C32.8953 147.437 32.3946 147.456 31.7621 147.456Z" fill="#371A45"/>
<path d="M37.4022 130.504C33.9083 130.504 29.8718 130.064 26.4049 128.532C26.1978 128.433 26.0374 128.257 25.9577 128.042C25.8781 127.826 25.8853 127.588 25.9781 127.378C26.0708 127.168 26.2416 127.002 26.4544 126.916C26.6673 126.83 26.9053 126.829 27.1183 126.916C34.5746 130.209 45.3536 127.999 45.462 127.976C45.5757 127.952 45.693 127.95 45.8072 127.972C45.9213 127.993 46.0302 128.037 46.1275 128.101C46.2247 128.164 46.3086 128.246 46.3741 128.342C46.4397 128.438 46.4858 128.546 46.5097 128.659C46.5336 128.773 46.5348 128.89 46.5134 129.005C46.4919 129.119 46.4482 129.228 46.3847 129.325C46.3212 129.422 46.2392 129.506 46.1433 129.572C46.0474 129.637 45.9395 129.683 45.8258 129.707C45.5647 129.759 41.9414 130.504 37.4022 130.504Z" fill="#371A45"/>
<path d="M27.9148 137.874C30.2398 137.489 32.5239 137.679 34.8028 138.057C34.9135 138.077 35.0126 138.138 35.08 138.227C35.1475 138.317 35.1783 138.429 35.1663 138.541C35.1542 138.653 35.1001 138.756 35.0149 138.829C34.9298 138.903 34.82 138.941 34.7077 138.936C32.58 138.865 30.3435 138.973 28.3299 139.594C27.122 139.927 26.6869 138.133 27.9153 137.874H27.9148Z" fill="#371A45"/>
<path d="M47.3619 115.819C47.4994 118.028 47.5878 120.234 47.6473 122.386C47.6601 122.93 47.6734 123.471 47.6848 124.006C47.8684 133.444 47.5122 141.495 48.2175 143.529C49.1814 146.298 51.6848 146.538 51.6848 146.538H60.2448C60.2448 146.538 66.1598 146.835 67.732 145.389C69.3042 143.943 69.1497 141.888 68.0017 140.466C67.0201 139.246 65.2601 138.733 65.2601 138.733C65.2601 138.733 66.449 129.928 67.6659 118.206C67.7135 117.731 67.7653 117.251 67.8138 116.767C68.1852 113.145 68.5524 109.28 68.8862 105.331L47.3619 115.819Z" fill="white"/>
<g opacity="0.2">
<path d="M47.3619 115.818C47.4994 118.027 47.5878 120.234 47.6473 122.385C47.6601 122.93 47.6734 123.471 47.6848 124.006C57.3962 124.577 63.919 121.153 67.6674 118.204C67.7149 117.729 67.7667 117.249 67.8153 116.765C68.1867 113.143 68.5538 109.278 68.8876 105.329L47.3619 115.818Z" fill="#371A45"/>
</g>
<g opacity="0.2">
<path d="M67.7325 145.389C66.1631 146.832 60.2453 146.538 60.2453 146.538H51.6852C51.6852 146.538 49.1809 146.295 48.2169 143.528C48.0957 143.181 48.0058 142.659 47.9392 141.982C49.0358 142.832 50.1468 142.939 50.1468 142.939H59.8253C59.8253 142.939 66.5131 143.272 68.2903 141.638C68.3835 141.553 68.4722 141.464 68.5561 141.37C69.143 142.675 68.9932 144.229 67.7325 145.389Z" fill="#371A45"/>
</g>
<path d="M61.6192 147.456C60.9862 147.456 60.486 147.437 60.223 147.424H51.6843C51.6562 147.424 51.6277 147.424 51.5997 147.42C51.4746 147.408 48.5171 147.087 47.3805 143.819C46.8626 142.331 46.8621 138.583 46.8612 132.91C46.8612 128.023 46.8612 121.942 46.4807 115.874C46.466 115.64 46.545 115.409 46.7002 115.233C46.8553 115.057 47.0741 114.95 47.3082 114.935C47.5424 114.921 47.7728 115 47.9487 115.155C48.1247 115.31 48.2318 115.529 48.2465 115.763C48.6303 121.887 48.6312 127.999 48.6322 132.909C48.6322 137.804 48.6322 142.031 49.053 143.238C49.7616 145.274 51.4665 145.613 51.7428 145.655H60.2468C60.2615 145.655 60.2762 145.655 60.2905 145.655C62.5941 145.767 66.2407 145.56 67.1352 144.737C68.395 143.578 68.1339 142.036 67.3159 141.021C66.5241 140.038 65.0266 139.585 65.0114 139.581C64.8089 139.521 64.6345 139.39 64.5196 139.213C64.4047 139.036 64.3568 138.823 64.3846 138.614C64.406 138.455 66.5441 122.536 68.0074 105.256C68.0271 105.022 68.1389 104.806 68.3182 104.654C68.4975 104.503 68.7295 104.429 68.9633 104.449C69.1971 104.469 69.4134 104.58 69.5647 104.76C69.7161 104.939 69.79 105.171 69.7703 105.405C68.4768 120.677 66.6578 134.889 66.2302 138.152C66.9241 138.451 67.9703 139.014 68.6931 139.911C70.2478 141.84 70.0961 144.417 68.3322 146.039C67.0035 147.261 63.637 147.456 61.6192 147.456Z" fill="#371A45"/>
<path d="M55.979 130.504C51.4388 130.504 47.8165 129.761 47.5544 129.706C47.4407 129.682 47.3329 129.636 47.237 129.571C47.1411 129.505 47.059 129.421 46.9955 129.324C46.932 129.227 46.8883 129.118 46.8669 129.004C46.8454 128.889 46.8467 128.772 46.8706 128.658C46.8945 128.545 46.9405 128.437 47.0061 128.341C47.0717 128.245 47.1555 128.163 47.2528 128.1C47.3501 128.036 47.4589 127.992 47.5731 127.971C47.6873 127.949 47.8046 127.951 47.9182 127.975C48.0262 127.997 58.8166 130.203 66.2615 126.915C66.3686 126.861 66.4853 126.83 66.6046 126.824C66.724 126.817 66.8435 126.834 66.9559 126.875C67.0683 126.916 67.1712 126.979 67.2586 127.06C67.346 127.142 67.4159 127.24 67.4641 127.35C67.5124 127.459 67.5379 127.577 67.5393 127.697C67.5407 127.816 67.5178 127.935 67.4721 128.045C67.4264 128.156 67.3587 128.256 67.2733 128.339C67.1878 128.423 67.0863 128.488 66.9748 128.531C63.5094 130.061 59.4724 130.504 55.979 130.504Z" fill="#371A45"/>
<path d="M65.0518 139.593C63.0378 138.972 60.8017 138.864 58.674 138.935C58.1271 138.955 58.0406 138.153 58.5789 138.056C60.8578 137.679 63.1414 137.485 65.4669 137.874C66.6924 138.13 66.2635 139.923 65.0522 139.593H65.0518Z" fill="#371A45"/>
<path d="M61.6192 147.456C60.9862 147.456 60.486 147.437 60.223 147.424H51.6843C51.6562 147.424 51.6277 147.424 51.5997 147.42C51.4746 147.408 48.5171 147.087 47.3805 143.819C46.8626 142.331 46.8621 138.583 46.8612 132.91C46.8612 128.023 46.8612 121.942 46.4807 115.874C46.466 115.64 46.545 115.409 46.7002 115.233C46.8553 115.057 47.0741 114.95 47.3082 114.935C47.5424 114.921 47.7728 115 47.9487 115.155C48.1247 115.31 48.2318 115.529 48.2465 115.763C48.6303 121.887 48.6312 127.999 48.6322 132.909C48.6322 137.804 48.6322 142.031 49.0535 143.238C49.7616 145.274 51.467 145.613 51.7433 145.655H60.2468C60.2615 145.655 60.2762 145.655 60.2905 145.655C62.5946 145.768 66.2407 145.56 67.1352 144.737C68.395 143.578 68.1339 142.036 67.3159 141.021C66.5241 140.038 65.0266 139.585 65.0114 139.581C64.8089 139.521 64.6345 139.39 64.5196 139.213C64.4047 139.036 64.3568 138.823 64.3846 138.614C64.406 138.455 66.5441 122.536 68.0074 105.256C68.0271 105.022 68.1389 104.806 68.3182 104.654C68.4975 104.503 68.7295 104.429 68.9633 104.449C69.1971 104.469 69.4134 104.58 69.5647 104.76C69.7161 104.939 69.79 105.171 69.7703 105.405C68.4768 120.677 66.6578 134.889 66.2302 138.152C66.9241 138.451 67.9703 139.014 68.6931 139.911C70.2478 141.84 70.0961 144.417 68.3327 146.039C67.0035 147.261 63.637 147.456 61.6192 147.456Z" fill="#371A45"/>
<path d="M63.7164 74.7383C69.2804 86.2506 71.7838 96.7861 70.0855 104.976C69.4797 107.898 68.4686 110.302 67.1747 112.279C64.3807 116.539 60.2524 118.806 55.9515 119.962C52.808 120.806 49.5709 121.055 46.6928 121.055C44.4772 121.055 42.0485 120.907 39.6131 120.453C38.9302 120.326 38.2469 120.175 37.5682 119.996C33.7338 118.988 30.0283 117.104 27.2705 113.726C25.4634 111.51 24.0614 108.652 23.2991 104.976C21.6009 96.7857 24.1037 86.2501 29.6683 74.7378" fill="white"/>
<path d="M70.6076 99.2919C70.6276 101.289 70.4569 103.188 70.0845 104.977C70.0008 105.386 69.9081 105.785 69.8063 106.173C69.1914 108.563 68.2893 110.58 67.1727 112.28C64.3797 116.539 60.2514 118.806 55.9495 119.962C52.8051 120.807 49.568 121.056 46.6913 121.056C44.4757 121.056 42.0456 120.908 39.6112 120.454C38.9278 120.326 38.2444 120.176 37.5663 119.997C33.7299 118.988 30.0258 117.104 27.2666 113.726C25.6497 111.742 24.3567 109.242 23.5539 106.101C23.4588 105.734 23.3747 105.361 23.2952 104.976C22.9238 103.187 22.7536 101.288 22.7721 99.291C22.8344 92.14 25.313 83.7354 29.6649 74.7379C29.6649 74.7379 26.4311 56.133 46.6899 55.3526C66.9487 54.5723 63.7149 74.7379 63.7149 74.7379C68.0686 83.7364 70.5453 92.1409 70.6076 99.2919Z" fill="white"/>
<g opacity="0.2">
<path d="M64.3541 76.0899C60.182 78.6018 54.0787 80.1849 47.2773 80.1849C39.967 80.1849 33.4618 78.3564 29.2959 75.5131C29.4176 75.2544 29.5389 74.9975 29.6654 74.7388C29.6654 74.7388 27.339 61.3656 38.9788 56.8193C41.7097 56.2629 44.4902 55.9858 47.2773 55.9923C50.3042 55.9923 53.1923 56.3066 55.8345 56.8768C65.8445 61.4698 63.7154 74.7388 63.7154 74.7388C63.9342 75.1901 64.1487 75.641 64.3541 76.0899Z" fill="#371A45"/>
</g>
<g opacity="0.2">
<path d="M70.0855 104.977C69.4796 107.898 68.4714 110.303 67.1736 112.281C64.3807 116.539 60.2523 118.806 55.9504 119.962C52.806 120.807 49.5689 121.056 46.6923 121.056C44.4766 121.056 42.0465 120.908 39.6121 120.454C38.9288 120.326 38.2454 120.176 37.5672 119.997C33.7309 118.988 30.0268 117.105 27.2676 113.726C25.4605 111.51 24.059 108.651 23.2962 104.975C22.8273 102.716 22.678 100.277 22.8273 97.6875C22.895 98.904 23.0517 100.114 23.2962 101.307C24.0571 104.984 25.4609 107.841 27.2676 110.058C30.0258 113.437 33.7309 115.321 37.5672 116.329C38.2459 116.508 38.9292 116.659 39.6121 116.786C42.0465 117.24 44.4766 117.388 46.6923 117.388C49.5689 117.388 52.806 117.138 55.9504 116.294C60.2533 115.14 64.3816 112.87 67.1736 108.613C68.4714 106.636 69.4796 104.23 70.0855 101.309C70.3302 100.116 70.4869 98.9059 70.5544 97.6894C70.7028 100.278 70.5544 102.717 70.0855 104.977Z" fill="#371A45"/>
</g>
<path d="M26.9242 114.007C25.2231 112.622 24.1384 110.638 23.3784 108.615C21.0511 102.558 21.5333 95.7963 23.1882 89.6407C23.2465 89.4158 23.3909 89.2228 23.5903 89.1035C23.7897 88.9842 24.028 88.9482 24.2537 89.0031C24.4795 89.0581 24.6745 89.1997 24.7968 89.3973C24.919 89.5949 24.9585 89.8326 24.9069 90.0592C24.6986 91.0616 24.4989 92.0636 24.33 93.069C23.6995 97.0499 23.465 101.149 24.3015 105.103C24.8612 108.099 26.2166 110.76 27.6109 113.45C27.8363 113.872 27.298 114.318 26.9256 114.009L26.9242 114.007Z" fill="#371A45"/>
<path d="M56.0642 120.389C51.1184 122.271 44.841 122.361 39.7149 121.143C38.9507 120.931 38.1932 120.688 37.4527 120.425C37.3979 120.405 37.3474 120.375 37.3041 120.336C37.2609 120.297 37.2257 120.25 37.2007 120.198C37.1757 120.145 37.1612 120.088 37.1582 120.03C37.1552 119.972 37.1636 119.914 37.1831 119.859C37.2186 119.761 37.2875 119.678 37.3779 119.625C37.4682 119.572 37.5743 119.552 37.6776 119.569C38.4466 119.635 39.1947 119.759 39.9475 119.844C43.7173 120.234 47.5227 120.264 51.3029 120.026C52.8152 119.921 54.3203 119.751 55.8369 119.534C56.3486 119.461 56.5502 120.197 56.0642 120.39V120.389Z" fill="#371A45"/>
<path d="M66.3443 79.5003C70.8002 88.6215 73.9627 100.718 69.2057 110.291C68.4881 111.665 67.5826 112.952 66.457 114.007C66.0818 114.351 65.502 113.891 65.7717 113.448C72.3924 103.135 69.2047 90.6403 65.5272 79.8399C65.3599 79.3334 66.0894 79.0053 66.3443 79.5003Z" fill="#371A45"/>
<g opacity="0.2">
<path d="M60.7674 99.2921V94.002C60.7651 93.2434 60.4628 92.5166 59.9264 91.9802C59.39 91.4438 58.6631 91.1414 57.9045 91.1392H35.2983C34.5397 91.1414 33.8129 91.4438 33.2765 91.9802C32.7401 92.5166 32.4377 93.2434 32.4355 94.002V99.2921H22.7726L23.5534 106.103C26.3065 105.731 29.3805 105.333 32.4355 104.972V108.424C32.4377 109.182 32.7401 109.909 33.2765 110.446C33.8129 110.982 34.5397 111.284 35.2983 111.287H57.9045C58.6631 111.284 59.39 110.982 59.9264 110.446C60.4628 109.909 60.7651 109.182 60.7674 108.424V104.926C63.9061 105.321 67.0562 105.765 69.8068 106.173C69.9086 105.784 70.0015 105.386 70.0855 104.977C70.4569 103.188 70.6276 101.289 70.6086 99.2921H60.7674Z" fill="#371A45"/>
</g>
<path d="M59.2808 96.9328C59.2808 96.9328 66.8479 96.3559 70.0332 98.6491C73.4178 101.086 70.0075 103.906 70.0075 103.906C70.0075 103.906 63.9133 102.574 58.7953 102.765L59.2808 96.9328Z" fill="white"/>
<g opacity="0.2">
<path d="M70.0085 103.907C70.0085 103.907 63.9118 102.575 58.7953 102.765L58.9789 100.55C62.536 100.441 66.5226 101.047 68.5909 101.419C69.6903 101.617 70.8051 101.064 71.2621 100.044C71.2668 100.034 71.2711 100.024 71.2754 100.015C72.2769 102.029 70.0085 103.907 70.0085 103.907Z" fill="#371A45"/>
</g>
<path d="M34.732 96.9328C34.732 96.9328 27.1649 96.3559 23.9796 98.6491C20.5946 101.086 24.0048 103.906 24.0048 103.906C24.0048 103.906 30.0996 102.574 35.2176 102.765L34.732 96.9328Z" fill="white"/>
<path d="M70.2396 104.862L69.8193 104.77C69.7593 104.757 63.7692 103.466 58.8277 103.649L57.829 103.686L58.4624 96.1079L59.2138 96.0504C59.5362 96.0261 67.1423 95.4769 70.5502 97.9312C71.7481 98.7939 72.3754 99.8173 72.4139 100.975C72.4814 102.986 70.6496 104.524 70.5716 104.589L70.2396 104.862ZM59.8377 101.862C63.9599 101.862 68.3189 102.662 69.7327 102.946C70.1341 102.518 70.6729 101.766 70.6453 101.028C70.6239 100.449 70.2439 99.891 69.5163 99.3669C67.3701 97.8214 62.5361 97.6763 60.1003 97.7724L59.7598 101.862L59.8377 101.862Z" fill="#371944"/>
<path d="M23.7704 104.862L23.4375 104.588C23.3595 104.523 21.5281 102.985 21.5952 100.973C21.6337 99.8169 22.261 98.7935 23.4589 97.9299C26.8668 95.476 34.4728 96.0243 34.7953 96.049L35.5471 96.1066L36.1777 103.685L35.179 103.648C30.2361 103.466 24.2474 104.756 24.1875 104.768L23.7704 104.862ZM32.7042 97.7501C30.1167 97.7501 26.3232 98.0497 24.4937 99.367C23.7661 99.8901 23.3861 100.449 23.3647 101.028C23.3372 101.766 23.8755 102.514 24.2778 102.946C25.6916 102.66 30.0511 101.862 34.1723 101.862H34.2522L33.9117 97.772C33.5555 97.7587 33.1475 97.7501 32.7042 97.7501Z" fill="#371944"/>
<path d="M59.7697 94.6782V105.453C59.7697 107.453 58.1946 109.089 56.271 109.089H37.1645C35.2389 109.089 33.6663 107.453 33.6663 105.453V94.6782C33.6663 92.6808 35.2389 91.0449 37.1645 91.0449H56.271C57.8075 91.0449 59.1244 92.0912 59.589 93.5288C59.7085 93.9002 59.7695 94.288 59.7697 94.6782Z" fill="white"/>
<g opacity="0.2">
<path d="M59.7697 94.6782V105.453C59.7697 107.453 58.1946 109.089 56.271 109.089H37.1645C35.2389 109.089 33.6663 107.453 33.6663 105.453V101.827C36.9628 103.722 43.4932 106.567 50.0478 104.219C53.2498 103.072 56.9206 99.138 56.9206 99.138C56.9206 99.138 57.0633 103.265 57.652 103.2C59.2913 103.019 59.2794 94.6683 59.589 93.5293C59.7085 93.9006 59.7695 94.2882 59.7697 94.6782Z" fill="#371A45"/>
</g>
<path d="M56.4013 109.972H37.0332C35.9058 109.971 34.8249 109.523 34.0277 108.726C33.2304 107.928 32.782 106.847 32.7808 105.72V94.4131C32.782 93.2857 33.2304 92.2048 34.0277 91.4075C34.8249 90.6103 35.9058 90.1619 37.0332 90.1606H56.4013C57.5287 90.1619 58.6096 90.6103 59.4069 91.4075C60.2041 92.2048 60.6525 93.2857 60.6538 94.4131V105.72C60.6525 106.847 60.2041 107.928 59.4069 108.726C58.6096 109.523 57.5287 109.971 56.4013 109.972ZM37.0332 91.9297C36.3748 91.9305 35.7435 92.1924 35.2779 92.6579C34.8122 93.1234 34.5502 93.7547 34.5494 94.4131V105.72C34.5502 106.378 34.8122 107.01 35.2779 107.475C35.7435 107.941 36.3748 108.203 37.0332 108.203H56.4013C57.0597 108.203 57.691 107.941 58.1566 107.475C58.6223 107.01 58.8843 106.378 58.8851 105.72V94.4131C58.8843 93.7547 58.6223 93.1234 58.1566 92.6579C57.691 92.1924 57.0597 91.9305 56.4013 91.9297H37.0332Z" fill="#371944"/>
<path d="M53.4862 103.2C55.1527 103.2 56.5036 101.797 56.5036 100.066C56.5036 98.3355 55.1527 96.9326 53.4862 96.9326C51.8197 96.9326 50.4688 98.3355 50.4688 100.066C50.4688 101.797 51.8197 103.2 53.4862 103.2Z" fill="#22A7F0"/>
<path d="M56.5041 100.067C56.5047 100.276 56.4848 100.485 56.4446 100.69C56.166 99.2548 54.9466 98.1748 53.4857 98.1748C52.0248 98.1748 50.8055 99.2548 50.5287 100.69C50.4888 100.485 50.4689 100.276 50.4692 100.067C50.4692 98.3369 51.8194 96.9326 53.4857 96.9326C55.1521 96.9326 56.5041 98.3365 56.5041 100.067Z" fill="white"/>
<path d="M56.5031 100.067C56.5031 101.799 55.1516 103.201 53.4862 103.201C51.8208 103.201 50.4692 101.799 50.4692 100.067C50.4691 99.784 50.5059 99.5019 50.5786 99.228C50.9334 100.55 52.1004 101.52 53.4862 101.52C54.872 101.52 56.039 100.55 56.3938 99.228C56.4665 99.5019 56.5032 99.784 56.5031 100.067Z" fill="#1C7AEA"/>
<path d="M53.4861 103.863C51.4564 103.863 49.8053 102.16 49.8053 100.066C49.8053 97.9725 51.4564 96.2695 53.4861 96.2695C55.5158 96.2695 57.167 97.973 57.167 100.066C57.167 102.16 55.5139 103.863 53.4861 103.863ZM53.4861 97.5963C52.1883 97.5963 51.1321 98.7044 51.1321 100.066C51.1321 101.428 52.1883 102.536 53.4861 102.536C54.7839 102.536 55.8401 101.428 55.8401 100.066C55.8401 98.7044 54.7839 97.5949 53.4861 97.5949V97.5963Z" fill="#371944"/>
<path d="M43.9364 109.972C43.7018 109.972 43.4768 109.879 43.3109 109.713C43.145 109.547 43.0518 109.322 43.0518 109.088V103.571C43.0518 102.484 42.5553 101.447 41.7236 100.796L41.2385 100.415C39.9811 99.4321 39.2307 97.8733 39.2307 96.2454V91.0452C39.2307 90.8106 39.3239 90.5856 39.4898 90.4197C39.6557 90.2538 39.8807 90.1606 40.1153 90.1606C40.3498 90.1606 40.5748 90.2538 40.7407 90.4197C40.9066 90.5856 40.9998 90.8106 40.9998 91.0452V96.2488C40.9998 97.3368 41.4963 98.3745 42.328 99.0246L42.8131 99.405C44.0705 100.388 44.8209 101.947 44.8209 103.574V109.091C44.8202 109.325 44.7266 109.549 44.5608 109.714C44.395 109.88 44.1705 109.972 43.9364 109.972Z" fill="#371944"/>
<path d="M46.9016 90.1399C47.3634 92.8596 47.0077 94.536 46.3709 95.6878C45.9529 96.4487 45.4088 96.9837 44.9004 97.4369C42.9212 99.2012 36.6966 99.672 36.6966 99.672C36.6966 99.672 24.6659 104.823 17.2315 101.214C12.2766 98.8056 11.0492 91.8453 13.223 86.403C13.3909 85.9849 13.5877 85.547 13.8155 85.0876C13.8159 85.0854 13.8159 85.0831 13.8155 85.0809C16.9956 78.6685 25.9394 68.9305 40.114 67.6631L28.1689 80.741L26.3018 85.8485C31.2571 85.7976 34.7287 85.6673 35.726 85.2117C36.7232 84.7561 36.4269 81.2869 37.3933 79.9577C37.9349 79.2106 40.0312 79.2482 40.697 80.6963C41.4798 82.4083 40.3693 84.4004 41.4132 85.1717C42.1893 85.7467 44.9799 84.8051 46.6115 86.295C47.5317 87.1348 47.2868 89.0566 46.9016 90.1399Z" fill="white"/>
<g opacity="0.2">
<path d="M40.1153 67.6631L31.6774 76.9018C29.1522 75.6411 27.1686 74.0779 25.9346 72.3202C30.2395 69.696 35.0927 68.1022 40.1153 67.6631Z" fill="#371A45"/>
</g>
<g opacity="0.2">
<path d="M46.3709 95.6876C45.9529 96.4485 45.4088 96.9835 44.9004 97.4367C42.9212 99.201 36.6966 99.6718 36.6966 99.6718C36.6966 99.6718 24.6659 104.823 17.2315 101.214C12.2766 98.8054 11.0492 91.8451 13.223 86.4028C13.3909 85.9848 13.5877 85.5468 13.8155 85.0874C13.7314 85.4146 10.6293 97.693 19.3796 100.068C27.2363 102.201 33.4785 97.2018 36.0032 96.9341C38.0942 96.7115 42.7619 98.8187 46.3709 95.6876Z" fill="#371A45"/>
</g>
<path d="M40.1938 68.5452C31.5386 69.2752 23.359 73.7388 17.8977 80.4727C16.1162 82.6831 14.5122 85.1175 13.6609 87.8348C12.5143 91.7101 12.9328 96.4966 16.0016 99.3262C19.1607 102.045 24.1085 101.84 28.0161 101.225C30.8704 100.736 33.664 99.9425 36.3489 98.8573C36.4388 98.8206 36.5337 98.7973 36.6304 98.7884C37.967 98.6744 39.2954 98.4785 40.608 98.2015C41.7997 97.9343 43.167 97.5833 44.1338 96.9175C46.3171 95.2968 46.4716 92.8453 46.0298 90.2873C46.0046 90.138 46.0181 89.9848 46.0688 89.8421C46.3275 89.0755 46.4792 88.1273 46.2548 87.3597C46.1796 87.1576 46.1278 87.0378 45.9647 86.9056C45.6085 86.5936 45.1087 86.4181 44.5256 86.3349C42.9463 86.0776 40.589 86.8794 40.1148 84.6153C39.8014 83.133 40.8757 80.5592 38.7038 80.3633C38.4561 80.3514 38.2131 80.4056 38.1046 80.4836C38.035 80.5853 37.977 80.6946 37.932 80.8094C37.3499 82.2361 37.5991 84.095 36.7132 85.4965C36.3099 86.1242 35.3317 86.2674 34.7025 86.3634C33.2482 86.5603 31.8677 86.6012 30.47 86.654C29.0314 86.6882 27.5986 86.7387 26.1672 86.722C25.5965 86.6935 25.2227 86.0562 25.47 85.5436L27.7527 80.5906C27.9866 80.1032 28.7214 80.3752 28.5835 80.895L27.1306 86.1513L26.2908 84.9624C27.6699 84.9477 29.0448 84.9277 30.4139 84.8854C32.0731 84.7903 33.8056 84.8421 35.3464 84.4098C35.3649 84.4027 35.3426 84.4098 35.334 84.417C35.3255 84.4241 35.2636 84.4712 35.2836 84.4512C35.4543 84.1659 35.5214 83.7464 35.5999 83.3503C35.8543 82.0615 35.8705 80.6496 36.6704 79.4431C37.1354 78.7859 38.0809 78.5557 38.7757 78.5957C40.8952 78.687 41.9619 80.4137 41.8806 82.3806C41.9096 83.0545 41.6975 83.8582 41.9001 84.4227C41.9086 84.4398 41.9538 84.4674 41.9048 84.4384C42.0118 84.4897 42.4013 84.4973 42.5873 84.5007C44.1499 84.4669 46.2058 84.5007 47.3852 85.8251C48.4523 87.1258 48.206 88.9638 47.7323 90.438L47.7713 89.9929C48.1413 92.1301 48.1732 94.7328 46.8131 96.6507C46.355 97.2952 45.8028 97.8672 45.1748 98.3475C44.479 98.8469 43.7757 99.1179 43.0771 99.3657C41.0127 100.041 38.914 100.353 36.7617 100.555L37.0432 100.486C34.229 101.626 31.2996 102.458 28.3062 102.969C23.8284 103.673 18.4621 103.795 14.8208 100.642C11.1961 97.3203 10.6359 91.8248 11.9674 87.3236C14.7509 79.0222 23.0736 71.779 31.1605 68.8015C34.0077 67.7177 37.0099 67.0681 40.0364 66.7818C40.1528 66.7701 40.2704 66.7815 40.3823 66.8156C40.4943 66.8496 40.5984 66.9055 40.6886 66.98C40.7788 67.0545 40.8533 67.1462 40.9078 67.2498C40.9623 67.3533 40.9958 67.4666 41.0062 67.5832C41.0166 67.6997 41.0038 67.8172 40.9685 67.9287C40.9332 68.0403 40.8761 68.1437 40.8005 68.2331C40.725 68.3224 40.6324 68.3959 40.5283 68.4492C40.4241 68.5026 40.3104 68.5347 40.1938 68.5438V68.5452Z" fill="#371A45"/>
<path d="M18.1383 87.8935C18.1383 87.8935 20.2308 86.2291 26.3027 85.8486L18.1383 87.8935Z" fill="white"/>
<path d="M17.8625 87.5459C19.0766 86.6423 20.519 86.1629 21.9523 85.7597C23.3167 85.3792 24.8399 85.1343 26.2471 84.965C27.4707 84.8528 27.6148 86.6504 26.3841 86.7298C24.333 86.7626 22.2039 86.9253 20.2318 87.4974C19.5898 87.6876 18.9378 87.9178 18.3681 88.2649C17.9034 88.5422 17.444 87.8892 17.8621 87.5459H17.8625Z" fill="#371A45"/>
<path d="M19.1779 102.603C19.0717 102.603 18.9671 102.578 18.8728 102.529C18.7786 102.481 18.6974 102.41 18.6362 102.323C16.6022 99.4503 16.0877 96.5166 17.1068 93.6038C18.7917 88.7878 24.0024 85.8236 26.1182 85.2106C26.2042 85.1776 26.2962 85.1629 26.3882 85.1673C26.4803 85.1717 26.5704 85.1951 26.6529 85.2361C26.7354 85.2772 26.8085 85.3349 26.8676 85.4056C26.9266 85.4764 26.9704 85.5586 26.996 85.6471C27.0216 85.7356 27.0286 85.8285 27.0165 85.9199C27.0043 86.0112 26.9734 86.099 26.9256 86.1778C26.8778 86.2566 26.8141 86.3246 26.7386 86.3775C26.6632 86.4304 26.5776 86.467 26.4872 86.4851C24.3596 87.1033 19.7909 89.9496 18.359 94.0422C17.4901 96.5261 17.9476 99.0541 19.7186 101.556C19.7889 101.655 19.8305 101.772 19.839 101.893C19.8475 102.014 19.8224 102.136 19.7666 102.244C19.7108 102.352 19.6264 102.442 19.5225 102.506C19.4187 102.569 19.2995 102.602 19.1779 102.602V102.603Z" fill="#371A45"/>
<path d="M81.595 28.0352C81.595 28.0352 89.6458 31.0873 90.4733 32.5777C92.0074 35.3407 91.7225 51.582 87.4772 55.8159C85.8156 57.4742 73.6075 59.0235 73.6075 59.0235L81.595 28.0352Z" fill="white"/>
<g opacity="0.2">
<path d="M73.6094 59.0235C73.6094 59.0235 85.8174 57.4737 87.4781 55.8154C89.1388 54.1571 90.1888 50.6794 90.7637 46.882C90.6292 47.0038 86.3173 50.725 77.7158 43.1608L77.7001 43.1475L73.6094 59.0235Z" fill="#371A45"/>
</g>
<path d="M46.6942 44.9858V45.125L46.6052 45.0566L46.6942 44.9858Z" fill="#D8D8D8"/>
<path d="M46.6058 45.0566L46.5173 45.125V44.9858L46.6058 45.0566Z" fill="#D8D8D8"/>
<path d="M20.0154 59.0236C20.0154 59.0236 7.80729 57.4737 6.14664 55.8154C4.48599 54.1572 3.43595 50.6794 2.861 46.8821C1.96124 40.9556 2.21995 34.265 3.15537 32.5801C3.98237 31.0897 12.0331 28.0356 12.0331 28.0356L15.927 43.1494L20.0154 59.0236Z" fill="white"/>
<g opacity="0.2">
<path d="M20.0153 59.0235C20.0153 59.0235 7.80726 57.4737 6.1466 55.8154C4.48595 54.1571 3.43591 50.6794 2.86096 46.882C2.99602 47.0038 7.30744 50.725 15.9094 43.1608C15.9136 43.1565 15.9203 43.1517 15.9246 43.1475L20.0153 59.0235Z" fill="#371A45"/>
</g>
<path d="M72.4276 60.0652L80.9848 26.8579L81.9084 27.2079C84.4198 28.159 90.3581 30.5478 91.2464 32.1485C92.9466 35.2111 92.7307 51.8252 88.1039 56.4424C86.3187 58.2234 75.8093 59.6358 73.7207 59.9012L72.4276 60.0652ZM82.2032 29.2191L74.793 57.9742C80.2872 57.2133 86.0162 56.0282 86.8542 55.1903C90.7733 51.2798 91.0743 35.4826 89.6999 33.0074C89.2871 32.3278 85.6586 30.5887 82.2032 29.2191Z" fill="#371A45"/>
<path d="M21.198 60.0652L19.905 59.9012C17.8163 59.6358 7.30693 58.2234 5.52216 56.4424C0.894967 51.8252 0.679059 35.2111 2.37918 32.1485C3.268 30.5478 9.20584 28.1605 11.7173 27.2079L12.6408 26.8579L21.198 60.0652ZM11.4229 29.2195C7.96653 30.5863 4.33706 32.3283 3.92475 33.0088C2.55181 35.4817 2.85237 51.2798 6.77145 55.1903C7.61081 56.0282 13.3384 57.2133 18.8326 57.9742L11.4229 29.2195Z" fill="#371A45"/>
<path d="M46.8097 75.5409C67.4255 75.5409 84.1378 58.8285 84.1378 38.2128C84.1378 17.5971 67.4255 0.884766 46.8097 0.884766C26.194 0.884766 9.48169 17.5971 9.48169 38.2128C9.48169 58.8285 26.194 75.5409 46.8097 75.5409Z" fill="white"/>
<g opacity="0.2">
<path d="M84.1387 38.212C84.1387 58.828 67.4266 75.5401 46.8106 75.5401C26.1947 75.5401 9.47926 58.828 9.47926 38.212C9.47779 36.0723 9.66045 33.9365 10.0252 31.8281C13.0536 49.4015 28.3704 62.7699 46.8097 62.7699C65.249 62.7699 80.5635 49.4015 83.5918 31.8281C83.9569 33.9365 84.1399 36.0723 84.1387 38.212Z" fill="#371A45"/>
</g>
<path d="M46.8112 76.4257C25.7406 76.4257 8.59863 59.2837 8.59863 38.2131C8.59863 17.1425 25.7392 0.000488281 46.8112 0.000488281C67.8833 0.000488281 85.0238 17.1425 85.0238 38.2131C85.0238 59.2837 67.8785 76.4257 46.8112 76.4257ZM46.8112 1.76957C26.716 1.76957 10.3672 18.1179 10.3672 38.2131C10.3672 58.3083 26.716 74.6571 46.8112 74.6571C66.9065 74.6571 83.2548 58.3083 83.2548 38.2131C83.2548 18.1179 66.905 1.76957 46.8112 1.76957Z" fill="#371A45"/>
<path d="M46.8112 76.4257C25.7406 76.4257 8.59863 59.2837 8.59863 38.2131C8.59863 17.1425 25.7392 0.000488281 46.8112 0.000488281C67.8833 0.000488281 85.0238 17.1425 85.0238 38.2131C85.0238 59.2837 67.8785 76.4257 46.8112 76.4257ZM46.8112 1.76957C26.716 1.76957 10.3672 18.1179 10.3672 38.2131C10.3672 58.3083 26.716 74.6571 46.8112 74.6571C66.9065 74.6571 83.2548 58.3083 83.2548 38.2131C83.2548 18.1179 66.905 1.76957 46.8112 1.76957Z" fill="#371A45"/>
<path d="M46.8112 76.4257C25.7406 76.4257 8.59863 59.2837 8.59863 38.2131C8.59863 17.1425 25.7392 0.000488281 46.8112 0.000488281C67.8833 0.000488281 85.0238 17.1425 85.0238 38.2131C85.0238 59.2837 67.8785 76.4257 46.8112 76.4257ZM46.8112 1.76957C26.716 1.76957 10.3672 18.1179 10.3672 38.2131C10.3672 58.3083 26.716 74.6571 46.8112 74.6571C66.9065 74.6571 83.2548 58.3083 83.2548 38.2131C83.2548 18.1179 66.905 1.76957 46.8112 1.76957Z" fill="#371A45"/>
<path d="M46.8113 76.4252C29.3996 76.4252 14.2012 64.6789 9.83035 47.8555C9.82321 47.8351 9.81703 47.8146 9.8118 47.7932C8.6466 43.2709 8.31734 38.5737 8.84024 33.9331C10.9898 14.5902 27.3133 0.000976562 46.8113 0.000976562C66.3092 0.000976562 82.638 14.5945 84.7861 33.9464C85.3029 38.5824 84.9739 43.2738 83.815 47.7923C83.8093 47.8142 83.8031 47.836 83.796 47.857C79.418 64.6803 64.2167 76.4252 46.8113 76.4252ZM11.53 47.3638C15.6826 63.4344 30.189 74.6562 46.8113 74.6562C63.4335 74.6562 77.9409 63.433 82.0977 47.3624C82.1034 47.3381 82.1106 47.3148 82.1187 47.2906C83.2119 42.9986 83.5202 38.5444 83.0289 34.1428C80.9769 15.6868 65.4056 1.76958 46.8113 1.76958C28.2169 1.76958 12.6504 15.6821 10.5984 34.1309C10.4445 35.486 10.3677 36.8488 10.3682 38.2126C10.3657 41.2745 10.7491 44.3246 11.5095 47.2906C11.5143 47.3148 11.5214 47.3391 11.5276 47.3638H11.53Z" fill="#371A45"/>
<path d="M82.8376 29.3082C82.6647 29.3081 82.4956 29.2574 82.3512 29.1624C82.2068 29.0673 82.0933 28.932 82.0249 28.7732C76.128 15.0795 62.3035 6.23173 46.8098 6.23173C31.3255 6.23173 17.5053 15.0719 11.6008 28.7537C11.5107 28.9569 11.3475 29.1187 11.1436 29.207C10.9396 29.2953 10.7099 29.3036 10.5001 29.2302C10.2904 29.1569 10.1159 29.0072 10.0114 28.8111C9.90696 28.6149 9.88015 28.3867 9.93633 28.1716C14.4365 11.5846 29.5997 0 46.8112 0C64.0326 0 79.1991 11.5932 83.6922 28.1926C83.7275 28.3237 83.7322 28.4611 83.7059 28.5943C83.6796 28.7275 83.623 28.8529 83.5406 28.9608C83.4581 29.0686 83.352 29.1561 83.2303 29.2164C83.1087 29.2768 82.9748 29.3083 82.8391 29.3087L82.8376 29.3082ZM46.8112 4.46217C54.8515 4.46217 62.5997 6.74485 69.2181 11.0653C71.9984 12.875 74.5399 15.0273 76.7828 17.4716C70.1136 7.85671 59.0007 1.76956 46.8112 1.76956C34.6692 1.76956 23.5958 7.81486 16.9171 17.3636C24.3367 9.28814 35.1219 4.46217 46.8112 4.46217Z" fill="#371A45"/>
<path d="M84.1354 38.214C84.1376 41.3708 83.7405 44.5153 82.9537 47.5725C82.9528 47.5725 82.9519 47.5729 82.9513 47.5735C82.9507 47.5741 82.9503 47.575 82.9503 47.5758C76.4746 60.0864 62.722 70.8511 46.8079 70.8511C30.8937 70.8511 17.143 60.0864 10.6687 47.5758C10.6687 47.575 10.6683 47.5741 10.6677 47.5735C10.6671 47.5729 10.6662 47.5725 10.6654 47.5725C9.87588 44.5158 9.47798 41.3711 9.48122 38.214C9.48104 36.8175 9.56043 35.4222 9.719 34.0348C14.7547 20.1009 29.4547 10.019 46.8126 10.019C64.1705 10.019 78.8762 20.1076 83.9062 34.0443C84.0603 35.4288 84.1368 36.8209 84.1354 38.214Z" fill="#371A45"/>
<g opacity="0.35">
<path d="M84.1369 38.2147C84.1397 41.3715 83.7432 44.516 82.9566 47.5732C82.9557 47.5732 82.9548 47.5736 82.9542 47.5742C82.9536 47.5748 82.9532 47.5757 82.9532 47.5765C76.478 60.0871 62.7253 70.8514 46.8107 70.8514C30.8962 70.8514 17.1449 60.0871 10.6687 47.5765C10.6687 47.5757 10.6684 47.5748 10.6678 47.5742C10.6671 47.5736 10.6663 47.5732 10.6654 47.5732C10.2 45.7706 9.87044 43.9357 9.67957 42.0838C18.0494 51.4861 30.218 58.327 43.7657 58.327C61.0257 58.327 76.0562 47.2251 83.8363 33.8647C83.8601 33.9261 83.8839 33.9841 83.9048 34.0455C84.0596 35.4298 84.1371 36.8217 84.1369 38.2147Z" fill="#111A28"/>
</g>
<path d="M46.8079 71.3267C39.2346 71.3267 31.669 68.8961 24.9322 64.2979C18.8179 60.1259 13.6096 54.2765 10.2631 47.8241C10.2375 47.783 10.2184 47.7383 10.2065 47.6914C9.40662 44.5958 9.00266 41.4113 9.00428 38.214C9.00339 36.7998 9.08278 35.3867 9.24206 33.9815C9.24593 33.9448 9.2544 33.9087 9.26727 33.874C11.8044 26.8534 16.686 20.8133 23.379 16.4058C30.1971 11.9175 38.2982 9.54492 46.8065 9.54492C55.3147 9.54492 63.4192 11.9189 70.2382 16.4096C76.9341 20.8195 81.8138 26.8619 84.3495 33.8845C84.3624 33.9195 84.3709 33.9559 84.3747 33.9929C84.8862 38.5799 84.5607 43.2217 83.4141 47.6924C83.4018 47.7391 83.3827 47.7838 83.3575 47.825C80.011 54.277 74.8017 60.1268 68.6865 64.2989C61.9478 68.8961 54.3817 71.3267 46.8079 71.3267ZM11.1096 47.3951C17.0498 58.8404 30.3826 70.3756 46.8079 70.3756C63.2332 70.3756 76.5693 58.8404 82.5095 47.3951C83.6101 43.0731 83.9244 38.5884 83.4374 34.1551C78.2989 20.0015 63.5871 10.4965 46.8079 10.4965C30.0288 10.4965 15.3226 19.9977 10.1818 34.1456C9.68928 38.5824 10.0036 43.0717 11.1096 47.3966V47.3951Z" fill="#371A45"/>
<g opacity="0.5">
<path d="M77.7891 37.3716C78.3559 33.8367 76.7388 30.6381 74.1771 30.2273C71.6154 29.8165 69.0793 32.3492 68.5124 35.8841C67.9456 39.419 69.5627 42.6177 72.1244 43.0284C74.6861 43.4392 77.2222 40.9066 77.7891 37.3716Z" fill="white"/>
</g>
<g opacity="0.5">
<path d="M70.0096 49.6239C70.4862 48.0462 69.7751 46.4358 68.4214 46.0269C67.0676 45.6179 65.5839 46.5653 65.1073 48.143C64.6307 49.7206 65.3418 51.331 66.6955 51.74C68.0493 52.1489 69.533 51.2015 70.0096 49.6239Z" fill="white"/>
</g>
<g opacity="0.5">
<path d="M18.2092 49.4039C18.2092 49.4039 11.9712 30.8571 21.88 23.2148C31.7887 15.5726 46.2624 15.3101 45.9433 16.245C45.9433 16.245 29.9997 20.4485 23.9872 33.242C19.3495 43.1075 18.2092 49.4039 18.2092 49.4039Z" fill="white"/>
</g>
</svg>
