<svg width="846" height="903" viewBox="0 0 846 903" fill="none" xmlns="http://www.w3.org/2000/svg">
<path d="M456.152 0C458.465 0.1875 458.465 0.1875 461.152 1C464.478 5.12315 464.625 9.0897 464.527 14.1875C464.517 14.9449 464.507 15.7023 464.497 16.4827C464.114 30.3387 457.825 41.2662 448.152 51C446.152 52.8015 444.128 54.5538 442.047 56.2617C437.833 60.1281 435.699 63.08 435.196 68.8423C435.086 70.0022 434.977 71.1622 434.864 72.3573C434.765 73.6135 434.665 74.8698 434.562 76.1641C434.445 77.4991 434.325 78.834 434.205 80.1689C433.827 84.4438 433.487 88.7214 433.152 93C433.04 94.4157 432.928 95.8313 432.816 97.2469C432.025 107.286 431.302 117.33 430.59 127.375C430.226 132.502 429.86 137.628 429.486 142.754C429.342 144.75 429.203 146.746 429.064 148.742C428.585 155.34 428.013 161.927 427.281 168.502C427.144 169.768 427.007 171.033 426.866 172.337C425.825 177.679 423.607 182.229 420.734 186.852C420.328 187.509 419.921 188.167 419.502 188.845C419.057 189.556 418.611 190.267 418.152 191C417.657 191.801 417.161 192.603 416.65 193.429C410.113 203.958 403.304 214.312 396.527 224.688C389.968 234.73 383.419 244.771 377.152 255C376.717 255.696 376.281 256.393 375.833 257.11C370.241 265.602 370.241 265.602 369.527 275.375C370.031 276.929 370.572 278.473 371.152 280C372.979 286.958 373.769 293.822 374.152 301C374.206 301.889 374.261 302.779 374.316 303.695C375.398 338.204 360.161 371.915 337.152 397C334.093 400.108 330.968 403.148 327.84 406.188C320.895 412.963 315.519 419.255 311.152 428C310.629 428.996 310.106 429.993 309.566 431.02C294.856 460.701 291.923 495.418 290.152 528C285.532 527.67 280.912 527.34 276.152 527C273.779 532.239 272.014 537.464 270.445 542.992C270.199 543.846 269.953 544.701 269.7 545.581C268.907 548.344 268.122 551.109 267.34 553.875C267.071 554.824 266.803 555.772 266.526 556.75C264.714 563.161 262.926 569.578 261.152 576C260.801 577.265 260.45 578.529 260.089 579.832C256.617 592.55 254.427 605.259 252.753 618.326C251.227 630.209 249.349 642.019 247.312 653.824C247.183 654.577 247.053 655.33 246.919 656.106C245.595 663.771 244.257 671.433 242.906 679.093C240.311 693.815 237.83 708.533 235.844 723.352C235.684 724.54 235.525 725.728 235.36 726.953C230.165 767.128 229.688 821.351 255 855.492C256.348 857.028 257.743 858.521 259.152 860C259.152 860.66 259.152 861.32 259.152 862C259.705 862.233 260.258 862.467 260.828 862.707C263.768 864.343 265.919 866.352 268.34 868.688C269.66 869.931 269.66 869.931 271.008 871.199C273.553 874.523 273.893 876.874 274.152 881C266.162 883.996 258.148 884.201 249.715 884.25C248.38 884.281 248.38 884.281 247.018 884.312C239.321 884.357 233.279 883.096 226.836 878.777C223.743 875.576 222.045 872.572 220.215 868.562C219.879 867.865 219.543 867.168 219.198 866.45C217.847 863.641 216.529 860.818 215.226 857.987C210.038 846.746 205.275 841.423 194.387 835.59C191.618 833.62 190.523 832.116 189.152 829C188.834 826.331 188.675 823.973 188.715 821.312C188.727 820.242 188.727 820.242 188.74 819.151C188.976 811.743 191.184 806.291 194.977 799.949C198.55 793.664 200.74 788.615 200.629 781.336C200.622 780.546 200.615 779.756 200.608 778.942C200.231 764.431 197.945 749.939 196.097 735.558C195.567 731.418 195.047 727.276 194.527 723.135C194.375 721.924 194.375 721.924 194.22 720.688C193.919 718.283 193.618 715.878 193.316 713.473C193.218 712.689 193.12 711.905 193.019 711.098C190.872 693.958 188.754 676.984 188.777 659.688C188.778 658.986 188.778 658.285 188.779 657.562C188.845 638.881 192.288 621.597 197.688 603.762C197.925 602.973 198.162 602.185 198.407 601.373C198.907 599.782 199.44 598.201 200.003 596.631C204.285 584.163 201.899 570.357 200.902 557.438C200.838 556.579 200.773 555.72 200.707 554.836C199.606 540.284 198.145 525.789 196.423 511.299C196.338 510.58 196.254 509.862 196.167 509.122C195.939 507.198 195.706 505.274 195.472 503.351C195.172 500.208 195.093 497.154 195.152 494C194.57 493.731 193.987 493.461 193.387 493.184C181.459 486.865 173.665 473.584 169.539 461.152C167.712 450.981 169.181 440.766 172.152 431C171.534 430.901 170.917 430.803 170.28 430.701C162.045 429.302 154.015 427.265 145.965 425.062C145.254 424.868 144.543 424.674 143.811 424.475C112.9 415.987 82.4919 405.09 54.1523 390C52.9579 389.374 52.9579 389.374 51.7393 388.735C41.2043 383.196 31.441 377.454 22.1523 370C21.1623 369.34 20.1723 368.68 19.1523 368C19.1523 367.34 19.1523 366.68 19.1523 366C18.2602 365.592 18.2602 365.592 17.3501 365.177C13.8466 363.301 11.3223 360.539 8.52734 357.75C7.64949 356.909 7.64949 356.909 6.75391 356.051C2.7592 352.084 0.422024 348.713 0 342.902C1.26616 331.323 7.07318 320.703 12.4648 310.562C13.3258 308.926 13.3258 308.926 14.2041 307.256C18.3553 299.402 22.6786 291.675 27.1523 284C28.5368 281.568 29.9076 279.128 31.2773 276.688C31.6435 276.036 32.0097 275.385 32.387 274.715C34.7153 270.571 37.0321 266.422 39.3438 262.27C46.8869 248.733 54.5698 235.289 62.4277 221.933C64.158 218.99 65.882 216.044 67.6055 213.098C73.0252 203.855 78.5035 194.696 84.4453 185.777C86.0113 183.229 87.1472 180.809 88.1523 178C77.3871 165.097 77.3871 165.097 62.2148 159.359C60.7626 159.213 60.7626 159.213 59.281 159.063C58.2485 158.96 57.2161 158.856 56.1523 158.75C47.9201 157.82 40.0357 156.493 32.0898 154.125C31.2887 153.893 30.4875 153.66 29.6621 153.421C24.3799 151.751 20.5126 149.416 16.1523 146C16.2773 143.688 16.2773 143.688 17.1523 141C26.2957 134.328 40.6042 135.683 51.4263 135.739C53.912 135.75 56.3971 135.739 58.8828 135.727C60.4883 135.728 62.0938 135.73 63.6992 135.734C64.7948 135.728 64.7948 135.728 65.9125 135.722C72.1733 135.778 78.8181 136.316 83.8203 140.461C84.4036 140.933 84.9869 141.405 85.5879 141.891C86.4551 142.625 86.4551 142.625 87.3398 143.375C88.2245 144.098 88.2245 144.098 89.127 144.836C90.2745 145.775 91.4178 146.72 92.5562 147.671C94.7288 149.48 96.939 151.241 99.1523 153C101.551 147.304 103.617 141.586 105.465 135.688C110.615 119.782 120.969 102.224 136.152 94C142.105 92.6659 142.105 92.6659 145.051 93.6055C147.928 94.1456 149.499 93.298 152.152 92.125C164.078 86.9255 179.996 87.0723 192.16 91.543C206.906 98.7236 215.889 108.928 222.152 124C226.613 137.71 225.083 153.203 218.645 165.996C210.73 179.266 199.749 187.299 185.152 192C170.644 194.881 156.552 193.265 143.902 185.375C141.414 183.689 139.276 182.124 137.152 180C135.044 180.319 135.044 180.319 133.152 181C132.73 184.986 132.73 184.986 135.059 187.332C136.342 188.56 136.342 188.56 137.652 189.812C138.561 190.685 139.47 191.558 140.406 192.457C146.979 198.602 146.979 198.602 154.152 204C154.152 204.66 154.152 205.32 154.152 206C154.714 206.253 155.276 206.505 155.855 206.766C158.473 208.172 160.583 209.892 162.902 211.75C177.017 221.98 194.326 224.265 211.152 227C211.863 227.117 212.574 227.234 213.307 227.355C219.08 228.196 224.835 228.112 230.652 228.062C232.172 228.056 232.172 228.056 233.723 228.049C236.199 228.037 238.676 228.021 241.152 228C241.179 229.937 241.199 231.875 241.215 233.812C241.226 234.891 241.238 235.97 241.25 237.082C241.152 240 241.152 240 240.152 243C243.617 241.02 243.617 241.02 247.152 239C247.239 239.75 247.325 240.5 247.414 241.273C248.505 249.222 250.297 257.145 256.152 263C256.049 261.845 255.946 260.69 255.84 259.5C255.816 255.005 257.385 252.571 259.906 248.965C261.73 246.089 262.395 243.303 263.152 240C263.812 240 264.472 240 265.152 240C266.142 241.98 267.132 243.96 268.152 246C268.247 245.165 268.247 245.165 268.344 244.312C269.448 237.433 272.331 233.862 277.152 229C284.288 221.798 286.202 214.822 286.902 204.75C286.847 199.808 286.847 199.808 284.242 195.809C280.012 192.954 276 191.035 270.84 190.938C265.56 189.595 263.856 186.534 261.152 182C258.991 177.972 258.723 174.553 259.152 170C262.152 168 262.152 168 265.34 168.375C266.268 168.581 267.196 168.787 268.152 169C268.227 168.227 268.302 167.453 268.379 166.656C269.348 158.982 271.201 154.792 276.152 149C277.259 147.454 278.343 145.891 279.402 144.312C279.882 143.607 280.361 142.902 280.855 142.176C283.471 137.788 284.868 133.656 284.816 128.551C283.387 123.059 278.871 119.112 275.152 115C274.822 114.34 274.492 113.68 274.152 113C280.152 115 280.152 115 282.719 115.984C288.101 117.576 293.622 118.057 299.189 118.68C305.432 119.474 310.553 121.125 316.152 124C314.316 119.851 311.701 117.81 308.152 115C307.492 114.34 306.832 113.68 306.152 113C315.019 113.031 322.037 114.479 329.152 120C331.586 122.795 333.387 125.751 335.152 129C338.994 135.938 343.37 141.406 351.152 144C356.37 153.521 353.197 166.806 350.424 176.686C349.696 179.135 348.934 181.568 348.152 184C347.874 184.868 347.596 185.736 347.309 186.63C346.452 189.243 345.562 191.842 344.652 194.438C344.38 195.236 344.108 196.035 343.828 196.859C342.111 201.53 340.585 204.361 336.152 207C333.258 208.047 333.258 208.047 330.34 208.75C329.364 208.992 328.388 209.235 327.383 209.484C326.647 209.655 325.911 209.825 325.152 210C325.696 214.565 326.947 217.973 329.152 222C333.468 220.59 336.071 218.491 339.34 215.375C343.943 211 343.943 211 346.152 211C346.152 210.34 346.152 209.68 346.152 209C347.52 207.651 347.52 207.651 349.473 206.047C354.941 201.396 359.964 196.334 365.027 191.25C365.986 190.295 366.944 189.341 367.902 188.387C368.807 187.481 369.712 186.574 370.645 185.641C371.463 184.821 372.281 184.002 373.125 183.157C375.29 180.973 375.29 180.973 377.152 178C377.812 178 378.472 178 379.152 178C379.526 177.14 379.526 177.14 379.906 176.262C381.767 172.885 384.477 170.43 387.18 167.707C392.326 160.644 393.327 151.042 395.034 142.633C395.492 140.377 395.958 138.123 396.426 135.869C397.755 129.465 399.072 123.059 400.38 116.651C408.165 78.5862 417.306 49.5666 442.106 19.073C445.305 15.1252 448.235 11.0937 450.973 6.80859C452.54 4.40579 454.31 2.1964 456.152 0Z" fill="#F04F2F"/>
<path d="M587.188 185.434C588.81 185.832 588.81 185.832 590.465 186.239C603.91 189.604 617.201 193.513 630.49 197.442C632.626 198.073 634.763 198.702 636.899 199.33C654.2 204.415 671.487 209.546 688.715 214.875C689.537 215.129 690.359 215.383 691.205 215.645C700.399 218.497 709.553 221.449 718.68 224.508C737.032 230.65 754.914 236.325 774.152 239C775.212 239.149 775.212 239.149 776.293 239.301C791.407 241.419 806.546 243.374 821.734 244.875C823.029 245.004 824.323 245.134 825.657 245.267C828.046 245.499 830.436 245.719 832.828 245.924C834.402 246.074 834.402 246.074 836.008 246.227C837.364 246.344 837.364 246.344 838.747 246.463C841.514 247.081 843.027 248.162 845.152 250C845.226 253.681 845.167 255.883 842.645 258.66C835.702 263.821 827.429 265.211 819.152 267C797.287 271.627 797.287 271.627 779.152 284C771.95 286.401 764.306 285.523 757.438 282.465C753.319 279.825 750.828 276.021 748.152 272C743.833 265.582 738.393 263.198 731.152 261C725.808 260.228 720.509 259.796 715.113 259.57C713.563 259.499 712.013 259.427 710.463 259.354C709.658 259.317 708.854 259.28 708.025 259.242C670.666 257.488 631.857 255.179 597.152 240C597.771 247.571 598.943 254.968 600.305 262.438C600.752 264.936 601.199 267.435 601.645 269.933C601.883 271.26 602.121 272.586 602.359 273.913C606.698 298.136 610.724 322.396 614.392 346.73C614.712 348.855 615.033 350.979 615.355 353.103C621.633 394.629 621.633 394.629 621.152 407C621.747 407.02 622.341 407.04 622.953 407.06C625.687 407.156 628.419 407.266 631.152 407.375C632.087 407.406 633.022 407.437 633.984 407.469C659.875 408.555 681.293 427.955 699.57 444.664C700.989 445.947 702.413 447.225 703.863 448.472C708.936 452.839 713.725 457.426 718.449 462.164C719.583 463.297 719.583 463.297 720.74 464.452C722.325 466.036 723.908 467.621 725.49 469.207C727.906 471.629 730.328 474.045 732.75 476.461C734.296 478.008 735.842 479.554 737.387 481.102C738.107 481.819 738.827 482.537 739.568 483.277C742.988 486.712 746.19 490.152 749.152 494C750.328 495.119 751.536 496.204 752.777 497.25C756.816 500.703 760.764 504.244 764.703 507.809C766.888 509.763 769.106 511.666 771.34 513.563C780.643 521.757 785.675 529.519 787.152 542C787.289 545.057 787.292 548.109 787.286 551.168C787.288 552.071 787.291 552.973 787.293 553.902C787.299 556.915 787.299 559.928 787.298 562.941C787.301 565.107 787.304 567.273 787.308 569.439C787.317 575.322 787.319 581.206 787.32 587.09C787.32 590.78 787.323 594.469 787.325 598.159C787.335 611.74 787.338 625.321 787.338 638.902C787.337 650.198 787.349 661.494 787.363 672.789C787.377 683.107 787.382 693.424 787.381 703.742C787.381 709.882 787.384 716.022 787.394 722.162C787.497 784.953 787.497 784.953 783.277 815.5C783.108 816.772 782.939 818.044 782.765 819.354C779.796 840.713 779.796 840.713 776.152 848C772.436 848.201 771.38 848.152 768.152 846C767.679 846.701 767.206 847.403 766.719 848.125C757.895 860.785 747.515 869.492 732.152 873C728.877 873.293 725.628 873.334 722.34 873.313C721.005 873.304 721.005 873.304 719.643 873.295C713.369 873.179 707.907 872.664 702.152 870C701.278 869.621 700.404 869.242 699.504 868.852C686.403 862.503 678.307 852.299 673.152 839C668.781 825.427 670.102 810.955 676.508 798.328C683.953 785.154 693.865 777.104 708.434 772.711C721.395 769.322 734.721 770.743 746.527 777.188C748.08 778.107 749.626 779.038 751.152 780C751.317 778.824 751.482 777.649 751.652 776.438C752.663 771.741 754.739 767.889 757.09 763.75C768.135 743.98 764.298 722.844 758.486 701.994C755.781 692.569 752.914 683.197 749.988 673.839C739.836 641.325 731.203 605.931 739.059 571.965C739.208 571.301 739.358 570.637 739.513 569.953C739.94 568.109 740.399 566.273 740.859 564.438C741.242 559.946 740.545 557.825 738.152 554C735.57 552.059 732.769 550.778 729.84 549.438C711.556 540.438 694.841 528.63 678.152 517C677.427 516.498 676.702 515.995 675.955 515.478C660.551 504.801 644.878 493.801 631.07 481.082C629.072 479.195 629.072 479.195 626.152 477C622.603 477.276 620.415 479.132 617.652 481.25C603.602 491.327 587.217 494.075 570.34 491.395C565.42 490.293 560.804 488.952 556.152 487C546.877 495.465 542.86 503.258 541.945 515.85C541.849 518.84 541.823 521.82 541.84 524.813C541.845 525.867 541.85 526.921 541.855 528.008C542.011 538.427 542.861 547.828 549.164 556.512C550.152 558 550.152 558 550.152 560C550.736 560.268 551.32 560.536 551.922 560.813C562.636 566.517 570.761 578.069 577.426 587.848C579.046 590.266 579.046 590.266 582.152 591C584.028 590.994 585.903 590.948 587.777 590.875C592.692 590.828 596.431 591.452 600.992 593.199C605.753 594.964 612.109 597.009 617.152 596C617.73 595.278 618.307 594.556 618.902 593.813C622.446 589.383 626.995 586.481 632.668 585.617C634.921 585.566 636.942 585.556 639.152 586C641.152 588 641.152 588 641.34 591C641.152 594 641.152 594 640.152 596C640.887 596.075 641.622 596.15 642.379 596.227C649.363 598.174 654.043 606.607 657.652 612.5C662.475 620.371 668.331 628.534 677.152 632C683.111 632.822 688.441 631.662 694.152 630C692.63 632.629 691.309 634.844 689.152 637C689.482 637.66 689.812 638.32 690.152 639C689.424 639.433 688.696 639.866 687.945 640.313C686.225 641.352 684.517 642.41 682.828 643.5C677.835 646.669 673.21 648.881 667.477 650.359C660.649 652.241 656.577 655.503 652.152 661C650.783 663.675 649.983 666.092 649.152 669C643.636 668.499 643.636 668.499 641.09 665.875C640.451 665.256 639.811 664.638 639.152 664C636.518 664.075 634.454 664.885 632.008 665.82C625.69 668.147 625.69 668.147 622.402 667.25C621.66 666.838 620.917 666.425 620.152 666C617.039 665.066 615.704 664.779 612.652 666C609.565 667.235 608.247 667.19 605.152 666C599.306 660.67 597.806 651.584 597.152 644C597.082 639.998 597.093 636.002 597.152 632C595.296 631.969 595.296 631.969 593.402 631.938C592.706 631.926 592.01 631.914 591.293 631.902C589.12 632.002 587.239 632.403 585.152 633C584.321 638.229 584.321 638.229 583.5 643.46C582.758 648.218 581.99 652.97 581.168 657.715C573.898 700.692 573.467 744.912 572.097 788.381C571.419 809.669 570.379 830.922 569.118 852.182C569.054 853.265 568.99 854.348 568.924 855.463C568.804 857.469 568.683 859.475 568.559 861.48C568.408 863.986 568.279 866.493 568.152 869C568.028 870.97 568.028 870.97 567.901 872.98C567.854 875.982 567.854 875.982 569.584 877.672C574.666 880.408 579.671 882.402 585.215 884C586.884 884.507 588.554 885.015 590.223 885.523C591.048 885.771 591.873 886.018 592.724 886.273C596.356 887.36 599.978 888.474 603.59 889.625C605.351 890.17 605.351 890.17 607.149 890.727C610.28 892.054 611.955 893.441 614.152 896C613.402 897.938 613.402 897.938 612.152 900C599.834 904.157 583.481 902.133 570.715 901.75C569.02 901.711 569.02 901.711 567.291 901.67C559.969 901.393 553.638 900.77 547.715 896.063C546.111 893.945 545.701 892.55 545.152 890C544.142 889.933 544.142 889.933 543.111 889.864C505.683 887.303 505.683 887.303 499.152 882C495.521 875.992 495.655 870.136 495.715 863.25C495.72 862.036 495.724 860.823 495.729 859.573C495.994 836.354 498.117 812.888 500.723 789.823C502.169 776.979 502.466 764.295 502.402 751.375C502.4 750.28 502.398 749.185 502.395 748.057C502.347 729.403 501.904 710.767 501.277 692.125C501.219 690.321 501.219 690.321 501.159 688.48C500.76 676.51 500.238 664.556 499.27 652.617C499.204 651.714 499.138 650.811 499.07 649.88C498.389 642.278 495.579 638.343 490.59 632.625C463.826 601.005 453.453 561.079 456.355 520.149C460.347 478.857 479.51 445.771 510.695 418.801C511.568 418.083 512.441 417.365 513.34 416.625C514.24 415.883 515.139 415.14 516.067 414.375C518.386 412.59 520.658 411.009 523.113 409.438C523.792 408.971 524.472 408.505 525.171 408.025C527.215 406.625 527.215 406.625 529.202 405.479C532.7 403.007 533.96 400.839 534.922 396.649C535.456 392.56 535.695 388.451 535.939 384.336C536.183 380.524 536.496 376.719 536.821 372.913C537.495 364.969 538.131 357.022 538.757 349.074C539.018 345.763 539.281 342.453 539.548 339.143C540.989 321.26 542.321 303.377 543.336 285.465C543.379 284.732 543.421 283.998 543.465 283.243C544.14 271.487 544.258 259.783 544.168 248.008C543.908 202.635 543.908 202.635 558.012 187.852C566.607 180.417 577.075 182.902 587.188 185.434Z" fill="#ED9F48"/>
<path d="M200.316 96.0928C212.396 104.261 220.507 115.6 223.793 129.96C226.35 144.464 223.526 159.339 215.125 171.469C206.024 183.146 193.978 190.941 179.152 193C164.019 194.069 151.439 191.238 139.152 182C138.492 181.34 137.832 180.68 137.152 180C135.044 180.319 135.044 180.319 133.152 181C132.73 184.986 132.73 184.986 135.059 187.332C135.915 188.151 136.77 188.969 137.652 189.813C138.561 190.685 139.47 191.558 140.406 192.457C146.979 198.602 146.979 198.602 154.152 204C154.152 204.66 154.152 205.32 154.152 206C154.714 206.253 155.276 206.505 155.855 206.766C158.473 208.172 160.583 209.892 162.902 211.75C175.066 220.631 189.624 223.315 204.152 226C204.152 226.66 204.152 227.32 204.152 228C171.292 243.916 171.292 243.916 157.152 247C175.995 259.826 196.293 269.019 217.207 277.898C242.292 288.585 242.292 288.585 251.09 296.563C251.601 297.005 252.112 297.448 252.639 297.904C263.9 307.767 263.9 307.767 264.461 314.957C264.936 327.987 263.186 338.09 254.777 348.625C250.208 353.305 245.898 355.806 239.344 356.27C235.113 356.184 231.893 354.934 228.027 353.188C214.893 347.264 202.096 346.558 187.921 346.719C185.157 346.75 182.393 346.76 179.629 346.766C169.762 346.809 159.984 347.112 150.152 348C150.009 348.729 149.865 349.457 149.717 350.208C148.241 357.685 148.241 357.685 147.634 359.846C145.15 370.959 145.596 385.999 151.152 396C151.668 397.031 152.184 398.063 152.715 399.125C155.878 402.856 159.573 405.661 163.383 408.711C173.225 416.846 173.225 416.846 174.152 423.688C174.281 426.916 174.059 429.877 173.152 433C172.822 432.34 172.492 431.68 172.152 431C170.086 430.446 170.086 430.446 167.539 430.121C160.222 428.905 153.112 427.018 145.965 425.063C145.254 424.869 144.543 424.675 143.811 424.475C112.9 415.987 82.4919 405.09 54.1523 390C52.9579 389.374 52.9579 389.374 51.7393 388.735C41.2043 383.196 31.441 377.454 22.1523 370C21.1623 369.34 20.1723 368.68 19.1523 368C19.1523 367.34 19.1523 366.68 19.1523 366C18.2602 365.593 18.2602 365.593 17.3501 365.177C13.8466 363.301 11.3223 360.539 8.52734 357.75C7.64949 356.909 7.64949 356.909 6.75391 356.051C2.7592 352.084 0.422024 348.713 0 342.902C1.26616 331.323 7.07318 320.703 12.4648 310.563C13.0388 309.471 13.6128 308.38 14.2041 307.256C18.3553 299.402 22.6786 291.675 27.1523 284C28.5368 281.568 29.9076 279.128 31.2773 276.688C31.6435 276.037 32.0097 275.385 32.387 274.715C34.7153 270.572 37.0321 266.422 39.3438 262.27C46.8869 248.733 54.5698 235.289 62.4277 221.933C64.158 218.991 65.882 216.044 67.6055 213.098C73.0252 203.855 78.5035 194.696 84.4453 185.777C86.0113 183.23 87.1472 180.809 88.1523 178C77.3871 165.097 77.3871 165.097 62.2148 159.359C60.7626 159.213 60.7626 159.213 59.281 159.063C58.2485 158.96 57.2161 158.856 56.1523 158.75C47.9201 157.82 40.0357 156.493 32.0898 154.125C31.2887 153.893 30.4875 153.66 29.6621 153.421C24.3799 151.751 20.5126 149.416 16.1523 146C16.2773 143.688 16.2773 143.688 17.1523 141C26.2957 134.328 40.6042 135.683 51.4263 135.739C53.912 135.75 56.3971 135.739 58.8828 135.727C60.4883 135.728 62.0938 135.731 63.6992 135.734C64.7948 135.728 64.7948 135.728 65.9125 135.722C72.1733 135.778 78.8181 136.316 83.8203 140.461C84.6953 141.169 84.6953 141.169 85.5879 141.891C86.166 142.381 86.7442 142.87 87.3398 143.375C87.9296 143.857 88.5193 144.339 89.127 144.836C90.2745 145.776 91.4178 146.72 92.5562 147.671C94.7288 149.48 96.939 151.241 99.1523 153C101.551 147.304 103.617 141.586 105.465 135.688C110.615 119.782 120.969 102.224 136.152 94.0001C142.105 92.6659 142.105 92.6659 145.051 93.6055C147.928 94.1456 149.499 93.2981 152.152 92.1251C167.167 85.5791 186.616 87.3658 200.316 96.0928Z" fill="#FEB77E"/>
<path d="M587.187 185.434C588.809 185.832 588.809 185.832 590.464 186.239C603.909 189.604 617.201 193.513 630.489 197.442C632.625 198.073 634.762 198.702 636.899 199.33C654.2 204.415 671.487 209.546 688.714 214.875C689.536 215.129 690.358 215.383 691.205 215.645C700.398 218.497 709.553 221.449 718.679 224.508C737.031 230.65 754.913 236.325 774.152 239C774.858 239.099 775.565 239.199 776.293 239.301C791.406 241.419 806.545 243.374 821.734 244.875C823.028 245.004 824.323 245.134 825.656 245.267C828.045 245.499 830.436 245.719 832.827 245.924C834.401 246.074 834.401 246.074 836.007 246.227C837.363 246.344 837.363 246.344 838.746 246.463C841.513 247.081 843.026 248.162 845.152 250C845.225 253.681 845.166 255.883 842.644 258.66C835.701 263.821 827.429 265.211 819.152 267C797.287 271.627 797.287 271.627 779.152 284C771.95 286.401 764.305 285.523 757.437 282.465C753.318 279.825 750.828 276.021 748.152 272C743.832 265.582 738.393 263.198 731.152 261C725.808 260.228 720.508 259.796 715.113 259.57C713.562 259.499 712.012 259.427 710.462 259.354C709.657 259.317 708.853 259.28 708.024 259.242C670.665 257.488 631.857 255.179 597.152 240C597.771 247.571 598.942 254.968 600.304 262.438C600.751 264.936 601.198 267.435 601.644 269.933C601.882 271.26 602.12 272.586 602.358 273.913C606.697 298.136 610.723 322.396 614.391 346.73C614.711 348.855 615.033 350.979 615.354 353.103C621.619 394.536 621.619 394.536 621.152 408C602.801 417.309 583.037 420.41 563.117 414.406C555.893 411.975 548.786 408.755 542.152 405C540.568 404.194 540.568 404.194 538.953 403.371C536.152 401 536.152 401 535.465 397.535C535.474 396.044 535.522 394.552 535.597 393.063C535.619 392.208 535.641 391.354 535.664 390.474C536.17 375.795 537.582 361.127 538.817 346.494C540.53 326.165 542.196 305.84 543.343 285.469C543.386 284.735 543.428 284.002 543.471 283.246C544.142 271.489 544.258 259.784 544.167 248.008C543.907 202.635 543.907 202.635 558.011 187.852C566.607 180.417 577.074 182.902 587.187 185.434Z" fill="#DB8749"/>
<path d="M195.153 495C197.499 495.908 199.803 496.816 202.031 497.988C207.599 500.808 212.326 501.467 218.551 501.531C227.902 502.748 236.065 507.337 244.153 511.938C254.531 517.798 264.271 523.15 276.153 525C275.967 525.543 275.782 526.086 275.591 526.646C273.742 532.125 272.043 537.63 270.445 543.188C270.199 544.039 269.953 544.89 269.7 545.768C266.8 555.831 263.957 565.91 261.153 576C260.802 577.262 260.451 578.523 260.089 579.823C256.618 592.544 254.427 605.256 252.754 618.326C251.227 630.209 249.349 642.019 247.313 653.824C247.183 654.577 247.053 655.33 246.919 656.106C245.596 663.771 244.257 671.433 242.906 679.093C240.312 693.815 237.83 708.533 235.844 723.352C235.684 724.54 235.525 725.728 235.36 726.953C230.165 767.128 229.688 821.351 255 855.492C256.348 857.028 257.744 858.521 259.153 860C259.153 860.66 259.153 861.32 259.153 862C259.706 862.233 260.259 862.467 260.828 862.707C263.769 864.343 265.919 866.352 268.34 868.688C269.661 869.931 269.661 869.931 271.008 871.199C273.553 874.523 273.893 876.874 274.153 881C266.162 883.996 258.148 884.201 249.715 884.25C248.38 884.281 248.38 884.281 247.018 884.312C239.321 884.357 233.279 883.096 226.836 878.777C223.743 875.576 222.045 872.572 220.215 868.562C219.879 867.865 219.544 867.168 219.198 866.45C217.847 863.641 216.529 860.818 215.226 857.987C210.038 846.746 205.275 841.423 194.387 835.59C191.618 833.62 190.523 832.116 189.153 829C188.834 826.331 188.675 823.973 188.715 821.312C188.723 820.599 188.732 819.886 188.74 819.151C188.976 811.743 191.185 806.291 194.977 799.949C198.55 793.664 200.74 788.615 200.629 781.336C200.622 780.546 200.616 779.756 200.609 778.942C200.231 764.431 197.945 749.939 196.097 735.558C195.567 731.418 195.047 727.276 194.528 723.135C194.426 722.327 194.325 721.52 194.221 720.688C193.919 718.283 193.618 715.878 193.317 713.473C193.218 712.689 193.12 711.905 193.019 711.098C190.872 693.958 188.754 676.984 188.778 659.688C188.778 658.986 188.779 658.285 188.779 657.562C188.845 638.881 192.288 621.597 197.688 603.762C197.925 602.973 198.162 602.185 198.407 601.373C198.907 599.782 199.44 598.201 200.004 596.631C204.285 584.164 201.9 570.357 200.903 557.438C200.806 556.15 200.806 556.15 200.707 554.837C199.604 540.256 198.14 525.731 196.423 511.211C196.338 510.491 196.254 509.771 196.167 509.029C195.939 507.098 195.706 505.168 195.472 503.238C195.198 500.46 195.088 497.787 195.153 495Z" fill="#FEB87F"/>
<path d="M105.152 199C108.09 199.329 109.075 199.917 111.125 202.117C111.815 203.027 112.504 203.937 113.215 204.875C117.468 210.297 122.085 215.026 127.062 219.785C129.152 222 129.152 222 129.152 224C129.812 224 130.472 224 131.152 224C133.54 226.243 135.776 228.601 138.023 230.984C148.401 241.723 160.21 249.713 173.152 257C173.776 257.36 174.4 257.719 175.042 258.09C188.521 265.816 202.829 271.781 217.105 277.848C242.3 288.592 242.3 288.592 251.09 296.562C251.601 297.005 252.112 297.448 252.639 297.904C263.9 307.767 263.9 307.767 264.461 314.957C264.936 327.987 263.186 338.09 254.777 348.625C250.208 353.305 245.898 355.806 239.344 356.27C235.113 356.184 231.893 354.933 228.027 353.188C214.893 347.264 202.096 346.558 187.921 346.719C185.157 346.75 182.393 346.76 179.629 346.766C169.762 346.809 159.984 347.112 150.152 348C149.162 350.97 148.172 353.94 147.152 357C140.554 356.44 134.272 355.562 127.84 354C126.512 353.678 126.512 353.678 125.157 353.35C107.346 348.9 89.8655 343.219 72.7148 336.688C71.099 336.075 71.099 336.075 69.4504 335.45C64.245 333.418 59.6314 331.357 55.1523 328C55.7248 324.423 56.6462 321.746 58.4531 318.613C58.9297 317.771 59.4062 316.929 59.8972 316.061C60.6732 314.7 60.6732 314.7 61.4648 313.312C71.998 294.393 80.6679 274.669 88.252 254.4C89.0214 252.349 89.8087 250.306 90.6055 248.266C93.6514 240.207 95.7941 231.979 97.9094 223.64C100.027 215.324 102.478 207.153 105.152 199Z" fill="#FEFEFE"/>
<path d="M503.152 728C504.719 728.313 504.719 728.313 506.318 728.632C513.761 730.091 521.053 731.434 528.652 731.688C529.76 731.739 529.76 731.739 530.89 731.791C532.644 731.871 534.398 731.937 536.152 732C536.647 735.96 536.647 735.96 537.152 740C549.369 740.216 561.096 740.179 573.152 738C573.297 753.097 572.857 768.163 572.339 783.25C572.297 784.517 572.254 785.785 572.211 787.09C571.474 808.804 570.405 830.489 569.118 852.177C569.021 853.802 569.021 853.802 568.923 855.46C568.804 857.467 568.682 859.474 568.558 861.48C568.407 863.986 568.278 866.493 568.152 869C568.028 870.97 568.028 870.97 567.901 872.979C567.854 875.982 567.854 875.982 569.583 877.672C574.665 880.408 579.67 882.402 585.214 884C586.884 884.507 588.553 885.015 590.222 885.523C591.048 885.771 591.873 886.018 592.723 886.272C596.355 887.36 599.977 888.474 603.589 889.625C604.764 889.989 605.938 890.352 607.148 890.727C610.279 892.054 611.954 893.441 614.152 896C613.402 897.938 613.402 897.938 612.152 900C599.833 904.157 583.481 902.133 570.714 901.75C569.584 901.724 568.455 901.697 567.29 901.67C559.969 901.393 553.637 900.77 547.714 896.062C546.11 893.945 545.7 892.55 545.152 890C544.478 889.955 543.805 889.91 543.111 889.864C505.682 887.303 505.682 887.303 499.152 882C495.52 875.992 495.654 870.136 495.714 863.25C495.719 862.036 495.724 860.823 495.729 859.573C495.993 836.361 498.147 812.924 500.709 789.863C502.173 776.656 502.58 763.532 502.777 750.25C502.815 748.077 502.854 745.904 502.894 743.73C502.989 738.487 503.073 733.244 503.152 728Z" fill="#FEA53A"/>
<path d="M200.315 96.0928C212.395 104.261 220.506 115.6 223.792 129.96C226.349 144.464 223.526 159.339 215.124 171.469C206.024 183.146 193.978 190.941 179.152 193C162.794 194.155 149.683 190.496 136.828 180.125C135.152 178 135.152 178 135.078 175.469C135.205 174.489 135.333 173.509 135.464 172.5C135.749 165.66 133.658 161.074 130.652 155C124.948 143.254 124.604 134.584 128.898 122.121C132.748 112.538 138.362 103.781 145.152 96C145.812 96 146.472 96 147.152 96C147.152 95.34 147.152 94.68 147.152 94C148.734 93.3509 150.317 92.7058 151.902 92.0625C152.783 91.7028 153.665 91.3432 154.574 90.9726C168.932 85.5556 187.609 87.9986 200.315 96.0928Z" fill="#F04E2F"/>
<path d="M751.153 780C751.483 778.02 751.813 776.04 752.153 774C752.483 774 752.813 774 753.153 774C753.121 774.571 753.089 775.142 753.055 775.73C753.155 782.668 755.774 786.9 759.774 792.31C767.062 802.189 767.236 812.57 767.653 824.437C767.723 826.415 767.796 828.393 767.872 830.371C767.907 831.322 767.942 832.273 767.978 833.254C768.142 835.832 768.507 838.297 768.926 840.844C769.327 844.22 769.166 844.972 767.598 848.223C757.758 860.266 747.756 869.437 732.153 873C728.877 873.293 725.628 873.334 722.34 873.312C721.45 873.307 720.56 873.301 719.643 873.295C713.369 873.179 707.908 872.664 702.153 870C700.842 869.431 700.842 869.431 699.505 868.851C686.403 862.503 678.307 852.299 673.153 839C668.781 825.427 670.103 810.955 676.508 798.328C683.954 785.154 693.866 777.104 708.434 772.711C723.591 768.747 738.006 771.709 751.153 780Z" fill="#FEB648"/>
<path d="M528.153 520C528.153 523.645 527.277 524.546 525.215 527.5C516.119 541.513 510.089 556.811 506.153 573C505.837 574.251 505.837 574.251 505.515 575.526C501.99 590.159 501.786 604.716 501.778 619.688C501.776 620.654 501.774 621.62 501.771 622.616C501.772 625.394 501.79 628.171 501.817 630.949C501.819 631.788 501.821 632.626 501.824 633.491C501.918 639.342 502.453 643.226 506.649 647.605C507.619 648.458 508.59 649.31 509.59 650.188C511.042 651.477 511.042 651.477 512.524 652.793C515.137 655.069 515.137 655.069 518.153 657C522.045 656.621 525.331 655.152 528.903 653.625C543.674 647.937 565.838 643.895 581.153 649C581.274 654.91 580.885 660.366 579.84 666.188C578.152 676.45 577.327 686.763 576.528 697.125C576.465 697.922 576.403 698.72 576.339 699.541C575.6 709.091 574.959 718.64 574.526 728.209C574.359 731.58 574.169 734.767 573.153 738C565.528 739.972 558.473 741.166 550.59 741.125C549.848 741.129 549.106 741.133 548.342 741.137C544.488 741.13 540.898 740.935 537.153 740C536.823 737.36 536.493 734.72 536.153 732C535.111 732.046 534.069 732.093 532.996 732.141C522.411 732.459 513.275 731.052 503.153 728C502.355 724.448 501.991 721.094 501.887 717.457C501.854 716.367 501.82 715.278 501.786 714.155C501.753 712.981 501.721 711.807 501.688 710.598C501.609 708.071 501.53 705.544 501.451 703.018C501.333 699.067 501.217 695.116 501.103 691.165C500.726 678.24 500.333 665.324 499.274 652.434C499.208 651.542 499.142 650.65 499.073 649.732C498.355 641.883 495.469 638.31 489.965 632.75C485.326 627.505 484.052 622.884 484.378 615.909C484.57 613.593 484.844 611.303 485.153 609C485.259 608.173 485.366 607.345 485.476 606.493C490.032 573.797 506.461 544.473 528.153 520Z" fill="#D98143"/>
<path d="M274.153 113C280.153 115 280.153 115 282.72 115.984C288.102 117.576 293.623 118.057 299.19 118.68C305.433 119.474 310.554 121.125 316.153 124C314.317 119.851 311.702 117.81 308.153 115C307.493 114.34 306.833 113.68 306.153 113C315.02 113.031 322.038 114.479 329.153 120C331.587 122.795 333.388 125.751 335.153 129C338.995 135.938 343.371 141.406 351.153 144C356.371 153.521 353.198 166.806 350.424 176.686C349.697 179.135 348.935 181.568 348.153 184C347.736 185.302 347.736 185.302 347.31 186.63C346.453 189.243 345.563 191.842 344.653 194.438C344.381 195.236 344.109 196.035 343.829 196.859C342.111 201.53 340.586 204.361 336.153 207C333.259 208.047 333.259 208.047 330.341 208.75C328.877 209.114 328.877 209.114 327.384 209.484C326.648 209.655 325.911 209.825 325.153 210C325.697 214.565 326.948 217.973 329.153 222C330.803 221.67 332.453 221.34 334.153 221C332.873 222.707 331.535 224.374 330.153 226C329.493 226 328.833 226 328.153 226C327.759 226.893 327.759 226.893 327.356 227.805C326.096 230.105 324.882 231.422 322.903 233.125C322.341 233.623 321.779 234.12 321.2 234.633C313.995 239.445 304.606 238.911 296.372 237.535C289.996 235.83 284.636 232.605 279.153 229C280.223 226.806 281.296 224.785 282.653 222.75C286.635 215.449 287.803 206.123 286.153 198C282.842 194.18 278.863 192.57 274.153 191C273.06 190.979 271.967 190.959 270.841 190.938C265.561 189.595 263.857 186.534 261.153 182C258.992 177.972 258.724 174.553 259.153 170C262.153 168 262.153 168 265.341 168.375C266.269 168.581 267.197 168.787 268.153 169C268.228 168.227 268.303 167.453 268.38 166.656C269.348 158.982 271.202 154.792 276.153 149C277.26 147.454 278.344 145.891 279.403 144.312C279.883 143.607 280.362 142.902 280.856 142.176C283.471 137.788 284.869 133.656 284.817 128.551C283.388 123.059 278.871 119.112 275.153 115C274.823 114.34 274.493 113.68 274.153 113Z" fill="#FDB783"/>
<path d="M671.227 538.18C673.337 539.907 674.928 541.551 676.152 544C676.193 546.333 676.196 548.667 676.152 551C677.225 551.289 678.297 551.578 679.402 551.875C682.272 552.736 684.54 553.624 687.152 555C687.858 554.368 687.858 554.368 688.578 553.723C689.201 553.175 689.823 552.627 690.465 552.063C691.08 551.517 691.695 550.972 692.328 550.41C696.05 547.533 699.615 547.568 704.152 548C711.822 550.706 717.314 554.722 721.18 561.91C723.296 566.815 724.006 571.71 723.152 577C720.564 582.716 716.755 584.807 711.152 587C709.157 587.68 707.157 588.349 705.152 589C705.184 590.034 705.184 590.034 705.216 591.089C706.063 623.187 706.063 623.187 695.152 635C694.642 635.571 694.131 636.142 693.605 636.731C693.126 637.149 692.646 637.568 692.152 638C689.965 637.688 689.965 637.688 688.152 637C689.802 635.02 691.452 633.04 693.152 631C691.698 631.495 691.698 631.495 690.215 632C685.121 633.407 680.052 634.205 675.047 632.125C672.936 630.884 671.06 629.533 669.152 628C668.59 627.55 668.028 627.1 667.449 626.637C662.646 622.294 659.36 616.954 655.855 611.57C649.802 601.632 649.802 601.632 640.152 596C640.185 593.949 640.217 591.898 640.25 589.848C640.358 587.983 640.358 587.983 639.152 587C631.293 586.127 626.354 588.119 620.152 593C618.4 595.091 618.4 595.091 617.152 597C598.305 595.152 598.305 595.152 594.152 591C604.482 569.872 604.482 569.872 613.152 562C613.739 561.457 614.325 560.915 614.93 560.356C618.069 557.752 621.368 555.859 625.035 554.106C626.094 553.598 626.094 553.598 627.174 553.081C628.583 552.418 630.002 551.775 631.43 551.154C636.025 549.031 638.31 546.845 641.037 542.598C642.558 540.418 644.245 539.337 646.59 538.125C647.31 537.736 648.031 537.346 648.773 536.945C655.807 534.15 664.561 534.389 671.227 538.18Z" fill="#392922"/>
<path d="M145.152 94.0001C146.142 94.9901 146.142 94.9901 147.152 96.0001C146.584 96.5351 146.015 97.07 145.43 97.6212C136.734 106.705 128.916 119.386 127.152 132C126.94 133.327 126.94 133.327 126.723 134.68C126.059 142.585 128.249 148.003 131.652 154.938C135.526 162.837 138.536 170.058 136.152 179C134.102 180.871 134.102 180.871 132.152 182C135.939 190.829 146.265 198.742 154.152 204C154.152 204.66 154.152 205.32 154.152 206C154.714 206.253 155.276 206.505 155.855 206.766C158.473 208.173 160.583 209.892 162.902 211.75C175.066 220.631 189.624 223.315 204.152 226C204.152 226.66 204.152 227.32 204.152 228C177.914 240.709 177.914 240.709 169.152 244C168.226 244.349 167.299 244.699 166.344 245.059C156.841 247.862 156.841 247.862 153.316 246.063C151.452 244.641 149.776 243.128 148.09 241.5C147.484 240.949 146.879 240.397 146.255 239.829C142.559 236.436 138.926 232.956 135.484 229.305C133.982 227.752 133.982 227.752 131.152 226C131.152 225.34 131.152 224.68 131.152 224C130.492 224 129.832 224 129.152 224C127.672 222.496 127.672 222.496 125.965 220.438C123.665 217.725 121.342 215.15 118.777 212.688C115.125 209.092 111.968 205.167 108.754 201.18C105.711 197.431 102.561 193.776 99.4023 190.125C98.8595 189.495 98.3166 188.864 97.7573 188.215C94.6794 184.667 91.4862 181.312 88.1523 178C86.7062 176.362 85.2686 174.716 83.8398 173.063C77.9063 166.427 71.4034 160.185 62.2148 159.359C60.7626 159.213 60.7626 159.213 59.281 159.063C58.2485 158.96 57.2161 158.857 56.1523 158.75C47.9201 157.82 40.0357 156.493 32.0898 154.125C30.8881 153.777 30.8881 153.777 29.6621 153.421C24.3799 151.751 20.5126 149.416 16.1523 146C16.2773 143.688 16.2773 143.688 17.1523 141C26.2957 134.328 40.6042 135.683 51.4263 135.739C53.912 135.75 56.3971 135.739 58.8828 135.727C60.4883 135.728 62.0938 135.731 63.6992 135.734C64.7948 135.728 64.7948 135.728 65.9125 135.722C72.1733 135.778 78.8181 136.316 83.8203 140.461C84.6953 141.169 84.6953 141.169 85.5879 141.891C86.166 142.381 86.7442 142.87 87.3398 143.375C87.9296 143.857 88.5193 144.339 89.127 144.836C90.2745 145.776 91.4178 146.72 92.5562 147.671C94.7288 149.48 96.939 151.241 99.1523 153C101.551 147.304 103.617 141.586 105.465 135.688C110.725 119.443 121.012 102.748 136.152 94.0001C139.418 92.7138 141.797 93.0288 145.152 94.0001Z" fill="#F05131"/>
<path d="M639.152 586C641.152 588 641.152 588 641.339 591C641.152 594 641.152 594 640.152 596C641.254 596.112 641.254 596.112 642.378 596.227C649.363 598.174 654.042 606.607 657.652 612.5C662.475 620.371 668.33 628.534 677.152 632C683.11 632.822 688.44 631.662 694.152 630C692.63 632.629 691.308 634.844 689.152 637C689.482 637.66 689.812 638.32 690.152 639C689.423 639.433 688.695 639.866 687.945 640.313C686.225 641.352 684.516 642.41 682.827 643.5C677.834 646.669 673.209 648.881 667.476 650.359C660.648 652.241 656.576 655.503 652.152 661C650.783 663.675 649.983 666.092 649.152 669C643.636 668.499 643.636 668.499 641.089 665.875C640.45 665.256 639.81 664.638 639.152 664C636.517 664.075 634.453 664.885 632.007 665.82C625.689 668.147 625.689 668.147 622.402 667.25C621.659 666.838 620.917 666.425 620.152 666C617.038 665.066 615.704 664.779 612.652 666C609.565 667.235 608.246 667.19 605.152 666C599.305 660.67 597.805 651.584 597.152 644C597.081 639.998 597.093 636.002 597.152 632C595.74 632.157 595.74 632.157 594.3 632.316C584.385 632.963 584.385 632.963 580.992 630.313C579.381 627.94 578.235 625.653 577.152 623C576.818 622.281 576.484 621.561 576.14 620.82C572.685 612.284 573.222 603.159 576.398 594.645C577.152 593 577.152 593 578.152 592C586.035 590.986 593.645 590.043 601.132 593.164C605.741 595.072 612.209 596.989 617.152 596C617.729 595.278 618.307 594.556 618.902 593.813C623.912 587.55 631.151 584.393 639.152 586Z" fill="#DB8748"/>
<path d="M456.152 0C458.465 0.1875 458.465 0.1875 461.152 1C464.478 5.12315 464.625 9.0897 464.527 14.1875C464.517 14.9449 464.507 15.7023 464.497 16.4827C464.114 30.3387 457.825 41.2662 448.152 51C446.152 52.8015 444.128 54.5538 442.047 56.2617C437.833 60.1281 435.699 63.08 435.196 68.8423C435.086 70.0022 434.977 71.1622 434.864 72.3573C434.765 73.6135 434.665 74.8698 434.562 76.1641C434.445 77.4991 434.325 78.834 434.205 80.1689C433.827 84.4438 433.487 88.7214 433.152 93C433.04 94.4157 432.928 95.8313 432.816 97.2469C432.025 107.286 431.302 117.33 430.59 127.375C430.226 132.502 429.86 137.628 429.486 142.754C429.342 144.75 429.203 146.746 429.064 148.742C428.401 157.876 427.363 166.925 426.152 176C425.492 175.67 424.832 175.34 424.152 175C422.012 175.988 419.914 177.068 417.84 178.188C405.513 184.622 393.564 187.192 379.715 187.062C378.793 187.058 377.87 187.053 376.92 187.049C374.664 187.037 372.408 187.021 370.152 187C371.081 185.681 372.02 184.37 372.965 183.062C373.487 182.332 374.009 181.601 374.547 180.848C376.152 179 376.152 179 379.152 178C379.843 176.679 380.506 175.343 381.152 174C383.101 171.836 385.129 169.773 387.18 167.707C392.326 160.644 393.327 151.042 395.034 142.633C395.492 140.377 395.958 138.123 396.426 135.869C397.755 129.465 399.072 123.059 400.38 116.651C408.165 78.5862 417.306 49.5666 442.106 19.073C445.305 15.1252 448.235 11.0937 450.973 6.80859C452.54 4.40579 454.31 2.1964 456.152 0Z" fill="#F15334"/>
<path d="M536.152 741C538.747 744.892 538.657 748.421 538.949 752.953C539.103 754.789 539.261 756.625 539.422 758.461C539.67 761.337 539.9 764.208 540.07 767.089C540.908 780.753 543.563 788.7 553.814 798.044C554.393 798.551 554.972 799.058 555.568 799.58C558.206 801.944 560.429 804.63 562.688 807.348C564.118 809.048 564.118 809.048 565.898 810.434C569.045 813.231 570.086 815.19 570.438 819.461C570.431 820.837 570.41 822.214 570.375 823.59C570.365 824.335 570.356 825.079 570.346 825.847C570.196 834.451 569.685 843.038 569.152 851.625C569.008 854.007 568.865 856.388 568.724 858.77C568.638 860.231 568.549 861.693 568.457 863.154C568.34 865.102 568.246 867.051 568.152 869C568.073 870.262 567.993 871.525 567.91 872.826C567.835 875.963 567.835 875.963 569.584 877.672C574.665 880.408 579.671 882.402 585.215 884C586.884 884.507 588.554 885.015 590.223 885.523C591.048 885.771 591.873 886.018 592.724 886.272C596.356 887.36 599.977 888.474 603.59 889.625C604.764 889.989 605.939 890.352 607.148 890.727C610.279 892.054 611.955 893.441 614.152 896C613.402 897.938 613.402 897.938 612.152 900C599.834 904.157 583.481 902.133 570.715 901.75C569.585 901.724 568.455 901.697 567.291 901.67C559.969 901.393 553.638 900.77 547.715 896.062C546.137 893.979 545.519 892.567 545.152 890C543.502 890 541.852 890 540.152 890C541.472 889.67 542.792 889.34 544.152 889C543.987 888.01 543.822 887.02 543.652 886C543.068 881.973 543.081 878.065 543.152 874C542.474 873.83 541.796 873.66 541.098 873.484C524.25 869.097 524.25 869.097 520.152 865C519.625 853.905 522.563 842.109 524.248 831.19C528.863 801.199 532.606 771.134 536.152 741Z" fill="#FDB549"/>
<path d="M333.152 237C338.116 241.306 340.75 246.318 343.715 252.125C344.183 253.012 344.652 253.899 345.135 254.812C356.535 276.816 361.809 304.322 354.414 328.473C350.794 338.594 345.69 347.338 335.902 352.375C331.852 354.238 328.302 355.151 323.848 355.43C306.689 356.587 293.746 358.083 278.832 366.906C274.773 369.278 270.736 370.934 266.152 372C265.204 372.227 264.255 372.454 263.277 372.688C253.423 373.673 244.447 373.63 236.34 367.312C232.906 364.118 230.674 360.432 229.152 356C229.152 355.01 229.152 354.02 229.152 353C232.528 353.582 233.78 354.628 236.152 357C243.331 360.643 253.807 360.653 261.459 358.287C264.511 357.063 267.448 355.659 270.397 354.207C275.58 351.654 280.631 349.739 286.215 348.25C286.956 348.052 287.698 347.853 288.462 347.649C292.159 346.693 295.867 345.836 299.605 345.055C314.822 341.844 328.061 335.916 336.965 322.625C348.079 304.135 346.562 283.591 341.722 263.389C339.798 255.837 337.41 248.684 334.254 241.562C333.152 239 333.152 239 333.152 237Z" fill="#FEB346"/>
<path d="M178.153 90.0001C190.926 89.176 199.701 94.7085 209.153 103C219.861 113.974 224.595 127.232 224.517 142.35C224.167 156.743 218.631 168.371 208.903 178.813C197.574 189.601 183.462 193.423 168.169 193.274C156.066 192.684 146.039 187.628 136.802 180.078C135.153 178 135.153 178 135.2 175.641C135.548 174.457 135.548 174.457 135.903 173.25C136.125 172.451 136.347 171.652 136.575 170.828C136.766 170.225 136.957 169.622 137.153 169C138.239 169.566 139.324 170.132 140.442 170.715C141.887 171.456 143.333 172.197 144.778 172.938C145.847 173.497 145.847 173.497 146.938 174.068C157.359 179.374 169.392 179.49 180.516 176.047C191.349 171.746 200.346 164.011 205.388 153.402C210.32 141.268 210.768 129.368 206.411 116.938C200.717 103.639 190.656 97.2705 178.153 91.0001C178.153 90.6701 178.153 90.3401 178.153 90.0001Z" fill="#D6482C"/>
<path d="M573.152 738C573.343 753.543 572.783 769.055 572.225 784.586C572.102 788.026 571.983 791.466 571.863 794.906C571.63 801.604 571.392 808.302 571.152 815C568.152 815 568.152 815 565.699 812.656C564.758 811.612 563.827 810.559 562.902 809.5C562.411 808.95 561.921 808.401 561.415 807.835C559.985 806.23 558.567 804.617 557.152 803C556.494 802.254 555.835 801.507 555.156 800.738C554.073 799.505 553.005 798.26 551.954 796.999C550.218 794.968 550.218 794.968 548.182 793.406C539.71 785.912 540.134 775.301 539.215 764.75C539.022 762.81 538.826 760.869 538.627 758.93C538.264 755.381 537.923 751.832 537.598 748.28C537.297 745.135 536.866 742.084 536.152 739C536.975 739.161 537.797 739.322 538.645 739.488C542.539 740.056 546.351 740.191 550.277 740.188C551.39 740.188 551.39 740.188 552.526 740.189C558.111 740.136 563.443 739.524 568.93 738.438C571.152 738 571.152 738 573.152 738Z" fill="#FDB448"/>
<path d="M146.152 359C147.157 362.014 147.219 363.805 147.109 366.938C146.446 381.967 146.446 381.967 151.152 396C151.668 397.031 152.184 398.062 152.715 399.125C155.878 402.856 159.573 405.661 163.383 408.711C173.225 416.846 173.225 416.846 174.152 423.688C174.281 426.916 174.059 429.877 173.152 433C172.822 432.34 172.492 431.68 172.152 431C170.086 430.446 170.086 430.446 167.539 430.121C160.222 428.904 153.112 427.018 145.965 425.062C145.254 424.868 144.543 424.674 143.811 424.475C112.928 415.994 82.4294 405.157 54.1523 390C53.4271 389.615 52.7018 389.231 51.9546 388.834C49.7002 387.633 47.4559 386.414 45.2148 385.188C44.5212 384.814 43.8275 384.441 43.1128 384.056C38.269 381.35 38.269 381.35 37.1523 378C35.6525 376.333 35.6525 376.333 34.1523 375C38.902 376.476 43.4507 378.33 48.0437 380.223C63.5137 386.576 79.245 391.881 95.1523 397C96.1274 397.315 97.1024 397.631 98.1069 397.956C104.445 400.003 110.797 402.007 117.152 404C118.481 404.418 119.81 404.835 121.139 405.253C124.788 406.4 128.438 407.545 132.089 408.689C133.538 409.143 134.986 409.597 136.435 410.052C138.468 410.69 140.502 411.325 142.535 411.961C143.715 412.33 144.894 412.699 146.11 413.08C148.45 413.788 150.773 414.441 153.152 415C152.794 414.319 152.436 413.638 152.067 412.936C150.447 409.855 148.831 406.771 147.215 403.688C146.369 402.08 146.369 402.08 145.506 400.439C144.968 399.411 144.429 398.383 143.875 397.324C143.378 396.376 142.88 395.428 142.367 394.452C137.801 385.237 139.962 375.125 143.082 365.777C143.988 363.427 144.97 361.221 146.152 359Z" fill="#FEAA71"/>
<path d="M145.152 94.0001C145.812 94.6601 146.472 95.3201 147.152 96.0001C146.584 96.5351 146.015 97.07 145.43 97.6212C136.734 106.705 128.916 119.386 127.152 132C127.011 132.884 126.869 133.769 126.723 134.68C126.059 142.586 128.25 148.002 131.652 154.938C135.566 162.959 138.512 169.936 136.152 179C134.323 181.621 133.024 182.445 130.152 184C129.74 183.576 129.327 183.152 128.902 182.715C125.813 179.577 122.687 176.551 119.34 173.688C115.222 170.145 111.434 166.319 107.645 162.43C104.926 159.779 102.096 157.397 99.1523 155C114.393 106.572 114.393 106.572 136.152 94.0001C139.418 92.7138 141.797 93.0288 145.152 94.0001Z" fill="#FEB880"/>
<path d="M754.151 788C758.702 789.517 760.824 793.038 763.151 797C767.357 805.67 767.319 814.982 767.651 824.438C767.721 826.415 767.794 828.393 767.87 830.371C767.905 831.322 767.94 832.274 767.976 833.254C768.141 835.832 768.506 838.297 768.925 840.844C769.326 844.22 769.165 844.972 767.597 848.223C757.757 860.266 747.754 869.437 732.151 873C728.876 873.293 725.627 873.334 722.339 873.312C721.449 873.307 720.559 873.301 719.642 873.295C713.368 873.179 707.906 872.664 702.151 870C700.84 869.432 700.84 869.432 699.503 868.852C686.159 862.385 678.707 852.279 673.151 839C671.965 835.44 672.055 832.562 672.089 828.812C672.098 827.54 672.107 826.268 672.116 824.957C672.128 823.981 672.139 823.005 672.151 822C672.481 822 672.811 822 673.151 822C673.372 822.909 673.372 822.909 673.597 823.836C677.03 836.661 684.06 845.791 695.151 853C706.444 858.869 719.386 860.184 731.651 856.375C742.314 852.186 751.451 845.154 756.792 834.828C762.171 822.153 763.226 809.529 758.241 796.508C756.977 793.599 755.692 790.773 754.151 788Z" fill="#FEA93E"/>
<path d="M536.152 741C539.654 746.252 539.562 752.957 540.262 759.141C540.396 760.312 540.396 760.312 540.532 761.507C542.89 782.822 542.612 804.169 542.427 825.583C542.385 830.955 542.368 836.327 542.348 841.699C542.306 852.133 542.238 862.566 542.152 873C537.216 872.354 532.983 871.384 528.34 869.562C527.22 869.131 526.099 868.699 524.945 868.254C522.152 867 522.152 867 520.152 865C519.625 853.905 522.563 842.109 524.248 831.19C528.863 801.199 532.606 771.134 536.152 741Z" fill="#FEFDFD"/>
<path d="M398.152 127C402.169 128.339 403.745 130.951 406.152 134.25C406.629 134.902 407.106 135.555 407.598 136.227C411.586 141.864 414.943 147.766 418.152 153.875C418.837 155.175 418.837 155.175 419.535 156.501C422.213 161.743 424.985 167.189 426.152 173C425.822 173.99 425.492 174.98 425.152 176C424.162 176 423.172 176 422.152 176C420.335 176.865 418.547 177.792 416.777 178.75C404.75 184.917 393.115 187.188 379.715 187.062C378.793 187.058 377.87 187.053 376.92 187.049C374.664 187.037 372.408 187.021 370.152 187C371.081 185.681 372.02 184.37 372.965 183.062C373.487 182.332 374.009 181.601 374.547 180.848C376.152 179 376.152 179 379.152 178C379.843 176.679 380.506 175.343 381.152 174C383.101 171.836 385.129 169.773 387.18 167.707C392.681 160.157 393.553 149.894 395.34 140.938C395.615 139.581 395.89 138.225 396.166 136.869C396.833 133.58 397.495 130.291 398.152 127Z" fill="#FEB77F"/>
<path d="M671.227 538.18C673.337 539.907 674.928 541.551 676.152 544C676.193 546.333 676.196 548.667 676.152 551C676.812 551.33 677.472 551.66 678.152 552C677.492 552 676.832 552 676.152 552C675.967 553.887 675.967 553.887 675.777 555.812C675.291 560.473 674.34 564.963 673.262 569.519C672.913 572.105 672.913 572.105 674.605 574.324C675.116 574.877 675.626 575.43 676.152 576C670.777 581.759 670.777 581.759 666.27 582.173C664.019 582.233 661.779 582.223 659.527 582.187C658.751 582.187 657.975 582.186 657.176 582.185C651.434 582.141 651.434 582.141 649.152 581C649.049 580.092 648.946 579.185 648.84 578.25C647.963 574.105 646.252 572.811 643.152 570C637.401 563.427 636.856 558.492 637.152 550C636.492 549.67 635.832 549.34 635.152 549C636.486 547.667 637.819 546.333 639.152 545C639.915 544.175 640.679 543.35 641.465 542.5C649.631 534.904 661.095 532.417 671.227 538.18Z" fill="#56392B"/>
<path d="M142.152 195C145.303 196.823 148.192 198.701 150.964 201.062C151.871 201.822 151.871 201.822 152.797 202.598C154.152 204 154.152 204 154.152 206C154.714 206.253 155.276 206.505 155.855 206.766C158.473 208.172 160.583 209.892 162.902 211.75C175.065 220.631 189.623 223.315 204.152 226C204.152 226.66 204.152 227.32 204.152 228C167.58 245.714 167.58 245.714 155.152 247C144.961 230.458 141.929 214.067 142.152 195Z" fill="#FEB780"/>
<path d="M364.152 295C364.482 295 364.812 295 365.152 295C368.049 318.478 365.857 342.489 351.152 362C339.915 375.816 322.6 381.77 305.477 383.773C294.423 384.853 283.648 383.999 272.652 382.625C271.642 382.499 270.632 382.373 269.591 382.244C268.652 382.114 267.713 381.985 266.746 381.852C265.908 381.736 265.069 381.621 264.205 381.502C262.152 381 262.152 381 260.152 379C261.059 378.902 261.965 378.804 262.898 378.703C270.377 377.785 276.51 376.526 283.152 373C285.192 371.954 287.233 370.912 289.277 369.875C290.229 369.377 291.18 368.88 292.16 368.367C299.443 365.04 305.917 364.78 313.777 364.688C327.798 364.283 339.137 361.597 349.152 351C360.038 337.452 363.068 323.15 363.715 306.062C363.78 304.464 363.78 304.464 363.846 302.834C363.951 300.223 364.053 297.611 364.152 295Z" fill="#FEB146"/>
<path d="M51.4263 135.739C53.912 135.75 56.3971 135.739 58.8828 135.727C60.4883 135.728 62.0938 135.73 63.6992 135.734C64.7948 135.728 64.7948 135.728 65.9125 135.722C70.9465 135.767 75.3063 136.627 80.1523 138C79.4923 138.33 78.8323 138.66 78.1523 139C78.6473 140.33 78.6473 140.33 79.1523 141.687C80.9828 148.14 81.7348 156.677 78.6523 162.812C78.1573 163.534 77.6623 164.256 77.1523 165C76.5624 164.656 75.9725 164.311 75.3647 163.957C68.7816 160.359 63.1948 159.153 55.7773 158.562C47.6466 157.726 39.9284 156.469 32.0898 154.125C31.2882 153.892 30.4866 153.66 29.6606 153.42C24.3789 151.751 20.512 149.416 16.1523 146C16.2773 143.687 16.2773 143.687 17.1523 141C26.2957 134.328 40.6042 135.683 51.4263 135.739Z" fill="#FEB982"/>
<path d="M528.152 520C528.152 523.645 527.276 524.546 525.214 527.5C516.113 541.52 510.108 556.81 506.152 573C505.836 574.227 505.836 574.227 505.514 575.478C500.104 597.431 501.781 620.577 502.152 643C500.874 642.051 499.599 641.101 498.323 640.15C497.613 639.621 496.902 639.091 496.17 638.546C490.42 634.141 485.82 629.55 484.445 622.246C482.348 584.779 504.158 547.069 528.152 520Z" fill="#F05230"/>
<path d="M195.152 495C197.499 495.908 199.802 496.816 202.031 497.988C207.598 500.808 212.325 501.467 218.551 501.531C227.901 502.748 236.065 507.337 244.152 511.938C254.481 517.769 264.284 523.275 276.152 525C275.971 525.534 275.789 526.067 275.602 526.617C275.35 527.362 275.099 528.107 274.84 528.875C274.428 530.093 274.428 530.093 274.008 531.336C272.874 534.866 271.927 538.442 270.996 542.031C270.718 542.681 270.439 543.331 270.152 544C268.667 544.495 268.667 544.495 267.152 545C264.811 543.621 262.666 542.202 260.465 540.625C250.313 533.622 239.746 527.724 228.665 522.319C218.939 517.574 209.913 512.361 201.152 506C200.209 505.322 199.265 504.644 198.293 503.945C195.317 501.241 195.378 498.904 195.152 495Z" fill="#FEA66B"/>
<path d="M456.153 0C458.528 0.125 458.528 0.125 461.153 1C464.47 5.1313 464.626 9.08602 464.528 14.1875C464.518 14.9449 464.507 15.7023 464.497 16.4827C464.114 30.3484 457.819 41.2524 448.153 51C446.143 52.8413 444.099 54.6274 442.02 56.3906C439.598 58.478 437.378 60.7056 435.153 63C430.292 54.1686 430.778 45.7527 431.153 36C431.153 35.01 431.153 34.02 431.153 33C432.741 30.7709 434.357 28.6728 436.09 26.5625C437.102 25.3042 438.112 24.0451 439.122 22.7852C439.631 22.1524 440.14 21.5196 440.664 20.8677C442.858 18.1153 444.977 15.3143 447.09 12.5C448.125 11.1233 448.125 11.1233 449.18 9.71875C451.252 6.86295 453.199 3.93735 455.153 1C455.483 0.67 455.813 0.34 456.153 0Z" fill="#FEBA84"/>
<path d="M569.152 877C570.609 877.728 572.049 878.489 573.477 879.273C580.021 882.613 586.935 884.572 593.965 886.625C596.536 887.38 599.105 888.144 601.672 888.914C602.797 889.243 603.922 889.573 605.081 889.912C608.093 890.979 610.533 892.177 613.152 894C614.09 896.062 614.09 896.062 614.152 898C608.082 904.071 593.126 901.889 585.152 902C580.337 901.991 575.528 901.894 570.715 901.75C569.02 901.71 569.02 901.71 567.291 901.67C553.517 901.148 553.517 901.148 548.44 896.397C548.015 895.936 547.59 895.475 547.152 895C550.482 886.237 554.828 881.874 562.75 877.004C565.592 875.816 566.298 876.051 569.152 877Z" fill="#DC884A"/>
<path d="M229.152 402C224.402 406 224.402 406 222.152 406C222.152 406.66 222.152 407.32 222.152 408C220.782 409.278 220.782 409.278 218.855 410.723C218.15 411.257 217.445 411.791 216.718 412.341C215.954 412.909 215.19 413.477 214.402 414.063C213.625 414.647 212.847 415.231 212.046 415.833C210.475 417.012 208.902 418.19 207.328 419.365C205.484 420.751 203.658 422.155 201.844 423.578C192.825 430.578 183.333 437.18 172.152 440C172.068 436.046 172.213 432.354 172.777 428.438C173.341 423.379 172.789 420.054 169.527 415.961C168.309 414.565 167.071 413.188 165.809 411.832C164.152 410 164.152 410 162.152 407C163.548 407.236 163.548 407.236 164.973 407.477C184.566 410.234 203.782 406.895 222.684 401.773C226.152 401 226.152 401 229.152 402Z" fill="#D44326"/>
<path d="M266.152 432C267.436 435.851 266.615 437.002 265.152 440.75C261.305 451.005 258.205 461.486 255.152 472C254.866 472.983 254.581 473.966 254.286 474.979C250.565 487.959 248.065 500.521 247.152 514C241.959 512.06 237.118 509.482 232.211 506.922C227.915 504.729 223.833 503.173 219.152 502C220.027 500.979 220.902 499.958 221.777 498.938C222.329 498.29 222.881 497.643 223.449 496.977C224.487 495.772 225.537 494.576 226.605 493.398C230.952 488.55 234.466 483.232 238 477.773C239.207 475.915 240.429 474.067 241.652 472.219C248.732 461.465 255.31 450.439 261.793 439.317C263.23 436.868 264.688 434.433 266.152 432Z" fill="#D44326"/>
<path d="M418.152 186C419.152 189 419.152 189 418.342 190.856C417.901 191.554 417.459 192.253 417.004 192.973C416.502 193.777 415.999 194.58 415.482 195.409C414.919 196.284 414.357 197.16 413.777 198.062C413.197 198.982 412.617 199.902 412.02 200.849C405.87 210.553 399.545 220.145 393.242 229.75C384.396 243.247 375.89 256.834 368.152 271C366.152 270 366.152 270 365.082 267.27C364.734 266.129 364.386 264.988 364.027 263.812C363.674 262.685 363.321 261.557 362.957 260.395C361.907 255.965 361.391 252.685 363.297 248.465C370.439 237.642 378.982 228.109 387.829 218.665C390.44 215.876 392.992 213.05 395.496 210.164C399.354 205.733 403.364 201.455 407.402 197.188C408.462 196.063 408.462 196.063 409.543 194.916C412.38 191.909 415.216 188.91 418.152 186Z" fill="#D64A2D"/>
<path d="M178.152 259C185.829 259.728 193.224 261.531 200.715 263.312C202.073 263.633 203.431 263.954 204.789 264.275C245.228 273.859 245.228 273.859 257.527 285.188C261.778 292.544 263.592 300.596 264.152 309C257.711 303.539 257.711 303.539 254.953 300.879C242.076 288.598 225.775 282.583 209.696 275.561C204.009 273.056 198.361 270.47 192.715 267.875C191.709 267.414 190.703 266.953 189.667 266.477C185.801 264.701 181.948 262.921 178.152 261C178.152 260.34 178.152 259.68 178.152 259Z" fill="#D54528"/>
<path d="M709.215 550.062C715.957 553.71 720.306 558.556 722.68 565.891C723.861 571.164 723.897 575.355 721.652 580.312C716.708 585.627 709.859 587.605 703.152 590C703.101 589.464 703.049 588.927 702.996 588.375C702.111 582.256 700.024 577.166 697.277 571.687C696.938 571.006 696.598 570.325 696.248 569.623C692.222 561.819 692.222 561.819 685.152 557C686.389 554.526 687.816 553.586 690.027 551.937C690.726 551.41 691.425 550.883 692.145 550.34C697.762 546.591 703.345 547.366 709.215 550.062Z" fill="#5B3F32"/>
<path d="M334.152 261C341.498 269.567 342.109 283.468 341.66 294.277C340.502 308.52 332.913 320.695 322.777 330.438C317.909 334.51 312.432 337.91 305.918 338.047C303.156 337.735 300.488 337.074 297.777 336.473C288.504 334.803 280.988 335.636 273.152 341C270.012 343.532 267.042 346.187 264.152 349C264.152 343.873 268.618 340.486 272.059 336.965C277.983 331.184 282.872 327.854 291.387 327.895C294.309 327.963 297.23 328.063 300.152 328.163C306.781 328.284 311.144 327.774 316.258 323.176C319.634 319.298 322.548 315.441 325.152 311C325.687 310.105 326.222 309.211 326.773 308.289C335.039 293.242 336.187 277.748 334.152 261Z" fill="#FDB146"/>
<path d="M513.153 515C513.813 515.33 514.473 515.66 515.153 516C514.631 516.378 514.109 516.755 513.571 517.145C491.942 533.319 479.028 556.565 474.153 583C473.692 586.347 473.347 589.699 473.028 593.062C472.942 593.928 472.855 594.794 472.766 595.686C472.557 597.79 472.355 599.895 472.153 602C469.62 599.758 468.495 597.83 467.364 594.656C467.063 593.822 466.761 592.988 466.45 592.129C466.146 591.261 465.842 590.394 465.528 589.5C465.06 588.199 465.06 588.199 464.583 586.871C459.764 573.433 459.764 573.433 462.587 566.457C463.236 565.232 463.905 564.018 464.591 562.812C464.951 562.162 465.312 561.511 465.683 560.841C476.182 542.355 492.916 523.147 513.153 515Z" fill="#F05330"/>
<path d="M523.055 865.797C523.727 866.111 524.398 866.426 525.09 866.75C531.007 869.441 537.076 871.697 543.153 874C543.648 881.425 543.648 881.425 544.153 889C535.15 889.276 526.586 888.869 517.653 887.687C516.722 887.57 515.791 887.452 514.832 887.331C509.461 886.575 505.027 885.39 500.153 883C499.926 880.16 499.88 878.468 501.332 875.973C507.153 869.414 514.058 862.028 523.055 865.797Z" fill="#D67B3F"/>
<path d="M496.027 501.812C497.544 501.794 497.544 501.794 499.093 501.775C505.986 501.762 512.419 502.535 519.152 504C519.152 504.33 519.152 504.66 519.152 505C517.373 505.22 517.373 505.22 515.558 505.445C495.264 508.168 478.279 514.591 463.273 529.117C461.275 530.89 459.542 531.87 457.152 533C457.097 529.958 457.058 526.917 457.027 523.875C457.001 522.591 457.001 522.591 456.976 521.281C456.939 516.521 456.964 512.348 459.152 508C461.07 506.828 461.07 506.828 463.339 506.25C464.147 506.031 464.956 505.812 465.788 505.586C466.958 505.296 466.958 505.296 468.152 505C469.307 504.629 470.462 504.257 471.652 503.875C479.674 501.869 487.795 501.818 496.027 501.812Z" fill="#F0512F"/>
<path d="M472.152 464C479.229 464.403 484.922 467.415 491.215 470.5C492.326 471.04 493.437 471.579 494.581 472.135C505.289 477.418 515.047 483.244 524.152 491C520.317 492.279 518.757 491.475 514.902 490.312C498.999 485.799 482.661 483.443 466.152 483C466.642 477.78 467.392 473.765 469.715 469C470.17 468.051 470.625 467.103 471.094 466.125C471.443 465.424 471.792 464.723 472.152 464Z" fill="#F0512F"/>
<path d="M715.652 783.063C717.152 785 717.152 785 717.715 788.188C716.649 795.409 712.519 800.289 706.906 804.75C702.196 808.107 697.944 809.684 692.152 810C689.34 809.438 689.34 809.438 687.152 808C685.652 805.313 685.652 805.313 685.152 802C687.488 793.973 692.4 788.768 699.527 784.563C705.213 781.67 709.548 780.468 715.652 783.063Z" fill="#FEC555"/>
<path d="M507.152 424C509.797 426.323 510.945 428.457 512.203 431.727C512.752 433.139 512.752 433.139 513.312 434.579C513.883 436.087 513.883 436.087 514.465 437.625C515.06 439.17 515.06 439.17 515.667 440.747C518.284 447.588 520.795 454.462 523.179 461.388C524.789 466.055 526.582 470.605 528.586 475.117C529.152 477 529.152 477 528.152 480C527.702 479.068 527.253 478.136 526.789 477.176C518.781 461.095 506.925 449.435 494.152 437C495.73 433.669 497.462 431.421 500.09 428.812C500.779 428.118 501.469 427.423 502.18 426.707C504.152 425 504.152 425 507.152 424Z" fill="#F05431"/>
<path d="M327.152 384C327.152 387.567 326.073 388.839 323.754 391.449C314.804 400.115 303.594 401.339 291.633 401.301C288.157 401 285.426 400.155 282.152 399C280.697 398.87 279.238 398.783 277.777 398.75C272.432 398.262 268.95 395.661 265.152 392C264.492 391.01 263.832 390.02 263.152 389C263.934 389.217 264.715 389.433 265.52 389.656C285.546 394.473 309.115 394.91 327.152 384Z" fill="#FDB045"/>
<path d="M540.153 759C542.965 760.406 543.087 761.956 544.215 764.875C550.062 779.246 556.904 792.763 565.074 805.966C565.618 806.855 566.162 807.744 566.723 808.66C567.215 809.45 567.708 810.241 568.216 811.055C568.525 811.697 568.834 812.339 569.153 813C568.823 813.66 568.493 814.32 568.153 815C555.957 801.768 555.957 801.768 551.848 796.895C550.148 794.927 550.148 794.927 548.02 793.074C540.119 785.556 540.352 776.819 540.051 766.523C540.032 764.01 540.057 761.511 540.153 759Z" fill="#F05330"/>
<path d="M287.152 198C288.096 198.398 289.04 198.797 290.012 199.207C300.868 203.717 311.366 207.018 323.152 208C323.152 209.32 323.152 210.64 323.152 212C310.979 213.997 298.892 214.025 287.152 210C287.152 206.04 287.152 202.08 287.152 198Z" fill="#FEA76B"/>
<path d="M607.153 595C612.598 595.495 612.598 595.495 618.153 596C617.823 597.32 617.493 598.64 617.153 600C615.044 600.801 615.044 600.801 612.403 601.312C607.732 602.559 605.57 603.84 603.106 607.996C599.601 615.366 598.309 622.961 597.153 631C594.513 631 591.873 631 589.153 631C588.992 620.983 593.02 611.267 599.841 603.953C601.595 602.228 603.383 600.537 605.212 598.891C605.852 598.267 606.493 597.643 607.153 597C607.153 596.34 607.153 595.68 607.153 595Z" fill="#D4773B"/>
<path d="M504.152 746C506.187 748.034 506.727 749.131 507.711 751.762C508.009 752.54 508.308 753.319 508.615 754.122C508.937 754.968 509.259 755.815 509.59 756.688C513.164 765.923 517.301 774.806 521.734 783.659C522.193 784.589 522.652 785.519 523.125 786.477C523.54 787.302 523.955 788.128 524.383 788.979C524.637 789.646 524.891 790.313 525.152 791C524.822 791.66 524.492 792.32 524.152 793C523.295 792.01 522.438 791.02 521.555 790C520.4 788.667 519.245 787.333 518.09 786C517.528 785.352 516.967 784.703 516.389 784.035C515.825 783.384 515.261 782.733 514.68 782.062C514.108 781.388 513.536 780.713 512.947 780.018C511.182 777.97 511.182 777.97 509.172 776.154C505.169 772.262 503.707 769.616 503.469 763.969C503.515 761.811 503.598 759.655 503.715 757.5C503.746 756.391 503.778 755.283 503.811 754.141C503.893 751.424 504.007 748.714 504.152 746Z" fill="#F0512E"/>
<path d="M526.153 408C531.133 415.471 532.496 425.012 533.903 433.75C534.03 434.529 534.158 435.308 534.289 436.111C535.094 441.457 535.26 446.595 535.153 452C532.792 448.459 531.769 444.834 530.528 440.812C528.215 433.513 525.325 426.821 521.605 420.128C519.132 415.554 519.132 415.554 519.238 412.664C520.756 409.901 523.35 409.192 526.153 408Z" fill="#F05631"/>
<path d="M325.152 282C325.482 282 325.812 282 326.152 282C326.782 292.7 324.255 304.081 318.152 313C314.718 316.681 310.928 320.213 306.152 322C303.902 321.625 303.902 321.625 302.152 321C303.621 318.796 305.091 316.593 306.562 314.391C307.494 312.989 308.421 311.585 309.336 310.172C312.791 304.848 312.791 304.848 315.152 303C316.142 303 317.132 303 318.152 303C319.872 299.784 321.068 296.522 322.215 293.062C322.556 292.043 322.898 291.023 323.25 289.973C324.055 287.321 324.665 284.726 325.152 282Z" fill="#FDB045"/>
<path d="M672.465 571.625C674.152 573 674.152 573 676.152 576C670.777 581.759 670.777 581.759 666.27 582.173C664.019 582.233 661.779 582.223 659.527 582.187C658.751 582.187 657.975 582.186 657.176 582.185C651.434 582.141 651.434 582.141 649.152 581C649.152 579.35 649.152 577.7 649.152 576C650.546 575.836 650.546 575.836 651.969 575.668C659.852 574.814 659.852 574.814 667.277 572.25C670.152 571 670.152 571 672.465 571.625Z" fill="#F8B146"/>
<path d="M548.152 763C558.093 770.781 564.954 781.77 568.152 794C568.273 797.379 568.273 797.379 568.152 800C565.145 798.496 564.651 796.204 563.215 793.188C559.658 785.827 555.723 778.699 551.709 771.579C551.248 770.754 550.787 769.928 550.312 769.078C549.896 768.34 549.48 767.602 549.051 766.841C548.152 765 548.152 765 548.152 763Z" fill="#F15930"/>
<path d="M512.152 754C519.934 759.314 524.633 768.034 527.152 777C527.228 779.332 527.246 781.669 527.152 784C524.74 780.976 522.966 777.886 521.234 774.43C520.703 773.369 520.171 772.308 519.623 771.215C519.076 770.113 518.529 769.011 517.965 767.875C517.406 766.765 516.847 765.655 516.271 764.512C515.744 763.453 515.216 762.395 514.672 761.305C514.188 760.335 513.705 759.366 513.206 758.367C512.152 756 512.152 756 512.152 754Z" fill="#F0532E"/>
<path d="M548.152 801C552.318 804.922 555.636 809.169 558.965 813.812C559.467 814.505 559.969 815.198 560.486 815.912C561.712 817.605 562.933 819.302 564.152 821C563.162 821.33 562.172 821.66 561.152 822C548.152 808.577 548.152 808.577 548.152 801Z" fill="#F15830"/>
<path d="M509.152 782C512.643 785.398 515.83 788.909 518.902 792.688C519.681 793.64 520.46 794.593 521.262 795.574C523.152 798 523.152 798 524.152 800C520.761 799.623 518.839 798.187 516.523 795.734C509.152 786.41 509.152 786.41 509.152 782Z" fill="#F1572F"/>
<path d="M699.152 628C697.764 632.417 695.755 635.083 692.152 638C689.84 637.812 689.84 637.812 688.152 637C690.105 634.754 690.105 634.754 692.059 632.508C693.348 631.041 693.348 631.041 693.152 629C695.228 628.447 696.996 628 699.152 628Z" fill="#5D4B42"/>
<path d="M351.152 205C351.152 208 351.152 208 349.648 209.867C345.376 214.034 341.12 217.688 336.152 221C335.492 220.67 334.832 220.34 334.152 220C335.772 218.494 337.398 216.995 339.027 215.5C339.932 214.665 340.837 213.829 341.77 212.969C344.152 211 344.152 211 346.152 211C346.152 210.34 346.152 209.68 346.152 209C347.779 207.618 349.445 206.281 351.152 205Z" fill="#F58567"/>
<path d="M752.152 774C752.482 774 752.812 774 753.152 774C753.201 774.675 753.25 775.351 753.301 776.047C753.376 776.939 753.45 777.831 753.527 778.75C753.597 779.632 753.667 780.513 753.738 781.422C754.151 783.991 754.864 785.758 756.152 788C753.285 786.715 751.176 785.429 749.152 783C749.152 782.34 749.152 781.68 749.152 781C748.162 780.67 747.172 780.34 746.152 780C748.09 779.438 748.09 779.438 750.152 779C750.482 779.33 750.812 779.66 751.152 780C751.482 778.02 751.812 776.04 752.152 774Z" fill="#FBB663"/>
<path d="M275.152 334C275.812 334.33 276.472 334.66 277.152 335C273.014 340.365 268.517 344.861 263.152 349C264.723 345.318 267.017 342.745 269.715 339.812C270.521 338.932 271.326 338.052 272.156 337.145C274.152 335 274.152 335 275.152 334Z" fill="#FBA242"/>
<path d="M692.152 780C692.812 780.33 693.472 780.66 694.152 781C690.522 784.63 686.892 788.26 683.152 792C682.492 791.67 681.832 791.34 681.152 791C682.231 789.725 683.315 788.455 684.402 787.188C685.006 786.48 685.609 785.772 686.23 785.043C688.076 783.081 689.952 781.543 692.152 780Z" fill="#FECF86"/>
<path d="M364.152 192C364.152 196.168 361.914 198.142 359.152 201C357.522 202.377 355.866 203.727 354.152 205C353.492 204.67 352.832 204.34 352.152 204C356.112 200.04 360.072 196.08 364.152 192Z" fill="#F6886C"/>
<path d="M516.152 414C516.812 414.33 517.472 414.66 518.152 415C516.745 416.488 515.326 417.965 513.902 419.438C512.719 420.673 512.719 420.673 511.512 421.934C509.245 423.919 508.085 424.63 505.152 425C508.819 421.333 512.486 417.667 516.152 414Z" fill="#F9BF7B"/>
<path d="M31.1523 373C34.5125 374.12 35.843 375.372 38.1523 378C38.1523 378.66 38.1523 379.32 38.1523 380C35.1804 378.875 32.8179 377.777 30.1523 376C30.4823 375.01 30.8123 374.02 31.1523 373Z" fill="#FEC599"/>
<path d="M528.152 520C528.152 523.319 527.715 524.025 525.84 526.625C525.196 527.542 525.196 527.542 524.539 528.477C523.152 530 523.152 530 520.152 531C521.516 528.008 523.101 525.71 525.277 523.25C525.816 522.636 526.355 522.023 526.91 521.391C527.525 520.702 527.525 520.702 528.152 520Z" fill="#F46734"/>
<path d="M430.152 35C430.812 35.33 431.472 35.66 432.152 36C431.822 39.96 431.492 43.92 431.152 48C430.822 48 430.492 48 430.152 48C429.957 45.9492 429.762 43.8984 429.566 41.8477C429.43 41.2379 429.293 40.6282 429.152 40C428.492 39.67 427.832 39.34 427.152 39C428.142 37.68 429.132 36.36 430.152 35Z" fill="#F67F58"/>
<path d="M645.152 539C645.812 539.33 646.472 539.66 647.152 540C644.512 542.64 641.872 545.28 639.152 548C639.152 545 639.152 545 641.59 542.375C642.435 541.591 643.281 540.808 644.152 540C644.482 539.67 644.812 539.34 645.152 539Z" fill="#8C776E"/>
<path d="M699.152 628C698.492 629.65 697.832 631.3 697.152 633C696.162 633 695.172 633 694.152 633C693.822 631.68 693.492 630.36 693.152 629C695.228 628.447 696.996 628 699.152 628Z" fill="#6F5A4E"/>
</svg>
