<svg width="922" height="586" viewBox="0 0 922 586" fill="none" xmlns="http://www.w3.org/2000/svg">
<path d="M465.937 13.0681C473.271 18.7436 479.388 25.576 481.251 34.8704C481.596 40.3024 481.648 43.3862 478.251 47.8704C477.921 48.2004 477.591 48.5304 477.251 48.8704C477.178 51.5669 477.158 54.2373 477.188 56.9329C477.195 58.0708 477.195 58.0708 477.202 59.2317C477.214 61.1113 477.232 62.9909 477.251 64.8704C479.231 65.2004 481.211 65.5304 483.251 65.8704C483.251 66.5304 483.251 67.1904 483.251 67.8704C484.437 67.3032 484.437 67.3032 485.647 66.7246C488.631 65.3028 491.619 63.8893 494.609 62.481C495.894 61.8742 497.177 61.2642 498.458 60.6509C524.554 48.1693 548.247 49.598 575.251 58.8704C596.556 66.7569 616.259 78.1191 635.759 89.6399C639.593 91.9057 643.45 94.1206 647.342 96.2859C658.077 102.271 667.992 109.433 676.575 118.261C679.447 121.062 682.506 123.503 685.688 125.933C695.757 133.734 705.359 142.064 714.774 150.64C716.14 151.87 717.512 153.093 718.909 154.286C724.644 159.199 730.016 164.449 735.351 169.786C736.875 171.307 738.406 172.82 739.938 174.333C754.83 189.137 754.83 189.137 755.251 195.87C752.941 197.52 750.631 199.17 748.251 200.87C748.528 201.889 748.805 202.907 749.091 203.956C753.942 222.559 755.946 244.031 748.743 262.374C746.286 266.484 742.744 269.514 739.102 272.581C736.046 278.01 738.03 282.98 739.251 288.87C739.695 291.568 740.127 294.266 740.548 296.968C740.782 298.427 741.018 299.886 741.255 301.344C741.377 302.092 741.498 302.84 741.623 303.611C742.416 308.49 743.213 313.368 744.01 318.247C744.84 323.33 745.659 328.415 746.471 333.502C746.995 336.778 747.525 340.053 748.058 343.328C748.309 344.883 748.557 346.438 748.803 347.993C750.763 362.949 750.763 362.949 759.251 374.87C762.198 376.537 762.198 376.537 765.45 377.851C766.65 378.369 767.85 378.888 769.086 379.422C770.029 379.822 770.029 379.822 770.991 380.23C774.298 381.636 777.583 383.092 780.868 384.55C781.516 384.837 782.163 385.125 782.831 385.421C798.666 392.488 812.792 402.025 827.101 411.743C830.287 413.895 833.488 416.021 836.696 418.14C857.169 431.664 857.169 431.664 866.251 438.87C866.985 439.418 867.72 439.966 868.477 440.531C871.465 442.858 873.094 444.269 874.063 447.995C874.125 448.944 874.187 449.893 874.251 450.87C875.715 455.017 878.867 457.524 882.063 460.37C883.233 461.432 884.402 462.493 885.571 463.554C886.175 464.098 886.778 464.642 887.4 465.202C890.427 467.931 893.434 470.679 896.438 473.433C896.99 473.933 897.542 474.433 898.111 474.949C900.522 477.155 902.427 479.135 904.251 481.87C904.087 484.21 904.087 484.21 903.626 486.808C903.026 490.918 903.026 490.918 905.063 494.495C907.102 496.048 907.102 496.048 909.251 495.87C910.829 494.313 910.829 494.313 912.376 492.37C912.915 491.721 913.453 491.071 914.009 490.402C914.623 489.644 914.623 489.644 915.251 488.87C918.412 490.24 919.243 490.859 921.251 493.87C921.587 495.886 921.587 495.886 921.626 498.12C921.654 498.847 921.682 499.574 921.712 500.324C919.009 515.255 899.187 528.558 888.235 537.421C884.863 540.188 881.554 543.022 878.251 545.87C845.672 573.897 845.672 573.897 834.438 575.37C830.903 574.816 829.06 574.072 826.251 571.87C825.694 571.025 825.137 570.179 824.563 569.308C821.899 566.499 820.954 566.44 817.251 565.87C813.513 565.292 812.528 565.134 809.688 562.433C806.528 556.799 806.579 551.182 807.251 544.87C809.138 539.21 812.965 534.945 816.751 530.433C823.559 522.301 826.85 514.135 829.251 503.87C828.219 503.938 827.188 504.005 826.126 504.074C821.777 503.845 819.89 502.923 816.251 500.609C815.702 500.267 815.153 499.925 814.587 499.572C813.411 498.838 812.24 498.096 811.072 497.349C807.961 495.357 804.816 493.42 801.677 491.472C801.045 491.078 800.414 490.684 799.764 490.278C783.118 479.912 765.743 470.715 748.251 461.87C747.534 461.506 746.816 461.142 746.077 460.767C736.351 455.879 726.305 451.864 716.188 447.87C685.545 435.762 685.545 435.762 677.251 426.87C676.529 426.107 675.807 425.344 675.063 424.558C670.601 417.942 667.845 411.001 665.485 403.421C665.227 402.599 664.97 401.777 664.704 400.93C661.546 390.742 658.713 380.464 655.876 370.183C655.325 368.198 654.774 366.213 654.223 364.228C652.896 359.443 651.572 354.657 650.251 349.87C649.79 350.336 649.33 350.802 648.855 351.283C645.781 354.378 642.724 357.437 639.391 360.257C634.777 364.248 630.367 368.423 626.001 372.683C625.212 373.426 624.423 374.169 623.61 374.935C614.401 383.965 612.806 392.731 611.626 405.245C609.915 421.53 607.287 437.662 604.585 453.805C604.254 455.786 603.926 457.768 603.598 459.749C601.62 471.671 599.641 483.602 597.188 495.437C596.981 496.507 596.981 496.507 596.77 497.599C595.832 501.889 594.452 503.943 591.251 506.87C590.909 510.104 590.909 510.104 591.376 513.683C591.466 514.672 591.466 514.672 591.557 515.681C591.995 520.244 592.654 524.772 593.313 529.308C596.123 550.002 596.123 550.002 592.907 554.929C591.373 556.264 589.813 557.569 588.251 558.87C587.714 561.721 587.948 563.949 588.251 566.87C590.204 566.35 592.157 565.829 594.11 565.308C596.251 564.87 596.251 564.87 600.251 564.87C601.587 571.067 601.587 571.067 600.126 574.558C594.497 581.5 587.565 583.142 578.897 584.142C569.757 584.983 560.643 585.052 551.473 585.073C550.64 585.076 549.807 585.079 548.948 585.082C544.544 585.097 540.139 585.106 535.734 585.111C531.225 585.116 526.716 585.14 522.207 585.169C518.7 585.187 515.194 585.192 511.687 585.194C510.026 585.197 508.365 585.205 506.704 585.218C484.226 585.385 484.226 585.385 475.063 579.995C472.606 575.758 472.403 571.701 471.852 566.878C471.491 563.625 471.491 563.625 468.626 561.245C465.792 558.411 465.796 557.459 465.626 553.558C465.9 547.9 467.481 544.079 471.251 539.87C477.735 534.418 485.413 532.991 493.563 531.558C504.638 529.425 515.172 524.759 522.005 515.491C523.474 513.313 524.888 511.117 526.251 508.87C525.694 508.735 525.137 508.6 524.563 508.46C518.22 506.671 513.655 503.814 509.251 498.87C505.736 488.326 509.072 476.218 511.327 465.7C518.537 431.82 522.659 397.756 525.515 363.254C527.391 340.952 530.119 323.227 545.251 305.87C544.009 304.716 542.757 303.572 541.501 302.433C540.805 301.795 540.109 301.157 539.391 300.499C537.124 298.774 536.058 298.165 533.251 297.87C530.678 298.894 530.678 298.894 528.016 300.562C526.46 301.474 526.46 301.474 524.873 302.405C523.204 303.409 523.204 303.409 521.501 304.433C520.338 305.12 519.174 305.807 518.009 306.492C515.606 307.908 513.206 309.331 510.809 310.759C506.427 313.365 502.016 315.922 497.605 318.479C494.615 320.216 491.631 321.963 488.649 323.714C485.336 325.659 482.012 327.578 478.665 329.464C468.237 335.397 462.408 342.059 455.735 351.934C451.351 358.344 446.249 364.082 440.563 369.37C438.327 371.788 437.068 373.935 435.501 376.808C431.945 382.996 426.994 386.623 420.251 388.87C410.693 389.683 400.992 389.437 391.794 386.624C386.153 384.867 386.153 384.867 380.5 385.943C379.57 386.501 378.639 387.058 377.68 387.632C376.628 388.251 375.576 388.869 374.491 389.507C373.381 390.184 372.27 390.861 371.126 391.558C369.969 392.25 368.812 392.941 367.655 393.63C365.894 394.681 364.135 395.734 362.38 396.794C358.701 399.018 354.988 401.164 351.235 403.261C350.325 403.778 349.415 404.296 348.478 404.829C346.792 405.787 345.098 406.732 343.395 407.66C339.461 409.945 337.115 411.525 335.384 415.804C332.923 421.57 327.81 423.646 322.501 426.495C320.308 427.723 318.115 428.951 315.923 430.179C314.806 430.795 313.689 431.411 312.538 432.046C307.564 434.807 302.658 437.681 297.751 440.558C296.79 441.118 295.828 441.679 294.838 442.256C286.096 447.357 277.39 452.515 268.688 457.683C267.697 458.272 267.697 458.272 266.685 458.872C259.709 463.016 252.741 467.172 245.786 471.351C237.287 476.457 228.759 481.512 220.23 486.568C213.069 490.814 205.913 495.066 198.778 499.355C193.551 502.496 188.314 505.62 183.067 508.73C182.387 509.133 181.708 509.536 181.007 509.951C178.239 511.591 175.471 513.231 172.702 514.87C170.636 516.093 168.57 517.317 166.505 518.542C165.531 519.119 165.531 519.119 164.538 519.708C161.15 521.721 157.791 523.771 154.466 525.886C149.821 528.753 146.67 529.307 141.251 528.87C120.638 522.303 101.713 505.364 84.6258 492.637C80.6776 489.701 76.7135 486.787 72.7508 483.87C71.183 482.716 69.6152 481.561 68.0476 480.406C67.2658 479.829 66.484 479.253 65.6785 478.66C63.1446 476.792 60.6117 474.923 58.0789 473.054C57.2287 472.427 56.3786 471.8 55.5027 471.154C53.8865 469.961 52.2706 468.769 50.655 467.575C49.55 466.76 49.55 466.76 48.4226 465.929C47.7201 465.41 47.0175 464.89 46.2937 464.355C44.9552 463.382 43.6038 462.427 42.239 461.491C37.416 458.183 34.7996 455.519 33.2508 449.87C32.8552 445.108 33.5668 441.261 36.5008 437.433C40.8971 433.336 44.1095 432.68 50.0906 432.409C55.7665 433.621 60.4037 438.567 64.6883 442.308C65.2881 442.826 65.8879 443.345 66.5059 443.879C68.4241 445.539 70.338 447.204 72.2508 448.87C83.6768 458.833 83.6768 458.833 95.3406 468.515C97.5104 470.271 99.6673 472.039 101.817 473.82C109.129 479.853 116.558 485.682 124.188 491.308C125.341 492.158 125.341 492.158 126.516 493.025C128.007 494.115 129.504 495.197 131.008 496.268C132.556 497.374 134.088 498.502 135.607 499.648C136.377 500.208 137.148 500.767 137.942 501.343C138.626 501.852 139.31 502.362 140.015 502.886C143.151 504.267 144.978 503.762 148.251 502.87C150.926 501.66 150.926 501.66 153.54 500.054C154.549 499.463 155.558 498.872 156.598 498.263C157.68 497.618 158.761 496.973 159.876 496.308C161.027 495.63 162.18 494.954 163.333 494.279C165.137 493.221 166.942 492.163 168.744 491.102C174.632 487.634 180.563 484.245 186.502 480.866C189.441 479.193 192.377 477.516 195.313 475.839C195.893 475.508 196.472 475.177 197.069 474.836C203.14 471.366 209.196 467.869 215.251 464.37C224.236 459.178 233.237 454.014 242.251 448.87C260.806 438.278 279.317 427.611 297.751 416.808C298.358 416.452 298.966 416.096 299.591 415.73C300.772 415.037 301.953 414.345 303.133 413.651C304.809 412.669 306.487 411.691 308.165 410.714C310.123 409.544 312.059 408.336 313.962 407.078C318.102 404.368 321.083 402.624 326.083 402.433C332.995 402.109 338.166 398.404 343.938 394.87C345.088 394.185 346.238 393.501 347.389 392.819C350.688 390.854 353.971 388.867 357.251 386.87C359.608 385.445 361.965 384.021 364.324 382.599C365.574 381.842 366.82 381.08 368.062 380.31C372.037 377.87 372.037 377.87 374.251 377.87C373.818 377.432 373.385 376.994 372.938 376.542C368.548 371.542 367.368 367.709 367.735 361.077C369.437 350.491 374.907 339.007 381.962 330.906C383.509 328.871 383.509 328.871 383.216 326.027C383.26 322.04 384.729 319.627 386.813 316.37C387.4 315.423 387.4 315.423 387.999 314.456C393.555 305.613 399.555 297.05 405.476 288.45C409.475 282.636 413.417 276.795 417.251 270.87C417.915 269.889 418.578 268.908 419.262 267.898C419.836 266.981 420.41 266.065 421.001 265.12C421.491 264.362 421.98 263.604 422.485 262.824C424.564 254.807 420.364 245.499 417.751 237.933C417.236 236.413 417.236 236.413 416.711 234.862C413.483 225.391 410.101 215.973 406.665 206.576C397.82 182.186 400.842 167.392 411.359 144.062C412.195 142.008 412.775 140.032 413.251 137.87C412.426 137.396 411.601 136.922 410.751 136.433C397.771 127.595 394.542 113.827 390.949 99.406C389.957 95.4244 388.915 91.6388 387.251 87.8704C386.57 88.0354 385.89 88.2004 385.188 88.3704C381.742 88.957 378.739 89.1934 375.251 88.8704C368.299 81.8325 367.395 67.3154 367.157 57.7884C367.542 41.6948 374.27 28.3863 385.251 16.8704C408.344 -4.83887 440.44 -5.03988 465.937 13.0681Z" fill="#71802E"/>
<path d="M465.937 13.0681C473.271 18.7436 479.387 25.576 481.25 34.8704C481.595 40.3024 481.647 43.3862 478.25 47.8704C477.92 48.2004 477.59 48.5304 477.25 48.8704C477.177 51.5669 477.158 54.2373 477.188 56.9329C477.192 57.6915 477.197 58.4501 477.201 59.2317C477.213 61.1113 477.231 62.9909 477.25 64.8704C479.23 65.2004 481.21 65.5304 483.25 65.8704C483.25 66.5304 483.25 67.1904 483.25 67.8704C484.041 67.4923 484.831 67.1142 485.646 66.7246C488.63 65.3028 491.618 63.8893 494.609 62.481C495.893 61.8742 497.176 61.2642 498.457 60.6509C524.553 48.1693 548.247 49.598 575.25 58.8704C596.555 66.7569 616.258 78.1191 635.758 89.6399C639.593 91.9057 643.449 94.1206 647.342 96.2859C658.076 102.271 667.991 109.433 676.574 118.261C679.447 121.062 682.505 123.503 685.688 125.933C695.756 133.734 705.359 142.064 714.773 150.64C716.139 151.87 717.511 153.093 718.909 154.286C724.643 159.199 730.015 164.449 735.351 169.786C736.874 171.307 738.406 172.82 739.938 174.333C754.829 189.132 754.829 189.132 755.25 195.87C753.908 196.866 752.55 197.841 751.188 198.808C750.433 199.353 749.679 199.898 748.902 200.46C746.25 201.87 746.25 201.87 743.109 202.294C738.808 202.936 734.958 204.106 730.852 205.495C730.058 205.761 729.265 206.027 728.448 206.301C726.771 206.866 725.095 207.434 723.42 208.006C720.922 208.854 718.416 209.681 715.91 210.507C707.604 213.297 699.66 216.409 691.898 220.495C691.214 220.855 690.529 221.215 689.823 221.586C683.243 225.191 678.335 228.85 675.062 235.808C663.64 257.979 644.155 275.379 621.25 284.87C620.38 285.251 619.51 285.631 618.613 286.023C615.443 287.16 612.588 287.001 609.25 286.87C609.25 285.22 609.25 283.57 609.25 281.87C608.653 281.928 608.056 281.986 607.441 282.046C586.982 283.11 567.579 270.952 551.25 259.87C539.574 268.216 539.574 268.216 532.629 280.296C532.524 281.063 532.42 281.83 532.312 282.62C531.915 285.358 531.62 286.543 529.518 288.402C528.782 288.86 528.047 289.317 527.289 289.788C526.473 290.3 525.657 290.812 524.816 291.34C520.761 293.759 516.681 296.123 512.562 298.433C504.972 302.728 497.434 307.101 489.938 311.558C483.169 315.577 476.373 319.525 469.496 323.354C463.472 326.719 457.518 330.199 451.562 333.683C450.548 334.274 449.533 334.865 448.488 335.474C443.382 338.448 438.29 341.44 433.219 344.472C431.334 345.584 429.448 346.696 427.562 347.808C426.696 348.334 425.83 348.861 424.937 349.403C424.129 349.876 423.321 350.348 422.488 350.835C421.787 351.254 421.087 351.673 420.365 352.105C417.573 353.116 416.06 352.762 413.25 351.87C411.205 350.722 411.205 350.722 409.211 349.281C408.1 348.482 408.1 348.482 406.967 347.668C406.194 347.095 405.421 346.523 404.625 345.933C403.432 345.056 403.432 345.056 402.215 344.161C385.146 331.459 385.146 331.459 383.254 325.991C383.249 322.001 384.631 319.608 386.75 316.37C387.344 315.423 387.344 315.423 387.949 314.456C393.551 305.633 399.55 297.057 405.476 288.45C409.475 282.636 413.417 276.795 417.25 270.87C417.914 269.889 418.578 268.908 419.262 267.898C419.835 266.981 420.409 266.065 421 265.12C421.49 264.362 421.98 263.604 422.484 262.824C424.563 254.807 420.363 245.499 417.75 237.933C417.407 236.919 417.064 235.906 416.71 234.862C413.482 225.391 410.101 215.973 406.664 206.576C397.819 182.186 400.841 167.392 411.358 144.062C412.194 142.008 412.774 140.032 413.25 137.87C412.425 137.396 411.6 136.922 410.75 136.433C397.77 127.595 394.542 113.827 390.948 99.406C389.956 95.4244 388.914 91.6388 387.25 87.8704C386.569 88.0354 385.889 88.2004 385.188 88.3704C381.741 88.957 378.738 89.1934 375.25 88.8704C368.298 81.8325 367.394 67.3154 367.156 57.7884C367.541 41.6948 374.269 28.3863 385.25 16.8704C408.344 -4.83887 440.439 -5.03988 465.937 13.0681Z" fill="#A4B84A"/>
<path d="M734.25 277.87C735.24 278.2 736.23 278.53 737.25 278.87C738.118 283.409 738.97 287.951 739.812 292.495C739.944 293.206 740.076 293.917 740.212 294.649C743.121 310.447 745.504 326.319 747.801 342.217C749.209 359.877 749.209 359.877 758.25 373.87C761.177 375.673 761.177 375.673 764.437 377.183C765.04 377.476 765.642 377.77 766.263 378.073C770.36 380.045 774.518 381.859 778.696 383.653C796.123 391.175 811.743 401.324 827.411 411.955C830.426 413.989 833.457 415.999 836.492 418.003C857.174 431.669 857.174 431.669 866.25 438.87C867.352 439.692 867.352 439.692 868.477 440.531C871.465 442.858 873.094 444.269 874.062 447.995C874.124 448.944 874.186 449.893 874.25 450.87C875.714 455.017 878.866 457.524 882.062 460.37C883.232 461.432 884.401 462.493 885.57 463.554C886.476 464.37 886.476 464.37 887.399 465.202C890.426 467.931 893.434 470.679 896.437 473.433C897.266 474.183 897.266 474.183 898.111 474.948C900.521 477.155 902.426 479.135 904.25 481.87C904.086 484.21 904.086 484.21 903.625 486.808C903.025 490.918 903.025 490.918 905.062 494.495C907.102 496.048 907.102 496.048 909.25 495.87C910.828 494.313 910.828 494.313 912.375 492.37C913.183 491.396 913.183 491.396 914.008 490.402C914.623 489.644 914.623 489.644 915.25 488.87C918.411 490.24 919.243 490.859 921.25 493.87C921.586 495.886 921.586 495.886 921.625 498.12C921.653 498.847 921.682 499.574 921.711 500.323C919.009 515.255 899.186 528.558 888.234 537.421C884.862 540.188 881.554 543.022 878.25 545.87C845.671 573.897 845.671 573.897 834.437 575.37C830.903 574.816 829.059 574.072 826.25 571.87C825.693 571.025 825.136 570.179 824.562 569.308C821.898 566.499 820.953 566.44 817.25 565.87C813.513 565.292 812.527 565.134 809.687 562.433C806.527 556.799 806.578 551.182 807.25 544.87C809.137 539.21 812.965 534.945 816.75 530.433C823.558 522.301 826.85 514.135 829.25 503.87C828.219 503.938 827.187 504.005 826.125 504.074C821.776 503.845 819.889 502.923 816.25 500.609C815.701 500.267 815.152 499.925 814.587 499.572C813.411 498.838 812.239 498.096 811.072 497.348C807.96 495.357 804.815 493.42 801.676 491.472C801.044 491.078 800.413 490.684 799.763 490.278C783.117 479.912 765.742 470.715 748.25 461.87C747.533 461.506 746.816 461.142 746.077 460.767C736.35 455.879 726.305 451.864 716.187 447.87C685.544 435.762 685.544 435.762 677.25 426.87C676.167 425.726 676.167 425.726 675.062 424.558C668.533 414.877 665.484 403.966 662.25 392.87C662.053 392.197 661.855 391.524 661.652 390.83C660.272 386.118 658.911 381.401 657.568 376.677C657.109 375.068 656.647 373.459 656.181 371.852C650.615 352.595 650.615 352.595 652.25 347.87C654.6 344.513 657.407 341.861 660.437 339.12C661.206 338.392 661.975 337.664 662.768 336.913C664.258 335.503 665.757 334.103 667.266 332.712C668.859 331.233 670.408 329.707 671.941 328.167C680.531 319.622 690.398 312.378 700.035 305.073C709.123 298.185 718.049 291.096 726.848 283.843C728.037 282.867 728.037 282.867 729.25 281.87C730.547 280.724 730.547 280.724 731.871 279.554C732.656 278.998 733.441 278.443 734.25 277.87Z" fill="#5E6E24"/>
<path d="M551.251 258.87C553.184 259.952 553.184 259.952 555.688 261.683C571.995 272.32 589.369 281.398 609.251 281.87C609.368 287.263 607.83 289.781 604.251 293.808C602.606 295.517 600.94 297.205 599.251 298.87C598.51 299.61 597.768 300.35 597.005 301.113C587.667 309.934 578.182 313.438 565.497 313.234C559.521 312.917 554.49 310.635 549.251 307.87C548.591 307.54 547.931 307.21 547.251 306.87C547.251 306.21 547.251 305.55 547.251 304.87C546.549 304.829 545.848 304.788 545.126 304.745C541.54 303.654 540.191 301.905 537.876 299.05C536.283 297.642 536.283 297.642 534.012 297.933C530.398 299.16 527.297 301.009 524.063 302.995C522.546 303.908 521.028 304.82 519.509 305.73C518.675 306.231 517.841 306.731 516.982 307.247C512.938 309.65 508.858 311.988 504.778 314.329C500.327 316.883 495.886 319.454 491.445 322.026C489.381 323.218 487.314 324.405 485.244 325.586C482.509 327.146 479.785 328.725 477.063 330.308C476.269 330.755 475.474 331.202 474.656 331.663C466.802 336.279 461.817 342.73 456.876 350.245C452.147 357.275 446.776 363.591 440.563 369.37C438.327 371.788 437.068 373.935 435.501 376.808C431.945 382.996 426.994 386.623 420.251 388.87C410.693 389.683 400.992 389.437 391.794 386.624C386.153 384.867 386.153 384.867 380.5 385.943C379.104 386.779 379.104 386.779 377.68 387.632C376.628 388.251 375.576 388.869 374.491 389.507C373.381 390.184 372.27 390.861 371.126 391.558C369.969 392.25 368.812 392.941 367.655 393.63C365.894 394.681 364.135 395.734 362.38 396.794C358.701 399.018 354.988 401.164 351.235 403.261C350.325 403.778 349.415 404.296 348.478 404.829C346.792 405.787 345.098 406.732 343.395 407.66C339.461 409.945 337.115 411.525 335.384 415.804C332.923 421.57 327.81 423.646 322.501 426.495C320.308 427.723 318.115 428.951 315.923 430.179C314.806 430.795 313.689 431.411 312.538 432.046C307.564 434.807 302.658 437.68 297.751 440.558C296.79 441.118 295.828 441.679 294.838 442.256C286.096 447.357 277.39 452.515 268.688 457.683C268.027 458.075 267.366 458.468 266.685 458.872C259.709 463.016 252.741 467.172 245.786 471.351C237.287 476.457 228.759 481.512 220.23 486.568C213.069 490.814 205.913 495.066 198.778 499.355C193.551 502.496 188.314 505.62 183.067 508.73C182.387 509.133 181.708 509.536 181.007 509.951C178.239 511.591 175.471 513.231 172.702 514.87C170.636 516.093 168.57 517.317 166.505 518.542C165.856 518.927 165.207 519.311 164.538 519.708C161.15 521.721 157.791 523.771 154.466 525.886C149.821 528.753 146.67 529.307 141.251 528.87C120.638 522.303 101.713 505.364 84.6258 492.636C80.6776 489.701 76.7135 486.787 72.7508 483.87C71.183 482.716 69.6152 481.561 68.0476 480.406C67.2658 479.829 66.484 479.253 65.6785 478.66C63.1446 476.792 60.6117 474.923 58.0789 473.054C57.2287 472.427 56.3786 471.8 55.5027 471.154C53.8865 469.961 52.2706 468.769 50.655 467.575C49.55 466.76 49.55 466.76 48.4226 465.929C47.7201 465.41 47.0175 464.89 46.2937 464.355C44.9552 463.382 43.6038 462.427 42.239 461.491C37.416 458.183 34.7996 455.519 33.2508 449.87C32.8552 445.108 33.5668 441.261 36.5008 437.433C40.8971 433.336 44.1095 432.68 50.0906 432.409C55.7665 433.621 60.4037 438.567 64.6883 442.308C65.2881 442.826 65.8879 443.345 66.5059 443.879C68.4241 445.539 70.338 447.204 72.2508 448.87C83.6768 458.833 83.6768 458.833 95.3406 468.515C97.5104 470.271 99.6673 472.039 101.817 473.82C109.129 479.853 116.558 485.682 124.188 491.308C124.957 491.875 125.725 492.441 126.516 493.025C128.007 494.115 129.504 495.197 131.008 496.268C132.556 497.374 134.088 498.502 135.607 499.648C136.377 500.207 137.148 500.767 137.942 501.343C138.626 501.852 139.31 502.362 140.015 502.886C143.151 504.267 144.978 503.762 148.251 502.87C150.926 501.66 150.926 501.66 153.54 500.054C154.549 499.463 155.558 498.872 156.598 498.263C157.68 497.618 158.761 496.973 159.876 496.308C161.027 495.63 162.18 494.954 163.333 494.279C165.137 493.221 166.942 492.163 168.744 491.102C174.632 487.634 180.563 484.245 186.502 480.866C189.441 479.193 192.377 477.516 195.313 475.839C195.893 475.508 196.472 475.177 197.069 474.836C203.14 471.366 209.196 467.869 215.251 464.37C224.236 459.178 233.237 454.014 242.251 448.87C260.806 438.278 279.317 427.611 297.751 416.808C298.358 416.452 298.966 416.096 299.591 415.73C300.772 415.037 301.953 414.345 303.133 413.651C304.809 412.669 306.487 411.691 308.165 410.714C310.123 409.544 312.059 408.336 313.962 407.078C318.102 404.368 321.083 402.624 326.083 402.433C332.995 402.109 338.166 398.404 343.938 394.87C345.088 394.185 346.238 393.501 347.389 392.819C350.688 390.854 353.971 388.867 357.251 386.87C359.608 385.445 361.965 384.021 364.324 382.599C365.574 381.842 366.82 381.08 368.062 380.31C372.037 377.87 372.037 377.87 374.251 377.87C373.818 377.432 373.385 376.994 372.938 376.542C368.548 371.542 367.368 367.709 367.735 361.077C369.623 349.337 376.025 338.177 383.251 328.87C387.12 330.495 389.964 333.121 393.063 335.87C397.935 340.075 402.945 343.977 408.251 347.62C408.873 348.063 409.496 348.505 410.137 348.96C413.589 351.315 413.589 351.315 417.629 351.655C420.561 350.777 422.873 349.57 425.512 348.019C426.536 347.422 427.56 346.825 428.615 346.21C430.26 345.238 430.26 345.238 431.938 344.245C433.091 343.571 434.244 342.897 435.398 342.224C437.804 340.819 440.207 339.412 442.61 338.002C448.389 334.614 454.196 331.276 460.001 327.933C461.096 327.301 462.191 326.669 463.32 326.018C468.809 322.85 474.305 319.693 479.813 316.558C485.305 313.426 490.758 310.233 496.203 307.02C503.888 302.486 511.601 297.999 519.317 293.516C520.303 292.942 521.289 292.368 522.305 291.777C523.187 291.264 524.069 290.752 524.977 290.224C526.767 289.158 528.517 288.026 530.251 286.87C530.755 285.011 530.755 285.011 530.938 282.87C532.853 273.092 541.765 265.819 549.251 259.87C549.911 259.54 550.571 259.21 551.251 258.87Z" fill="#454857"/>
<path d="M522.25 137.87C531.062 140.183 539.782 142.776 548.484 145.467C550.037 145.944 551.591 146.416 553.146 146.883C577.431 154.172 577.431 154.172 583.25 163.87C584.133 171.239 581.673 176.192 578.375 182.683C577.878 183.693 577.38 184.702 576.868 185.743C573.342 192.852 569.635 199.862 565.895 206.86C552.734 229.718 552.734 229.718 549.25 254.87C549.875 256.553 550.534 258.224 551.25 259.87C550.306 260.563 550.306 260.563 549.344 261.269C537.87 269.931 537.87 269.931 532.312 282.62C531.915 285.358 531.62 286.543 529.518 288.402C528.782 288.86 528.047 289.317 527.289 289.788C526.473 290.3 525.657 290.812 524.816 291.34C520.761 293.759 516.681 296.123 512.562 298.433C506.688 301.747 500.842 305.095 495.062 308.573C494.059 309.176 493.056 309.779 492.022 310.399C490.072 311.575 488.125 312.756 486.183 313.945C484.865 314.737 484.865 314.737 483.52 315.546C482.742 316.02 481.964 316.493 481.163 316.981C480.532 317.274 479.901 317.568 479.25 317.87C478.59 317.54 477.93 317.21 477.25 316.87C477.643 316.197 478.035 315.523 478.44 314.829C492.533 291.241 492.533 291.241 499.25 264.87C499.414 263.617 499.577 262.364 499.746 261.073C501.097 246.377 494.654 234.71 488.25 221.87C487.595 220.537 486.942 219.204 486.289 217.869C479.391 203.015 479.391 203.015 471.25 188.87C471.452 186.282 471.94 185.181 473.778 183.337C474.431 182.855 475.085 182.372 475.758 181.874C476.49 181.322 477.222 180.77 477.977 180.201C478.768 179.618 479.56 179.034 480.375 178.433C496.098 166.525 511.016 154.246 522.25 137.87Z" fill="#E5E6E8"/>
<path d="M589.25 505.87C597.525 547.853 597.525 547.853 592.906 554.929C591.372 556.264 589.812 557.569 588.25 558.87C587.714 561.721 587.948 563.949 588.25 566.87C590.203 566.35 592.156 565.829 594.109 565.308C596.25 564.87 596.25 564.87 600.25 564.87C601.586 571.067 601.586 571.067 600.125 574.558C594.496 581.5 587.565 583.142 578.896 584.142C569.756 584.983 560.642 585.052 551.473 585.073C550.639 585.076 549.806 585.079 548.947 585.082C544.543 585.097 540.138 585.106 535.734 585.111C531.224 585.116 526.715 585.14 522.206 585.169C518.699 585.187 515.193 585.192 511.686 585.194C510.025 585.197 508.364 585.205 506.703 585.218C484.225 585.385 484.225 585.385 475.062 579.995C472.605 575.758 472.402 571.701 471.852 566.878C471.49 563.625 471.49 563.625 468.625 561.245C465.791 558.411 465.795 557.459 465.625 553.558C465.9 547.9 467.48 544.079 471.25 539.87C477.734 534.418 485.412 532.991 493.562 531.558C503.712 529.603 513.086 525.527 520.25 517.87C520.91 516.88 521.57 515.89 522.25 514.87C523.917 513.87 525.583 512.87 527.25 511.87C527.91 510.88 528.57 509.89 529.25 508.87C530.143 509.03 531.037 509.19 531.957 509.355C551.818 512.163 570.082 505.87 589.25 505.87Z" fill="#424554"/>
<path d="M551.25 258.87C553.184 259.952 553.184 259.952 555.688 261.683C571.994 272.32 589.368 281.398 609.25 281.87C609.367 287.263 607.829 289.781 604.25 293.808C602.606 295.517 600.939 297.205 599.25 298.87C598.509 299.61 597.768 300.35 597.004 301.113C587.667 309.934 578.181 313.438 565.496 313.234C559.52 312.917 554.489 310.635 549.25 307.87C548.59 307.54 547.93 307.21 547.25 306.87C547.25 306.21 547.25 305.55 547.25 304.87C546.549 304.829 545.848 304.788 545.125 304.745C541.54 303.654 540.19 301.905 537.875 299.05C536.283 297.642 536.283 297.642 534.012 297.933C530.398 299.16 527.296 301.009 524.062 302.995C522.545 303.908 521.027 304.82 519.508 305.73C518.674 306.231 517.84 306.731 516.981 307.247C512.938 309.65 508.857 311.988 504.777 314.329C500.326 316.883 495.885 319.454 491.444 322.026C489.38 323.218 487.313 324.405 485.243 325.586C482.508 327.146 479.785 328.725 477.062 330.308C475.871 330.979 475.871 330.979 474.655 331.663C466.802 336.279 461.816 342.73 456.875 350.245C452.146 357.275 446.775 363.591 440.562 369.37C438.326 371.788 437.067 373.935 435.5 376.808C431.944 382.996 426.993 386.623 420.25 388.87C410.692 389.683 400.991 389.437 391.793 386.624C386.153 384.867 386.153 384.867 380.5 385.943C379.104 386.779 379.104 386.779 377.68 387.632C376.627 388.251 375.575 388.87 374.49 389.508C372.824 390.523 372.824 390.523 371.125 391.558C369.97 392.246 368.815 392.932 367.658 393.617C365.314 395.01 362.976 396.412 360.644 397.823C357.494 399.723 354.332 401.602 351.164 403.472C346.029 406.514 346.029 406.514 340.906 409.577C340.244 409.974 339.582 410.371 338.9 410.78C337.09 411.897 337.09 411.897 335.25 413.87C335.002 412.798 334.755 411.725 334.5 410.62C333.225 406.795 332.132 405.518 329.25 402.87C329.842 402.539 330.434 402.208 331.044 401.867C342.854 395.255 354.6 388.574 366.128 381.479C366.907 381.003 367.686 380.528 368.488 380.038C369.169 379.618 369.85 379.198 370.552 378.766C372.25 377.87 372.25 377.87 374.25 377.87C373.817 377.432 373.384 376.994 372.938 376.542C368.547 371.542 367.367 367.709 367.734 361.077C369.622 349.337 376.024 338.177 383.25 328.87C387.119 330.495 389.963 333.121 393.062 335.87C397.935 340.075 402.944 343.977 408.25 347.62C408.872 348.063 409.495 348.505 410.136 348.96C413.588 351.315 413.588 351.315 417.628 351.655C420.561 350.777 422.873 349.57 425.512 348.019C427.047 347.124 427.047 347.124 428.614 346.21C429.711 345.562 430.808 344.913 431.938 344.245C433.09 343.571 434.244 342.897 435.397 342.224C437.803 340.819 440.207 339.412 442.609 338.002C448.388 334.614 454.195 331.276 460 327.933C461.095 327.301 462.19 326.669 463.319 326.018C468.808 322.85 474.304 319.693 479.812 316.558C485.304 313.426 490.758 310.233 496.202 307.02C503.887 302.486 511.601 297.999 519.316 293.516C520.302 292.942 521.289 292.368 522.305 291.777C523.186 291.264 524.068 290.752 524.976 290.224C526.766 289.158 528.517 288.026 530.25 286.87C530.754 285.011 530.754 285.011 530.938 282.87C532.852 273.092 541.764 265.819 549.25 259.87C549.91 259.54 550.57 259.21 551.25 258.87Z" fill="#585B6C"/>
<path d="M465.937 13.0681C473.271 18.7436 479.387 25.576 481.25 34.8704C481.595 40.3024 481.647 43.3862 478.25 47.8704C477.92 48.2004 477.59 48.5304 477.25 48.8704C477.326 52.368 477.426 55.857 477.641 59.3489C477.756 63.496 477.594 65.9754 474.816 69.179C473.969 70.0671 473.123 70.9553 472.25 71.8704C471.287 73.8863 471.287 73.8863 470.938 75.7454C470.711 76.7766 470.484 77.8079 470.25 78.8704C466.424 78.328 464.182 77.384 461.184 74.9641C460.451 74.3853 459.718 73.8066 458.963 73.2102C458.212 72.6031 457.461 71.9959 456.688 71.3704C455.191 70.1665 453.69 68.9683 452.184 67.7766C451.524 67.2436 450.865 66.7106 450.185 66.1614C448.066 64.7473 446.788 64.1113 444.25 63.8704C441.493 64.5516 441.493 64.5516 438.535 65.7571C437.387 66.1955 436.239 66.6338 435.056 67.0855C433.808 67.5758 432.56 68.0666 431.312 68.5579C430.028 69.0551 428.743 69.5517 427.457 70.0479C405.415 78.2068 405.415 78.2068 384.115 87.999C381.074 89.4199 378.537 89.229 375.25 88.8704C368.298 81.8327 367.394 67.3155 367.156 57.7884C367.541 41.6948 374.269 28.3863 385.25 16.8704C408.344 -4.83887 440.439 -5.03988 465.937 13.0681Z" fill="#525568"/>
<path d="M874.004 453.976C877.352 455.309 879.635 457.718 882.188 460.183C883.338 461.272 884.489 462.36 885.641 463.449C886.232 464.011 886.823 464.574 887.432 465.154C889.245 466.865 891.078 468.551 892.922 470.23C893.511 470.767 894.1 471.304 894.707 471.857C895.841 472.889 896.975 473.919 898.111 474.948C900.52 477.155 902.427 479.135 904.25 481.87C904.086 484.21 904.086 484.21 903.625 486.808C903.025 490.919 903.025 490.919 905.063 494.495C907.102 496.048 907.102 496.048 909.25 495.87C910.829 494.313 910.829 494.313 912.375 492.37C912.914 491.721 913.453 491.071 914.008 490.402C914.418 489.896 914.828 489.391 915.25 488.87C918.411 490.24 919.243 490.86 921.25 493.87C921.586 495.886 921.586 495.886 921.625 498.12C921.654 498.847 921.682 499.575 921.711 500.324C919.009 515.255 899.186 528.558 888.235 537.421C884.863 540.189 881.554 543.022 878.25 545.87C845.671 573.897 845.671 573.897 834.438 575.37C830.903 574.816 829.059 574.072 826.25 571.87C825.693 571.025 825.136 570.179 824.563 569.308C821.898 566.5 820.954 566.44 817.25 565.87C813.513 565.293 812.528 565.134 809.688 562.433C806.527 556.799 806.579 551.182 807.25 544.87C809.137 539.21 812.965 534.945 816.75 530.433C822.275 523.834 825.727 517.693 827.438 509.245C828.842 503.574 831.651 501.24 836.387 498.015C843.738 492.509 849.329 485.527 854.75 478.183C855.399 477.312 856.049 476.442 856.718 475.545C861.114 469.587 865.14 463.524 868.832 457.109C870.379 454.667 871.07 453.799 874.004 453.976Z" fill="#424554"/>
<path d="M676.25 119.87C690.452 126.19 703.388 140.269 714.773 150.64C716.139 151.87 717.511 153.093 718.909 154.286C724.643 159.199 730.015 164.449 735.351 169.786C736.874 171.307 738.406 172.82 739.938 174.333C754.829 189.132 754.829 189.132 755.25 195.87C753.908 196.866 752.55 197.841 751.188 198.808C750.433 199.353 749.679 199.898 748.902 200.46C746.25 201.87 746.25 201.87 743.109 202.294C738.808 202.936 734.958 204.106 730.852 205.495C730.058 205.761 729.265 206.027 728.448 206.301C726.771 206.866 725.095 207.434 723.42 208.006C720.922 208.854 718.416 209.681 715.91 210.507C707.604 213.297 699.66 216.409 691.898 220.495C691.214 220.855 690.529 221.215 689.823 221.586C683.243 225.191 678.335 228.85 675.062 235.808C663.64 257.979 644.155 275.379 621.25 284.87C619.945 285.441 619.945 285.441 618.613 286.023C615.443 287.16 612.588 287.001 609.25 286.87C609.25 285.22 609.25 283.57 609.25 281.87C610.075 281.54 610.9 281.21 611.75 280.87C646.629 262.942 666.714 188.01 678.078 152.89C681.616 141.298 681.133 130.944 676.25 119.87Z" fill="#E5E6E7"/>
<path d="M449.25 64.8705C451.288 66.2746 453.287 67.738 455.25 69.2455C456.261 70.0164 457.271 70.7872 458.312 71.5814C460.196 73.0494 462.054 74.5522 463.875 76.0971C466.119 77.7728 467.518 78.4657 470.25 78.8705C470.38 77.983 470.38 77.983 470.512 77.0775C471.254 72.9047 471.985 70.2391 474.5 66.7455C477.25 64.8705 477.25 64.8705 480.562 65.058C481.449 65.3261 482.336 65.5942 483.25 65.8705C483.25 66.5305 483.25 67.1905 483.25 67.8705C484.24 68.3655 484.24 68.3655 485.25 68.8705C485.359 71.7049 485.438 74.535 485.5 77.3705C485.534 78.162 485.567 78.9535 485.602 79.7689C485.697 85.5778 484.626 90.0572 481.25 94.8705C480.26 95.3655 480.26 95.3655 479.25 95.8705C479.159 97.5576 479.081 99.2466 479.076 100.936C478.981 115.654 472.039 126.149 462.25 136.87C461.578 137.623 460.907 138.376 460.215 139.152C454.7 145.028 448.751 149.959 440.438 150.558C432.739 150.162 425.898 145.78 419.688 141.495C417.322 139.593 417.322 139.593 414.25 139.87C412.805 138.574 412.805 138.574 411.25 136.87C409.962 135.782 408.671 134.699 407.375 133.62C396.322 123.84 393.674 110.156 390.242 96.308C389.509 93.7685 388.738 91.5547 387.688 89.1556C387.213 88.0715 386.739 86.9874 386.25 85.8705C392.258 83.394 398.268 80.9227 404.28 78.4547C406.319 77.617 408.357 76.7782 410.395 75.9381C417 73.2159 423.618 70.5267 430.25 67.8705C431.004 67.565 431.757 67.2594 432.534 66.9446C434.472 66.1653 436.416 65.4095 438.367 64.6635C439.402 64.2602 440.437 63.857 441.503 63.4415C444.85 62.7458 446.271 63.2774 449.25 64.8705Z" fill="#FDB884"/>
<path d="M665.25 109.87C671.987 112.219 675.354 116.839 678.562 123.058C683.515 133.317 681.459 144.381 678.25 154.87C677.894 156.069 677.538 157.268 677.172 158.503C669.711 182.623 659.13 206.135 648.25 228.87C647.886 229.632 647.521 230.394 647.146 231.179C625.081 276.986 625.081 276.986 612.344 281.554C601.344 283.216 591.516 280.66 581.25 276.87C580.59 276.21 579.93 275.55 579.25 274.87C579.94 274.784 580.629 274.698 581.34 274.609C593.322 272.817 602.209 267.221 609.534 257.61C610.018 256.953 610.502 256.297 611 255.62C611.522 254.913 612.043 254.207 612.581 253.478C623.519 238.4 631.498 221.707 639.69 205.044C641.34 201.694 643.015 198.361 644.742 195.05C658.623 168.424 665.868 139.859 665.25 109.87Z" fill="#91A93A"/>
<path d="M587.25 556.87C588.24 557.365 588.24 557.365 589.25 557.87C588.92 558.2 588.59 558.53 588.25 558.87C588.179 560.223 588.166 561.579 588.188 562.933C588.208 564.232 588.229 565.532 588.25 566.87C590.203 566.35 592.156 565.829 594.109 565.308C596.25 564.87 596.25 564.87 600.25 564.87C601.586 571.067 601.586 571.067 600.125 574.558C594.496 581.5 587.565 583.142 578.896 584.142C569.756 584.983 560.642 585.052 551.473 585.073C550.223 585.078 550.223 585.078 548.947 585.082C544.543 585.097 540.138 585.106 535.734 585.111C531.224 585.116 526.715 585.14 522.206 585.169C518.699 585.187 515.193 585.192 511.686 585.194C510.025 585.197 508.364 585.205 506.703 585.218C484.225 585.385 484.225 585.385 475.062 579.995C472.16 574.991 471.808 569.563 471.25 563.87C474.761 562.7 476.485 563.432 479.958 564.372C484.013 565.253 488.054 565.164 492.188 565.12C493.105 565.114 494.022 565.108 494.967 565.102C516.689 564.813 516.689 564.813 537.25 558.87C540.176 558.771 543.074 558.731 546 558.745C546.799 558.741 547.598 558.738 548.422 558.734C552.831 558.741 556.898 559.119 561.25 559.87C564.035 560.012 566.778 560.108 569.562 560.12C570.312 560.124 571.062 560.128 571.834 560.132C577.518 560.073 581.957 559.006 587.25 556.87Z" fill="#575A6C"/>
<path d="M747.25 201.87C750.027 206.658 750.68 210.278 750.25 215.87C749.92 216.86 749.59 217.85 749.25 218.87C748.069 219 748.069 219 746.863 219.132C717.232 222.954 693.547 242.979 673.492 263.788C656.097 281.758 638.004 293.428 612.238 293.929C609.575 293.932 606.913 293.915 604.25 293.87C605.57 291.23 606.89 288.59 608.25 285.87C609.409 285.934 610.568 285.997 611.762 286.062C616.423 286.055 619.888 284.771 624.062 282.808C624.758 282.489 625.454 282.17 626.171 281.842C647.609 271.792 664.311 254.102 675.57 233.449C683.889 218.441 706.046 212.925 721.342 207.733C723.912 206.858 726.473 205.96 729.035 205.062C730.682 204.497 732.329 203.933 733.977 203.37C735.114 202.969 735.114 202.969 736.275 202.56C740.232 201.238 743.281 200.258 747.25 201.87Z" fill="#647427"/>
<path d="M551.25 258.87C553.183 259.952 553.183 259.952 555.687 261.683C571.994 272.32 589.368 281.398 609.25 281.87C609.367 287.263 607.829 289.781 604.25 293.808C602.605 295.517 600.939 297.205 599.25 298.87C598.509 299.61 597.767 300.35 597.004 301.113C587.666 309.934 578.181 313.438 565.496 313.234C559.52 312.917 554.489 310.635 549.25 307.87C548.59 307.54 547.93 307.21 547.25 306.87C547.25 306.21 547.25 305.55 547.25 304.87C546.549 304.829 545.847 304.788 545.125 304.745C541.195 303.549 538.652 301.189 536.25 297.87C536.25 296.88 536.25 295.89 536.25 294.87C535.59 294.87 534.93 294.87 534.25 294.87C531.81 289.991 529.777 285.368 531.25 279.87C535.622 271.873 542.966 263.012 551.25 258.87Z" fill="#414452"/>
<path d="M915.25 488.87C919.25 490.87 919.25 490.87 921.25 493.87C921.586 495.886 921.586 495.886 921.625 498.12C921.653 498.847 921.682 499.574 921.711 500.323C919.009 515.255 899.186 528.558 888.234 537.421C884.862 540.188 881.554 543.022 878.25 545.87C845.671 573.897 845.671 573.897 834.438 575.37C828.403 574.424 825.864 571.568 822.25 566.87C821.26 566.21 820.27 565.55 819.25 564.87C820.89 564.375 820.89 564.375 822.562 563.87C839.227 557.472 853.204 541.02 863.25 526.87C868.341 520.229 874.149 515.585 881.062 510.995C893.715 502.62 893.715 502.62 901.25 489.87C902.013 490.675 902.776 491.479 903.562 492.308C906.044 495.038 906.044 495.038 909.25 495.87C911.23 493.56 913.21 491.25 915.25 488.87Z" fill="#585B6D"/>
<path d="M476.25 198.87C479.013 201.312 480.459 203.901 482.105 207.183C482.642 208.249 483.179 209.315 483.732 210.413C486.052 215.116 488.364 219.823 490.644 224.546C491.631 226.59 492.628 228.63 493.638 230.663C501.799 247.178 502.496 262.056 497.25 279.87C493.438 290.57 487.924 300.28 482.162 310.041C481.656 310.9 481.15 311.759 480.629 312.644C480.171 313.411 479.713 314.179 479.24 314.969C478.096 316.809 478.096 316.809 478.25 318.87C477.725 319.115 477.201 319.36 476.66 319.613C470.096 322.78 463.859 326.402 457.6 330.123C451.888 333.514 446.117 336.753 440.25 339.87C441.768 335.506 444.09 331.901 446.688 328.12C447.595 326.779 448.501 325.436 449.406 324.093C449.875 323.398 450.345 322.704 450.828 321.988C476.744 288.184 476.744 288.184 488.25 249.87C487.349 245.347 486.259 240.883 485.107 236.419C484.571 234.34 484.051 232.257 483.533 230.173C481.457 221.934 479.006 213.948 476.094 205.964C475.28 202.981 475.117 201.686 476.25 198.87Z" fill="#92A93A"/>
<path d="M500.25 248.87C509.019 251.008 517.305 254.046 525.688 257.37C526.952 257.862 528.217 258.353 529.482 258.843C531.284 259.553 531.284 259.553 533.121 260.277C534.203 260.703 535.285 261.129 536.4 261.568C539.015 262.763 541.044 264.045 543.25 265.87C542.436 266.758 542.436 266.758 541.605 267.663C540.89 268.454 540.175 269.244 539.438 270.058C538.376 271.224 538.376 271.224 537.293 272.413C534.276 276.041 532.299 278.521 532.125 283.308C531.121 287.394 530.682 287.612 527.301 289.745C526.483 290.263 525.665 290.782 524.822 291.315C520.775 293.762 516.687 296.12 512.562 298.433C506.688 301.747 500.842 305.095 495.062 308.573C493.558 309.477 493.558 309.477 492.022 310.399C490.072 311.575 488.125 312.756 486.183 313.945C485.304 314.473 484.425 315.002 483.52 315.546C482.742 316.02 481.964 316.493 481.163 316.981C480.532 317.274 479.901 317.568 479.25 317.87C478.59 317.54 477.93 317.21 477.25 316.87C477.839 315.86 477.839 315.86 478.44 314.829C491.254 292.733 499.031 274.443 500.25 248.87Z" fill="#FDFDFD"/>
<path d="M57.8118 355.808C61.4271 358.867 62.6559 362.212 63.2493 366.87C61.7179 372.76 57.084 376.478 52.2493 379.87C38.5808 387.753 25.1172 391.742 9.24932 390.87C8.25932 390.54 7.26932 390.21 6.24932 389.87C5.58932 390.53 4.92932 391.19 4.24932 391.87C-0.75042 379.811 -0.75042 379.811 1.24932 374.87C13.7963 360.232 38.7992 350.805 57.8118 355.808Z" fill="#55586A"/>
<path d="M39.2504 434.87C40.5704 435.2 41.8904 435.53 43.2504 435.87C43.1808 436.511 43.1112 437.152 43.0395 437.812C42.765 442.197 42.5706 445.805 45.3754 449.37C49.4479 453.443 54.2973 456.605 59.016 459.874C63.9836 463.343 68.7631 467.05 73.5629 470.745C81.2807 476.666 89.1008 482.386 97.0824 487.945C99.9617 489.953 102.808 491.999 105.637 494.077C113.4 499.78 121.236 505.278 129.375 510.433C130.145 510.921 130.914 511.41 131.707 511.913C141.306 518.107 141.306 518.107 152.25 520.62C153.674 520.705 153.674 520.705 155.125 520.792C155.827 520.818 156.528 520.844 157.25 520.87C157.58 521.86 157.91 522.85 158.25 523.87C147.547 529.901 147.547 529.901 141.25 528.87C120.592 522.038 101.831 505.452 84.6254 492.636C80.6773 489.701 76.7131 486.787 72.7504 483.87C71.1826 482.716 69.6149 481.561 68.0473 480.406C67.2655 479.829 66.4836 479.253 65.6781 478.66C63.1443 476.792 60.6113 474.923 58.0785 473.054C57.2284 472.427 56.3782 471.8 55.5023 471.154C53.8861 469.961 52.2702 468.769 50.6547 467.575C49.918 467.032 49.1813 466.489 48.4223 465.929C47.7197 465.41 47.0172 464.89 46.2934 464.355C44.9548 463.382 43.6034 462.427 42.2387 461.491C37.4156 458.183 34.7992 455.519 33.2504 449.87C32.8369 444.892 33.6145 441.192 36.8129 437.308C37.6173 436.503 38.4216 435.699 39.2504 434.87Z" fill="#333540"/>
<path d="M383.25 328.87C387.09 330.489 389.922 333.077 393 335.808C400.304 342.157 408.197 347.525 416.25 352.87C412.758 356.886 408.688 359.032 404.063 361.495C399.122 364.159 394.226 366.844 389.461 369.816C388.701 370.285 387.941 370.755 387.157 371.239C385.703 372.144 384.257 373.063 382.822 373.998C377.926 377.017 377.926 377.017 374.414 376.253C371.359 374.301 370.006 373.122 368.25 369.87C365.976 356.182 373.08 344 380.25 332.87C381.234 331.525 382.228 330.187 383.25 328.87Z" fill="#444755"/>
<path d="M599.25 130.87C600.25 133.87 600.25 133.87 599.387 136.163C598.669 137.596 598.669 137.596 597.938 139.058C594.672 145.837 591.752 152.731 588.875 159.683C588.196 161.322 588.196 161.322 587.503 162.994C586.416 165.619 585.332 168.244 584.25 170.87C583.92 170.87 583.59 170.87 583.25 170.87C583.187 170.29 583.124 169.71 583.059 169.113C582.385 164.815 581.626 161.642 578.375 158.62C566.004 149.794 549.119 146.604 534.822 142.155C531.648 141.166 528.476 140.169 525.305 139.171C524.325 138.869 523.344 138.567 522.335 138.256C520.982 137.83 520.982 137.83 519.601 137.395C518.41 137.025 518.41 137.025 517.194 136.647C515.25 135.87 515.25 135.87 513.25 133.87C514.103 134.01 514.957 134.15 515.836 134.295C524.207 135.591 532.345 136.255 540.812 136.245C542.067 136.246 543.321 136.246 544.613 136.247C562.617 136.11 581.63 134.683 599.25 130.87Z" fill="#92AA3B"/>
<path d="M478.25 95.8704C480.062 95.9329 480.062 95.9329 482.25 96.8704C485.208 102.066 485.801 106.647 485.75 112.558C485.744 113.349 485.737 114.14 485.73 114.955C485.25 130.49 475.472 142.288 464.707 152.706C461.442 155.582 458.11 157.875 454.25 159.87C453.425 160.303 452.6 160.737 451.75 161.183C445.548 162.888 440.742 162.274 435.203 159.21C430.551 156.019 426.261 151.653 423.25 146.87C423.25 146.21 423.25 145.55 423.25 144.87C422.59 144.87 421.93 144.87 421.25 144.87C421.25 144.21 421.25 143.55 421.25 142.87C423.63 143.792 425.964 144.723 428.234 145.894C433.93 148.742 438.899 150.131 445.25 148.87C459.093 143.227 468.95 129.396 475.75 116.558C478.402 110.144 478.082 102.712 478.25 95.8704Z" fill="#92A939"/>
<path d="M429.25 360.87C432.023 362.28 432.023 362.28 434.625 363.933C435.936 364.755 435.936 364.755 437.273 365.593C437.926 366.014 438.578 366.436 439.25 366.87C438.206 373.529 435.132 379.425 429.957 383.816C420.118 390.461 408.965 389.954 397.469 388.339C391.983 387.09 389.167 385.959 385.25 381.87C385.868 381.524 386.486 381.177 387.123 380.82C390.021 379.193 392.917 377.563 395.812 375.933C396.858 375.346 397.904 374.759 398.982 374.155C403.679 371.508 408.351 368.852 412.906 365.968C413.577 365.546 414.248 365.123 414.939 364.688C416.154 363.915 417.36 363.127 418.555 362.324C422.504 359.816 424.793 359.476 429.25 360.87Z" fill="#454857"/>
<path d="M546 558.745C547.199 558.74 547.199 558.74 548.422 558.734C549.206 558.735 549.989 558.736 550.797 558.738C551.507 558.739 552.217 558.74 552.948 558.741C555.737 558.898 558.495 559.411 561.25 559.87C561.25 564.16 561.25 568.45 561.25 572.87C552.543 573.937 543.948 574.196 535.183 574.275C533.387 574.297 531.591 574.331 529.795 574.378C527.181 574.445 524.568 574.472 521.953 574.491C521.154 574.519 520.355 574.547 519.532 574.576C514.139 574.556 514.139 574.556 511.6 572.598C509.284 569.975 508.25 568.409 508.25 564.87C509.057 564.724 509.865 564.578 510.697 564.427C514.34 563.766 517.983 563.099 521.625 562.433C522.896 562.203 524.167 561.973 525.477 561.736C526.688 561.513 527.9 561.291 529.148 561.062C530.269 560.858 531.39 560.653 532.544 560.443C537.228 559.452 541.089 558.722 546 558.745Z" fill="#FAFAFB"/>
<path d="M884.25 508.87C887.556 511.998 889.993 514.932 892.25 518.87C891.523 519.537 890.796 520.203 890.047 520.89C889.327 521.55 889.327 521.55 888.593 522.223C887.517 523.209 886.441 524.194 885.364 525.178C882.603 527.702 879.854 530.237 877.133 532.804C861.432 547.562 861.432 547.562 855.148 548.171C852.25 547.87 852.25 547.87 849.25 545.87C850.803 542.356 852.916 539.685 855.375 536.745C857.714 533.945 860.034 531.156 862.234 528.245C868.299 520.226 875.521 513.888 884.25 508.87Z" fill="#FAFAFA"/>
<path d="M62.25 366.87C62.91 366.87 63.57 366.87 64.25 366.87C65.3432 370.839 66.0885 374.277 64.1094 378.038C55.0188 389.019 39.1216 394.853 25.25 396.87C22.9403 397.011 20.6263 397.09 18.3125 397.12C16.5355 397.159 16.5355 397.159 14.7227 397.198C10.93 396.84 8.52199 395.769 5.25 393.87C5.25 392.22 5.25 390.57 5.25 388.87C5.80559 389.031 6.36117 389.193 6.93359 389.359C22.2026 392.732 40.3574 386.621 53.1211 378.484C57.3052 375.313 60.58 371.88 62.25 366.87Z" fill="#21232B"/>
<path d="M466.25 334.87C466.91 335.2 467.57 335.53 468.25 335.87C467.849 336.297 467.448 336.724 467.035 337.163C463.266 341.309 460.006 345.596 456.875 350.245C446.285 365.914 446.285 365.914 439.25 368.87C439.25 368.21 439.25 367.55 439.25 366.87C438.59 366.643 437.93 366.417 437.25 366.183C433.323 364.465 429.837 362.203 426.25 359.87C429.013 356.901 431.666 354.868 435.215 352.917C436.174 352.384 437.134 351.85 438.122 351.301C439.134 350.746 440.145 350.192 441.188 349.62C448.953 345.315 456.583 340.918 464.02 336.066C465.124 335.474 465.124 335.474 466.25 334.87Z" fill="#96AC45"/>
<path d="M61.25 363.87C61.91 364.2 62.57 364.53 63.25 364.87C62.0581 371.36 59.5916 374.974 54.25 378.87C40.1236 387.333 25.8136 391.78 9.25 390.87C8.26 390.54 7.27 390.21 6.25 389.87C5.59 390.53 4.93 391.19 4.25 391.87C3.92 389.23 3.59 386.59 3.25 383.87C4.37277 383.894 5.49555 383.917 6.65234 383.941C18.098 384.151 18.098 384.151 29.25 381.87C30.1794 381.602 31.1088 381.334 32.0664 381.058C43.3687 377.594 53.0121 372.413 61.25 363.87Z" fill="#414352"/>
<path d="M471.25 52.8704C471.287 53.618 471.325 54.3657 471.363 55.136C471.429 56.1208 471.495 57.1057 471.562 58.1204C471.65 59.5822 471.65 59.5822 471.738 61.0735C472.296 64.1238 473.214 65.5775 475.25 67.8704C474.776 68.4685 474.301 69.0666 473.812 69.6829C472.085 71.8742 472.085 71.8742 471.25 74.8704C467.636 73.4264 466.209 71.7159 464.188 68.4329C462.408 65.5685 460.722 63.1678 458.25 60.8704C457.59 60.2104 456.93 59.5504 456.25 58.8704C458.184 57.863 460.122 56.8647 462.062 55.8704C463.141 55.3135 464.22 54.7566 465.332 54.1829C468.25 52.8704 468.25 52.8704 471.25 52.8704Z" fill="#040404"/>
<path d="M454.25 61.8703C456.637 63.4992 456.637 63.4992 458.938 65.4328C461.738 68.0827 461.738 68.0827 465.25 68.8703C466.625 70.5029 467.956 72.1726 469.25 73.8703C469.91 74.5303 470.57 75.1903 471.25 75.8703C470.92 76.8603 470.59 77.8503 470.25 78.8703C466.286 78.3232 463.966 77.2347 460.824 74.7805C460.028 74.1611 459.232 73.5417 458.412 72.9035C457.595 72.2532 456.779 71.6029 455.938 70.9328C455.102 70.2864 454.266 69.6399 453.404 68.9738C448.858 65.3996 448.858 65.3996 447.25 63.8703C447.25 63.2103 447.25 62.5503 447.25 61.8703C450.013 60.489 451.313 61.006 454.25 61.8703Z" fill="#474753"/>
<path d="M474.25 49.8704C476.883 53.82 477.373 56.4191 477.312 61.0579C477.303 61.9589 477.294 62.86 477.285 63.7883C477.274 64.4754 477.262 65.1625 477.25 65.8704C475.93 66.2004 474.61 66.5304 473.25 66.8704C470.98 63.466 470.885 61.7051 470.625 57.6829C470.55 56.5962 470.475 55.5095 470.398 54.3899C470.349 53.5584 470.3 52.727 470.25 51.8704C471.57 51.2104 472.89 50.5504 474.25 49.8704Z" fill="#464856"/>
<path d="M452.25 59.8704C455.741 59.553 457.606 59.4051 460.5 61.4954C462.486 64.1909 463.373 66.6545 464.25 69.8704C462.807 68.9627 461.371 68.0438 459.938 67.1204C459.137 66.6099 458.336 66.0994 457.512 65.5735C455.246 63.8676 453.823 62.2123 452.25 59.8704Z" fill="#EAAA7C"/>
<path d="M545.25 304.87C545.91 304.87 546.57 304.87 547.25 304.87C547.58 305.86 547.91 306.85 548.25 307.87C544.62 311.5 540.99 315.13 537.25 318.87C537.25 314.914 538.572 314.129 541.25 311.308C544.287 308.534 544.287 308.534 545.25 304.87Z" fill="#9EA875"/>
<path d="M391.25 11.8704C391.25 14.8704 391.25 14.8704 389.062 17.3508C388.134 18.2442 387.206 19.1375 386.25 20.0579C385.322 20.9589 384.394 21.86 383.438 22.7883C382.716 23.4754 381.994 24.1625 381.25 24.8704C380.59 24.5404 379.93 24.2104 379.25 23.8704C380.683 22.2417 382.122 20.6176 383.562 18.9954C384.363 18.0904 385.164 17.1855 385.988 16.2532C388.25 13.8704 388.25 13.8704 391.25 11.8704Z" fill="#8B8D99"/>
<path d="M204.25 491.87C205.57 492.53 206.89 493.19 208.25 493.87C206.962 494.709 205.669 495.541 204.375 496.37C203.656 496.834 202.936 497.298 202.195 497.777C200.25 498.87 200.25 498.87 198.25 498.87C198.25 497.88 198.25 496.89 198.25 495.87C201.25 493.683 201.25 493.683 204.25 491.87Z" fill="#585963"/>
<path d="M173.25 510.87C174.24 511.53 175.23 512.19 176.25 512.87C174.962 513.709 173.669 514.541 172.375 515.37C171.656 515.834 170.936 516.298 170.195 516.777C168.25 517.87 168.25 517.87 166.25 517.87C166.25 516.88 166.25 515.89 166.25 514.87C168.56 513.55 170.87 512.23 173.25 510.87Z" fill="#54555F"/>
<path d="M262.25 457.87C262.58 458.86 262.91 459.85 263.25 460.87C257.5 464.87 257.5 464.87 255.25 464.87C255.25 463.88 255.25 462.89 255.25 461.87C257.56 460.55 259.87 459.23 262.25 457.87Z" fill="#51535D"/>
<path d="M318.25 424.87C319.24 425.53 320.23 426.19 321.25 426.87C318.28 428.52 315.31 430.17 312.25 431.87C312.25 430.55 312.25 429.23 312.25 427.87C314.23 426.88 316.21 425.89 318.25 424.87Z" fill="#545660"/>
<path d="M235.25 473.87C236.24 474.53 237.23 475.19 238.25 475.87C235.28 477.52 232.31 479.17 229.25 480.87C228.92 479.88 228.59 478.89 228.25 477.87C230.56 476.55 232.87 475.23 235.25 473.87Z" fill="#52535E"/>
<path d="M272.25 451.87C272.58 452.86 272.91 453.85 273.25 454.87C267.5 458.87 267.5 458.87 265.25 458.87C265.25 457.88 265.25 456.89 265.25 455.87C267.56 454.55 269.87 453.23 272.25 451.87Z" fill="#50525C"/>
<path d="M823.25 521.87C823.58 522.53 823.91 523.19 824.25 523.87C822.64 527.01 820.865 529.504 818.25 531.87C817.59 531.54 816.93 531.21 816.25 530.87C818.56 527.9 820.87 524.93 823.25 521.87Z" fill="#848690"/>
<path d="M194.25 497.87C195.57 498.53 196.89 499.19 198.25 499.87C193.5 502.87 193.5 502.87 191.25 502.87C191.25 501.88 191.25 500.89 191.25 499.87C192.24 499.21 193.23 498.55 194.25 497.87Z" fill="#5A5C66"/>
<path d="M288.25 441.87C289.57 442.53 290.89 443.19 292.25 443.87C287.5 446.87 287.5 446.87 285.25 446.87C285.25 445.88 285.25 444.89 285.25 443.87C286.24 443.21 287.23 442.55 288.25 441.87Z" fill="#565863"/>
<path d="M524.25 507.87C525.57 507.87 526.89 507.87 528.25 507.87C528 510.245 528 510.245 527.25 512.87C525.188 514.183 525.188 514.183 523.25 514.87C524.24 512.89 525.23 510.91 526.25 508.87C525.59 508.54 524.93 508.21 524.25 507.87Z" fill="#8C908D"/>
</svg>
