<svg width="298" height="153" viewBox="0 0 298 153" fill="none" xmlns="http://www.w3.org/2000/svg">
<path d="M26.875 80V34.875H41.5625V66.5625H66V80H26.875ZM28.75 36.75V78.125H64.125V68.4375H39.6875V36.75H28.75ZM74.275 80V34.875H112.963V48.3125H88.9625V53.5H104.463V61.375H88.9625V66.5625H114.9V80H74.275ZM76.15 36.75V78.125H113.025V68.4375H87.0875V59.5625H102.588V55.375H87.0875V46.4375H111.088V36.75H76.15ZM121.3 34.875H138.519L148.769 69.5312L159.144 34.875H177.238L161.144 80H137.175L121.3 34.875ZM124.019 36.75L138.363 78.125H160.019L174.863 36.75H160.488L150.206 71.4062H147.488L137.05 36.75H124.019ZM183.387 80V34.875H222.075V48.3125H198.075V53.5H213.575V61.375H198.075V66.5625H224.012V80H183.387ZM185.262 36.75V78.125H222.137V68.4375H196.2V59.5625H211.7V55.375H196.2V46.4375H220.2V36.75H185.262ZM232.288 80V34.875H246.975V66.5625H271.413V80H232.288ZM234.163 36.75V78.125H269.538V68.4375H245.1V36.75H234.163Z" fill="white"/>
<path d="M24.875 80V34.875H39.5625V66.5625H64V80H24.875ZM26.75 36.75V78.125H62.125V68.4375H37.6875V36.75H26.75ZM72.275 80V34.875H110.963V48.3125H86.9625V53.5H102.463V61.375H86.9625V66.5625H112.9V80H72.275ZM74.15 36.75V78.125H111.025V68.4375H85.0875V59.5625H100.588V55.375H85.0875V46.4375H109.088V36.75H74.15ZM119.3 34.875H136.519L146.769 69.5312L157.144 34.875H175.238L159.144 80H135.175L119.3 34.875ZM122.019 36.75L136.363 78.125H158.019L172.863 36.75H158.488L148.206 71.4062H145.488L135.05 36.75H122.019ZM181.387 80V34.875H220.075V48.3125H196.075V53.5H211.575V61.375H196.075V66.5625H222.012V80H181.387ZM183.262 36.75V78.125H220.137V68.4375H194.2V59.5625H209.7V55.375H194.2V46.4375H218.2V36.75H183.262ZM230.288 80V34.875H244.975V66.5625H269.413V80H230.288ZM232.163 36.75V78.125H267.538V68.4375H243.1V36.75H232.163Z" fill="white"/>
<g filter="url(#filter0_d_266_25468)">
<path d="M12 7H268V21H12V7Z" stroke="white" stroke-width="2" shape-rendering="crispEdges"/>
</g>
<g filter="url(#filter1_d_266_25468)">
<path d="M15 94H271V108H15V94Z" stroke="white" stroke-width="2" shape-rendering="crispEdges"/>
</g>
<path d="M3.28125 140.039V144.523H5.52344C5.83073 144.523 6.11979 144.466 6.39062 144.352C6.66146 144.232 6.89844 144.07 7.10156 143.867C7.30469 143.664 7.46354 143.427 7.57812 143.156C7.69792 142.88 7.75781 142.589 7.75781 142.281C7.75781 141.974 7.69792 141.685 7.57812 141.414C7.46354 141.138 7.30469 140.898 7.10156 140.695C6.89844 140.492 6.66146 140.333 6.39062 140.219C6.11979 140.099 5.83073 140.039 5.52344 140.039H3.28125ZM3.28125 149H1.03906V137.797H5.52344C5.9349 137.797 6.33073 137.852 6.71094 137.961C7.09115 138.065 7.44531 138.216 7.77344 138.414C8.10677 138.607 8.40885 138.841 8.67969 139.117C8.95573 139.388 9.1901 139.69 9.38281 140.023C9.58073 140.357 9.73177 140.714 9.83594 141.094C9.94531 141.474 10 141.87 10 142.281C10 142.896 9.88281 143.477 9.64844 144.023C9.41406 144.565 9.09375 145.039 8.6875 145.445C8.28125 145.852 7.80469 146.172 7.25781 146.406C6.71615 146.641 6.13802 146.758 5.52344 146.758H3.28125V149ZM13.6094 138.359C13.6094 138.557 13.5703 138.742 13.4922 138.914C13.4193 139.086 13.3177 139.237 13.1875 139.367C13.0573 139.492 12.9036 139.594 12.7266 139.672C12.5547 139.745 12.3698 139.781 12.1719 139.781C11.974 139.781 11.7865 139.745 11.6094 139.672C11.4375 139.594 11.2865 139.492 11.1562 139.367C11.0312 139.237 10.9297 139.086 10.8516 138.914C10.7786 138.742 10.7422 138.557 10.7422 138.359C10.7422 138.167 10.7786 137.984 10.8516 137.812C10.9297 137.635 11.0312 137.484 11.1562 137.359C11.2865 137.229 11.4375 137.128 11.6094 137.055C11.7865 136.977 11.974 136.938 12.1719 136.938C12.3698 136.938 12.5547 136.977 12.7266 137.055C12.9036 137.128 13.0573 137.229 13.1875 137.359C13.3177 137.484 13.4193 137.635 13.4922 137.812C13.5703 137.984 13.6094 138.167 13.6094 138.359ZM13.2422 149H11.0938V140.633H13.2422V149ZM22.1875 142.297L20.625 143.867C20.5469 143.648 20.4401 143.453 20.3047 143.281C20.1693 143.104 20.0156 142.956 19.8438 142.836C19.6771 142.716 19.4948 142.625 19.2969 142.562C19.099 142.5 18.8958 142.469 18.6875 142.469C18.3958 142.469 18.1198 142.529 17.8594 142.648C17.6042 142.768 17.3802 142.938 17.1875 143.156C17 143.37 16.8516 143.625 16.7422 143.922C16.6328 144.219 16.5781 144.547 16.5781 144.906C16.5781 145.198 16.6328 145.471 16.7422 145.727C16.8516 145.982 17 146.206 17.1875 146.398C17.3802 146.591 17.6042 146.742 17.8594 146.852C18.1198 146.961 18.3958 147.016 18.6875 147.016C18.8958 147.016 19.0964 146.987 19.2891 146.93C19.4818 146.872 19.6615 146.792 19.8281 146.688C20 146.578 20.151 146.448 20.2812 146.297C20.4167 146.141 20.526 145.969 20.6094 145.781L22.1719 147.352C21.974 147.633 21.7448 147.885 21.4844 148.109C21.2292 148.333 20.9505 148.523 20.6484 148.68C20.3516 148.836 20.0365 148.953 19.7031 149.031C19.375 149.115 19.0365 149.156 18.6875 149.156C18.099 149.156 17.5443 149.047 17.0234 148.828C16.5078 148.604 16.0547 148.299 15.6641 147.914C15.2786 147.529 14.974 147.078 14.75 146.562C14.526 146.047 14.4141 145.495 14.4141 144.906C14.4141 144.266 14.526 143.667 14.75 143.109C14.974 142.552 15.2786 142.068 15.6641 141.656C16.0547 141.24 16.5078 140.911 17.0234 140.672C17.5443 140.432 18.099 140.312 18.6875 140.312C19.0365 140.312 19.3776 140.357 19.7109 140.445C20.0495 140.534 20.3698 140.664 20.6719 140.836C20.9792 141.003 21.2604 141.208 21.5156 141.453C21.776 141.698 22 141.979 22.1875 142.297ZM25.3828 149H23.2344V137.305H25.3828V144.68L28.5625 140.648H31.0156L28.2422 144.133L31.0156 149H28.5625L26.8672 145.961L25.3828 147.93V149ZM44.4297 144.742C44.4297 145.367 44.3177 145.951 44.0938 146.492C43.8698 147.029 43.5651 147.495 43.1797 147.891C42.7943 148.281 42.3411 148.591 41.8203 148.82C41.3047 149.044 40.75 149.156 40.1562 149.156C39.5677 149.156 39.013 149.044 38.4922 148.82C37.9766 148.591 37.5234 148.281 37.1328 147.891C36.7474 147.495 36.4427 147.029 36.2188 146.492C35.9948 145.951 35.8828 145.367 35.8828 144.742C35.8828 144.107 35.9948 143.518 36.2188 142.977C36.4427 142.435 36.7474 141.969 37.1328 141.578C37.5234 141.182 37.9766 140.872 38.4922 140.648C39.013 140.424 39.5677 140.312 40.1562 140.312C40.75 140.312 41.3047 140.419 41.8203 140.633C42.3411 140.841 42.7943 141.141 43.1797 141.531C43.5651 141.917 43.8698 142.383 44.0938 142.93C44.3177 143.471 44.4297 144.076 44.4297 144.742ZM42.2812 144.742C42.2812 144.398 42.224 144.089 42.1094 143.812C42 143.531 41.849 143.292 41.6562 143.094C41.4635 142.891 41.237 142.737 40.9766 142.633C40.7214 142.523 40.4479 142.469 40.1562 142.469C39.8646 142.469 39.5885 142.523 39.3281 142.633C39.0729 142.737 38.849 142.891 38.6562 143.094C38.4688 143.292 38.3203 143.531 38.2109 143.812C38.1016 144.089 38.0469 144.398 38.0469 144.742C38.0469 145.065 38.1016 145.365 38.2109 145.641C38.3203 145.917 38.4688 146.156 38.6562 146.359C38.849 146.562 39.0729 146.724 39.3281 146.844C39.5885 146.958 39.8646 147.016 40.1562 147.016C40.4479 147.016 40.7214 146.961 40.9766 146.852C41.237 146.742 41.4635 146.589 41.6562 146.391C41.849 146.193 42 145.953 42.1094 145.672C42.224 145.391 42.2812 145.081 42.2812 144.742ZM47.7422 149H45.6094V140.633H46.125L46.8281 141.445C47.1719 141.133 47.5599 140.893 47.9922 140.727C48.4297 140.555 48.8854 140.469 49.3594 140.469C49.8698 140.469 50.3516 140.568 50.8047 140.766C51.2578 140.958 51.6536 141.227 51.9922 141.57C52.3307 141.909 52.5964 142.307 52.7891 142.766C52.987 143.219 53.0859 143.703 53.0859 144.219V149H50.9531V144.219C50.9531 144 50.9115 143.794 50.8281 143.602C50.7448 143.404 50.6302 143.232 50.4844 143.086C50.3385 142.94 50.1693 142.826 49.9766 142.742C49.7839 142.659 49.5781 142.617 49.3594 142.617C49.1354 142.617 48.9245 142.659 48.7266 142.742C48.5286 142.826 48.3568 142.94 48.2109 143.086C48.0651 143.232 47.9505 143.404 47.8672 143.602C47.7839 143.794 47.7422 144 47.7422 144.219V149ZM57.9375 146.953C58.0208 146.979 58.1042 146.997 58.1875 147.008C58.2708 147.013 58.3542 147.016 58.4375 147.016C58.6458 147.016 58.8464 146.987 59.0391 146.93C59.2318 146.872 59.4115 146.792 59.5781 146.688C59.75 146.578 59.901 146.448 60.0312 146.297C60.1667 146.141 60.276 145.969 60.3594 145.781L61.9219 147.352C61.724 147.633 61.4948 147.885 61.2344 148.109C60.9792 148.333 60.7005 148.523 60.3984 148.68C60.1016 148.836 59.7865 148.953 59.4531 149.031C59.125 149.115 58.7865 149.156 58.4375 149.156C57.849 149.156 57.2943 149.047 56.7734 148.828C56.2578 148.609 55.8047 148.305 55.4141 147.914C55.0286 147.523 54.724 147.06 54.5 146.523C54.276 145.982 54.1641 145.388 54.1641 144.742C54.1641 144.081 54.276 143.477 54.5 142.93C54.724 142.383 55.0286 141.917 55.4141 141.531C55.8047 141.146 56.2578 140.846 56.7734 140.633C57.2943 140.419 57.849 140.312 58.4375 140.312C58.7865 140.312 59.1276 140.354 59.4609 140.438C59.7943 140.521 60.1094 140.641 60.4062 140.797C60.7083 140.953 60.9896 141.146 61.25 141.375C61.5104 141.599 61.7396 141.852 61.9375 142.133L57.9375 146.953ZM59.0312 142.555C58.9323 142.518 58.8333 142.495 58.7344 142.484C58.6406 142.474 58.5417 142.469 58.4375 142.469C58.1458 142.469 57.8698 142.523 57.6094 142.633C57.3542 142.737 57.1302 142.888 56.9375 143.086C56.75 143.284 56.6016 143.523 56.4922 143.805C56.3828 144.081 56.3281 144.393 56.3281 144.742C56.3281 144.82 56.3307 144.909 56.3359 145.008C56.3464 145.107 56.3594 145.208 56.375 145.312C56.3958 145.411 56.4193 145.508 56.4453 145.602C56.4714 145.695 56.5052 145.779 56.5469 145.852L59.0312 142.555ZM70.2109 149H68.0781V142.758H67.0391V140.633H68.0781V140.234C68.0781 139.719 68.1745 139.234 68.3672 138.781C68.5651 138.328 68.8333 137.935 69.1719 137.602C69.5156 137.263 69.9141 136.997 70.3672 136.805C70.8203 136.607 71.3047 136.508 71.8203 136.508H73.4219V138.633H71.8203C71.5911 138.633 71.3776 138.674 71.1797 138.758C70.987 138.836 70.8177 138.948 70.6719 139.094C70.5312 139.234 70.4193 139.404 70.3359 139.602C70.2526 139.794 70.2109 140.005 70.2109 140.234V140.633H72.8281V142.758H70.2109V149ZM81.7891 149H81.2734L80.4453 147.852C80.2422 148.034 80.026 148.206 79.7969 148.367C79.5729 148.523 79.3359 148.661 79.0859 148.781C78.8359 148.896 78.5781 148.987 78.3125 149.055C78.0521 149.122 77.7865 149.156 77.5156 149.156C76.9271 149.156 76.3724 149.057 75.8516 148.859C75.3359 148.661 74.8828 148.375 74.4922 148C74.1068 147.62 73.8021 147.156 73.5781 146.609C73.3542 146.062 73.2422 145.44 73.2422 144.742C73.2422 144.091 73.3542 143.495 73.5781 142.953C73.8021 142.406 74.1068 141.938 74.4922 141.547C74.8828 141.156 75.3359 140.854 75.8516 140.641C76.3724 140.422 76.9271 140.312 77.5156 140.312C77.7865 140.312 78.0547 140.346 78.3203 140.414C78.5859 140.482 78.8438 140.576 79.0938 140.695C79.3438 140.815 79.5807 140.956 79.8047 141.117C80.0339 141.279 80.2474 141.453 80.4453 141.641L81.2734 140.648H81.7891V149ZM79.6406 144.742C79.6406 144.451 79.5833 144.169 79.4688 143.898C79.3594 143.622 79.2083 143.38 79.0156 143.172C78.8229 142.958 78.5964 142.789 78.3359 142.664C78.0807 142.534 77.8073 142.469 77.5156 142.469C77.224 142.469 76.9479 142.518 76.6875 142.617C76.4323 142.716 76.2083 142.862 76.0156 143.055C75.8281 143.247 75.6797 143.487 75.5703 143.773C75.4609 144.055 75.4062 144.378 75.4062 144.742C75.4062 145.107 75.4609 145.432 75.5703 145.719C75.6797 146 75.8281 146.237 76.0156 146.43C76.2083 146.622 76.4323 146.768 76.6875 146.867C76.9479 146.966 77.224 147.016 77.5156 147.016C77.8073 147.016 78.0807 146.953 78.3359 146.828C78.5964 146.698 78.8229 146.529 79.0156 146.32C79.2083 146.107 79.3594 145.865 79.4688 145.594C79.5833 145.318 79.6406 145.034 79.6406 144.742ZM85.7969 149L82.6094 140.633H85.0391L86.8672 145.852L88.6875 140.633H91.125L87.9375 149H85.7969ZM99.7734 144.742C99.7734 145.367 99.6615 145.951 99.4375 146.492C99.2135 147.029 98.9089 147.495 98.5234 147.891C98.138 148.281 97.6849 148.591 97.1641 148.82C96.6484 149.044 96.0938 149.156 95.5 149.156C94.9115 149.156 94.3568 149.044 93.8359 148.82C93.3203 148.591 92.8672 148.281 92.4766 147.891C92.0911 147.495 91.7865 147.029 91.5625 146.492C91.3385 145.951 91.2266 145.367 91.2266 144.742C91.2266 144.107 91.3385 143.518 91.5625 142.977C91.7865 142.435 92.0911 141.969 92.4766 141.578C92.8672 141.182 93.3203 140.872 93.8359 140.648C94.3568 140.424 94.9115 140.312 95.5 140.312C96.0938 140.312 96.6484 140.419 97.1641 140.633C97.6849 140.841 98.138 141.141 98.5234 141.531C98.9089 141.917 99.2135 142.383 99.4375 142.93C99.6615 143.471 99.7734 144.076 99.7734 144.742ZM97.625 144.742C97.625 144.398 97.5677 144.089 97.4531 143.812C97.3438 143.531 97.1927 143.292 97 143.094C96.8073 142.891 96.5807 142.737 96.3203 142.633C96.0651 142.523 95.7917 142.469 95.5 142.469C95.2083 142.469 94.9323 142.523 94.6719 142.633C94.4167 142.737 94.1927 142.891 94 143.094C93.8125 143.292 93.6641 143.531 93.5547 143.812C93.4453 144.089 93.3906 144.398 93.3906 144.742C93.3906 145.065 93.4453 145.365 93.5547 145.641C93.6641 145.917 93.8125 146.156 94 146.359C94.1927 146.562 94.4167 146.724 94.6719 146.844C94.9323 146.958 95.2083 147.016 95.5 147.016C95.7917 147.016 96.0651 146.961 96.3203 146.852C96.5807 146.742 96.8073 146.589 97 146.391C97.1927 146.193 97.3438 145.953 97.4531 145.672C97.5677 145.391 97.625 145.081 97.625 144.742ZM103.086 149H100.953V140.633H101.469L102.172 141.625C102.516 141.312 102.906 141.073 103.344 140.906C103.781 140.734 104.234 140.648 104.703 140.648H106.586V142.773H104.703C104.479 142.773 104.268 142.815 104.07 142.898C103.872 142.982 103.701 143.096 103.555 143.242C103.409 143.388 103.294 143.56 103.211 143.758C103.128 143.956 103.086 144.167 103.086 144.391V149ZM110.094 138.359C110.094 138.557 110.055 138.742 109.977 138.914C109.904 139.086 109.802 139.237 109.672 139.367C109.542 139.492 109.388 139.594 109.211 139.672C109.039 139.745 108.854 139.781 108.656 139.781C108.458 139.781 108.271 139.745 108.094 139.672C107.922 139.594 107.771 139.492 107.641 139.367C107.516 139.237 107.414 139.086 107.336 138.914C107.263 138.742 107.227 138.557 107.227 138.359C107.227 138.167 107.263 137.984 107.336 137.812C107.414 137.635 107.516 137.484 107.641 137.359C107.771 137.229 107.922 137.128 108.094 137.055C108.271 136.977 108.458 136.938 108.656 136.938C108.854 136.938 109.039 136.977 109.211 137.055C109.388 137.128 109.542 137.229 109.672 137.359C109.802 137.484 109.904 137.635 109.977 137.812C110.055 137.984 110.094 138.167 110.094 138.359ZM109.727 149H107.578V140.633H109.727V149ZM115.555 149C115.039 149 114.555 148.904 114.102 148.711C113.648 148.513 113.25 148.245 112.906 147.906C112.568 147.562 112.299 147.164 112.102 146.711C111.909 146.258 111.812 145.773 111.812 145.258V142.773H110.773V140.648H111.812V137.305H113.938V140.648H117.172V142.773H113.938V145.258C113.938 145.482 113.979 145.693 114.062 145.891C114.146 146.083 114.26 146.253 114.406 146.398C114.552 146.544 114.724 146.661 114.922 146.75C115.12 146.833 115.331 146.875 115.555 146.875H117.172V149H115.555ZM121.703 146.953C121.786 146.979 121.87 146.997 121.953 147.008C122.036 147.013 122.12 147.016 122.203 147.016C122.411 147.016 122.612 146.987 122.805 146.93C122.997 146.872 123.177 146.792 123.344 146.688C123.516 146.578 123.667 146.448 123.797 146.297C123.932 146.141 124.042 145.969 124.125 145.781L125.688 147.352C125.49 147.633 125.26 147.885 125 148.109C124.745 148.333 124.466 148.523 124.164 148.68C123.867 148.836 123.552 148.953 123.219 149.031C122.891 149.115 122.552 149.156 122.203 149.156C121.615 149.156 121.06 149.047 120.539 148.828C120.023 148.609 119.57 148.305 119.18 147.914C118.794 147.523 118.49 147.06 118.266 146.523C118.042 145.982 117.93 145.388 117.93 144.742C117.93 144.081 118.042 143.477 118.266 142.93C118.49 142.383 118.794 141.917 119.18 141.531C119.57 141.146 120.023 140.846 120.539 140.633C121.06 140.419 121.615 140.312 122.203 140.312C122.552 140.312 122.893 140.354 123.227 140.438C123.56 140.521 123.875 140.641 124.172 140.797C124.474 140.953 124.755 141.146 125.016 141.375C125.276 141.599 125.505 141.852 125.703 142.133L121.703 146.953ZM122.797 142.555C122.698 142.518 122.599 142.495 122.5 142.484C122.406 142.474 122.307 142.469 122.203 142.469C121.911 142.469 121.635 142.523 121.375 142.633C121.12 142.737 120.896 142.888 120.703 143.086C120.516 143.284 120.367 143.523 120.258 143.805C120.148 144.081 120.094 144.393 120.094 144.742C120.094 144.82 120.096 144.909 120.102 145.008C120.112 145.107 120.125 145.208 120.141 145.312C120.161 145.411 120.185 145.508 120.211 145.602C120.237 145.695 120.271 145.779 120.312 145.852L122.797 142.555ZM135.461 149C134.945 149 134.461 148.904 134.008 148.711C133.555 148.513 133.156 148.245 132.812 147.906C132.474 147.562 132.206 147.164 132.008 146.711C131.815 146.258 131.719 145.773 131.719 145.258V142.773H130.68V140.648H131.719V137.305H133.844V140.648H137.078V142.773H133.844V145.258C133.844 145.482 133.885 145.693 133.969 145.891C134.052 146.083 134.167 146.253 134.312 146.398C134.458 146.544 134.63 146.661 134.828 146.75C135.026 146.833 135.237 146.875 135.461 146.875H137.078V149H135.461ZM146.367 144.742C146.367 145.367 146.255 145.951 146.031 146.492C145.807 147.029 145.503 147.495 145.117 147.891C144.732 148.281 144.279 148.591 143.758 148.82C143.242 149.044 142.688 149.156 142.094 149.156C141.505 149.156 140.951 149.044 140.43 148.82C139.914 148.591 139.461 148.281 139.07 147.891C138.685 147.495 138.38 147.029 138.156 146.492C137.932 145.951 137.82 145.367 137.82 144.742C137.82 144.107 137.932 143.518 138.156 142.977C138.38 142.435 138.685 141.969 139.07 141.578C139.461 141.182 139.914 140.872 140.43 140.648C140.951 140.424 141.505 140.312 142.094 140.312C142.688 140.312 143.242 140.419 143.758 140.633C144.279 140.841 144.732 141.141 145.117 141.531C145.503 141.917 145.807 142.383 146.031 142.93C146.255 143.471 146.367 144.076 146.367 144.742ZM144.219 144.742C144.219 144.398 144.161 144.089 144.047 143.812C143.938 143.531 143.786 143.292 143.594 143.094C143.401 142.891 143.174 142.737 142.914 142.633C142.659 142.523 142.385 142.469 142.094 142.469C141.802 142.469 141.526 142.523 141.266 142.633C141.01 142.737 140.786 142.891 140.594 143.094C140.406 143.292 140.258 143.531 140.148 143.812C140.039 144.089 139.984 144.398 139.984 144.742C139.984 145.065 140.039 145.365 140.148 145.641C140.258 145.917 140.406 146.156 140.594 146.359C140.786 146.562 141.01 146.724 141.266 146.844C141.526 146.958 141.802 147.016 142.094 147.016C142.385 147.016 142.659 146.961 142.914 146.852C143.174 146.742 143.401 146.589 143.594 146.391C143.786 146.193 143.938 145.953 144.047 145.672C144.161 145.391 144.219 145.081 144.219 144.742ZM149.695 152.188H147.547V140.633H148.062L148.914 141.641C149.107 141.458 149.318 141.286 149.547 141.125C149.776 140.964 150.013 140.826 150.258 140.711C150.508 140.591 150.766 140.497 151.031 140.43C151.297 140.362 151.565 140.328 151.836 140.328C152.424 140.328 152.977 140.435 153.492 140.648C154.013 140.857 154.466 141.154 154.852 141.539C155.242 141.924 155.549 142.391 155.773 142.938C155.997 143.479 156.109 144.081 156.109 144.742C156.109 145.43 155.997 146.049 155.773 146.602C155.549 147.148 155.242 147.615 154.852 148C154.466 148.38 154.013 148.672 153.492 148.875C152.977 149.078 152.424 149.18 151.836 149.18C151.648 149.18 151.461 149.159 151.273 149.117C151.091 149.076 150.909 149.021 150.727 148.953C150.549 148.88 150.372 148.799 150.195 148.711C150.023 148.622 149.857 148.531 149.695 148.438V152.188ZM153.969 144.742C153.969 144.388 153.911 144.07 153.797 143.789C153.688 143.508 153.536 143.271 153.344 143.078C153.151 142.88 152.924 142.729 152.664 142.625C152.404 142.521 152.128 142.469 151.836 142.469C151.544 142.469 151.268 142.521 151.008 142.625C150.753 142.729 150.529 142.88 150.336 143.078C150.143 143.271 149.99 143.508 149.875 143.789C149.766 144.07 149.711 144.388 149.711 144.742C149.711 145.081 149.766 145.391 149.875 145.672C149.99 145.953 150.143 146.193 150.336 146.391C150.529 146.589 150.753 146.742 151.008 146.852C151.268 146.961 151.544 147.016 151.836 147.016C152.128 147.016 152.404 146.961 152.664 146.852C152.924 146.742 153.151 146.589 153.344 146.391C153.536 146.193 153.688 145.953 153.797 145.672C153.911 145.391 153.969 145.081 153.969 144.742ZM159.812 138.359C159.812 138.557 159.773 138.742 159.695 138.914C159.622 139.086 159.521 139.237 159.391 139.367C159.26 139.492 159.107 139.594 158.93 139.672C158.758 139.745 158.573 139.781 158.375 139.781C158.177 139.781 157.99 139.745 157.812 139.672C157.641 139.594 157.49 139.492 157.359 139.367C157.234 139.237 157.133 139.086 157.055 138.914C156.982 138.742 156.945 138.557 156.945 138.359C156.945 138.167 156.982 137.984 157.055 137.812C157.133 137.635 157.234 137.484 157.359 137.359C157.49 137.229 157.641 137.128 157.812 137.055C157.99 136.977 158.177 136.938 158.375 136.938C158.573 136.938 158.758 136.977 158.93 137.055C159.107 137.128 159.26 137.229 159.391 137.359C159.521 137.484 159.622 137.635 159.695 137.812C159.773 137.984 159.812 138.167 159.812 138.359ZM159.445 149H157.297V140.633H159.445V149ZM168.391 142.297L166.828 143.867C166.75 143.648 166.643 143.453 166.508 143.281C166.372 143.104 166.219 142.956 166.047 142.836C165.88 142.716 165.698 142.625 165.5 142.562C165.302 142.5 165.099 142.469 164.891 142.469C164.599 142.469 164.323 142.529 164.062 142.648C163.807 142.768 163.583 142.938 163.391 143.156C163.203 143.37 163.055 143.625 162.945 143.922C162.836 144.219 162.781 144.547 162.781 144.906C162.781 145.198 162.836 145.471 162.945 145.727C163.055 145.982 163.203 146.206 163.391 146.398C163.583 146.591 163.807 146.742 164.062 146.852C164.323 146.961 164.599 147.016 164.891 147.016C165.099 147.016 165.299 146.987 165.492 146.93C165.685 146.872 165.865 146.792 166.031 146.688C166.203 146.578 166.354 146.448 166.484 146.297C166.62 146.141 166.729 145.969 166.812 145.781L168.375 147.352C168.177 147.633 167.948 147.885 167.688 148.109C167.432 148.333 167.154 148.523 166.852 148.68C166.555 148.836 166.24 148.953 165.906 149.031C165.578 149.115 165.24 149.156 164.891 149.156C164.302 149.156 163.747 149.047 163.227 148.828C162.711 148.604 162.258 148.299 161.867 147.914C161.482 147.529 161.177 147.078 160.953 146.562C160.729 146.047 160.617 145.495 160.617 144.906C160.617 144.266 160.729 143.667 160.953 143.109C161.177 142.552 161.482 142.068 161.867 141.656C162.258 141.24 162.711 140.911 163.227 140.672C163.747 140.432 164.302 140.312 164.891 140.312C165.24 140.312 165.581 140.357 165.914 140.445C166.253 140.534 166.573 140.664 166.875 140.836C167.182 141.003 167.464 141.208 167.719 141.453C167.979 141.698 168.203 141.979 168.391 142.297ZM178.117 149C177.602 149 177.117 148.904 176.664 148.711C176.211 148.513 175.812 148.245 175.469 147.906C175.13 147.562 174.862 147.164 174.664 146.711C174.471 146.258 174.375 145.773 174.375 145.258V142.773H173.336V140.648H174.375V137.305H176.5V140.648H179.734V142.773H176.5V145.258C176.5 145.482 176.542 145.693 176.625 145.891C176.708 146.083 176.823 146.253 176.969 146.398C177.115 146.544 177.286 146.661 177.484 146.75C177.682 146.833 177.893 146.875 178.117 146.875H179.734V149H178.117ZM189.023 144.742C189.023 145.367 188.911 145.951 188.688 146.492C188.464 147.029 188.159 147.495 187.773 147.891C187.388 148.281 186.935 148.591 186.414 148.82C185.898 149.044 185.344 149.156 184.75 149.156C184.161 149.156 183.607 149.044 183.086 148.82C182.57 148.591 182.117 148.281 181.727 147.891C181.341 147.495 181.036 147.029 180.812 146.492C180.589 145.951 180.477 145.367 180.477 144.742C180.477 144.107 180.589 143.518 180.812 142.977C181.036 142.435 181.341 141.969 181.727 141.578C182.117 141.182 182.57 140.872 183.086 140.648C183.607 140.424 184.161 140.312 184.75 140.312C185.344 140.312 185.898 140.419 186.414 140.633C186.935 140.841 187.388 141.141 187.773 141.531C188.159 141.917 188.464 142.383 188.688 142.93C188.911 143.471 189.023 144.076 189.023 144.742ZM186.875 144.742C186.875 144.398 186.818 144.089 186.703 143.812C186.594 143.531 186.443 143.292 186.25 143.094C186.057 142.891 185.831 142.737 185.57 142.633C185.315 142.523 185.042 142.469 184.75 142.469C184.458 142.469 184.182 142.523 183.922 142.633C183.667 142.737 183.443 142.891 183.25 143.094C183.062 143.292 182.914 143.531 182.805 143.812C182.695 144.089 182.641 144.398 182.641 144.742C182.641 145.065 182.695 145.365 182.805 145.641C182.914 145.917 183.062 146.156 183.25 146.359C183.443 146.562 183.667 146.724 183.922 146.844C184.182 146.958 184.458 147.016 184.75 147.016C185.042 147.016 185.315 146.961 185.57 146.852C185.831 146.742 186.057 146.589 186.25 146.391C186.443 146.193 186.594 145.953 186.703 145.672C186.818 145.391 186.875 145.081 186.875 144.742ZM199.281 149H194.406V146.875H199.281C199.427 146.875 199.552 146.823 199.656 146.719C199.76 146.615 199.812 146.49 199.812 146.344C199.812 146.193 199.76 146.094 199.656 146.047C199.552 146 199.427 145.977 199.281 145.977H197.062C196.693 145.977 196.346 145.906 196.023 145.766C195.701 145.625 195.419 145.435 195.18 145.195C194.94 144.951 194.75 144.667 194.609 144.344C194.474 144.021 194.406 143.674 194.406 143.305C194.406 142.935 194.474 142.589 194.609 142.266C194.75 141.943 194.94 141.661 195.18 141.422C195.419 141.182 195.701 140.995 196.023 140.859C196.346 140.719 196.693 140.648 197.062 140.648H201.383V142.773H197.062C196.917 142.773 196.792 142.826 196.688 142.93C196.583 143.034 196.531 143.159 196.531 143.305C196.531 143.456 196.583 143.586 196.688 143.695C196.792 143.799 196.917 143.852 197.062 143.852H199.281C199.646 143.852 199.99 143.914 200.312 144.039C200.635 144.159 200.917 144.328 201.156 144.547C201.396 144.766 201.586 145.029 201.727 145.336C201.867 145.643 201.938 145.979 201.938 146.344C201.938 146.714 201.867 147.06 201.727 147.383C201.586 147.701 201.396 147.982 201.156 148.227C200.917 148.466 200.635 148.656 200.312 148.797C199.99 148.932 199.646 149 199.281 149ZM207.273 149C206.758 149 206.273 148.904 205.82 148.711C205.367 148.513 204.969 148.245 204.625 147.906C204.286 147.562 204.018 147.164 203.82 146.711C203.628 146.258 203.531 145.773 203.531 145.258V142.773H202.492V140.648H203.531V137.305H205.656V140.648H208.891V142.773H205.656V145.258C205.656 145.482 205.698 145.693 205.781 145.891C205.865 146.083 205.979 146.253 206.125 146.398C206.271 146.544 206.443 146.661 206.641 146.75C206.839 146.833 207.049 146.875 207.273 146.875H208.891V149H207.273ZM218.195 149H217.68L216.852 147.852C216.648 148.034 216.432 148.206 216.203 148.367C215.979 148.523 215.742 148.661 215.492 148.781C215.242 148.896 214.984 148.987 214.719 149.055C214.458 149.122 214.193 149.156 213.922 149.156C213.333 149.156 212.779 149.057 212.258 148.859C211.742 148.661 211.289 148.375 210.898 148C210.513 147.62 210.208 147.156 209.984 146.609C209.76 146.062 209.648 145.44 209.648 144.742C209.648 144.091 209.76 143.495 209.984 142.953C210.208 142.406 210.513 141.938 210.898 141.547C211.289 141.156 211.742 140.854 212.258 140.641C212.779 140.422 213.333 140.312 213.922 140.312C214.193 140.312 214.461 140.346 214.727 140.414C214.992 140.482 215.25 140.576 215.5 140.695C215.75 140.815 215.987 140.956 216.211 141.117C216.44 141.279 216.654 141.453 216.852 141.641L217.68 140.648H218.195V149ZM216.047 144.742C216.047 144.451 215.99 144.169 215.875 143.898C215.766 143.622 215.615 143.38 215.422 143.172C215.229 142.958 215.003 142.789 214.742 142.664C214.487 142.534 214.214 142.469 213.922 142.469C213.63 142.469 213.354 142.518 213.094 142.617C212.839 142.716 212.615 142.862 212.422 143.055C212.234 143.247 212.086 143.487 211.977 143.773C211.867 144.055 211.812 144.378 211.812 144.742C211.812 145.107 211.867 145.432 211.977 145.719C212.086 146 212.234 146.237 212.422 146.43C212.615 146.622 212.839 146.768 213.094 146.867C213.354 146.966 213.63 147.016 213.922 147.016C214.214 147.016 214.487 146.953 214.742 146.828C215.003 146.698 215.229 146.529 215.422 146.32C215.615 146.107 215.766 145.865 215.875 145.594C215.99 145.318 216.047 145.034 216.047 144.742ZM221.961 149H219.828V140.633H220.344L221.047 141.625C221.391 141.312 221.781 141.073 222.219 140.906C222.656 140.734 223.109 140.648 223.578 140.648H225.461V142.773H223.578C223.354 142.773 223.143 142.815 222.945 142.898C222.747 142.982 222.576 143.096 222.43 143.242C222.284 143.388 222.169 143.56 222.086 143.758C222.003 143.956 221.961 144.167 221.961 144.391V149ZM230.648 149C230.133 149 229.648 148.904 229.195 148.711C228.742 148.513 228.344 148.245 228 147.906C227.661 147.562 227.393 147.164 227.195 146.711C227.003 146.258 226.906 145.773 226.906 145.258V142.773H225.867V140.648H226.906V137.305H229.031V140.648H232.266V142.773H229.031V145.258C229.031 145.482 229.073 145.693 229.156 145.891C229.24 146.083 229.354 146.253 229.5 146.398C229.646 146.544 229.818 146.661 230.016 146.75C230.214 146.833 230.424 146.875 230.648 146.875H232.266V149H230.648ZM240.102 149H237.953V137.305H240.102V149ZM245.062 146.953C245.146 146.979 245.229 146.997 245.312 147.008C245.396 147.013 245.479 147.016 245.562 147.016C245.771 147.016 245.971 146.987 246.164 146.93C246.357 146.872 246.536 146.792 246.703 146.688C246.875 146.578 247.026 146.448 247.156 146.297C247.292 146.141 247.401 145.969 247.484 145.781L249.047 147.352C248.849 147.633 248.62 147.885 248.359 148.109C248.104 148.333 247.826 148.523 247.523 148.68C247.227 148.836 246.911 148.953 246.578 149.031C246.25 149.115 245.911 149.156 245.562 149.156C244.974 149.156 244.419 149.047 243.898 148.828C243.383 148.609 242.93 148.305 242.539 147.914C242.154 147.523 241.849 147.06 241.625 146.523C241.401 145.982 241.289 145.388 241.289 144.742C241.289 144.081 241.401 143.477 241.625 142.93C241.849 142.383 242.154 141.917 242.539 141.531C242.93 141.146 243.383 140.846 243.898 140.633C244.419 140.419 244.974 140.312 245.562 140.312C245.911 140.312 246.253 140.354 246.586 140.438C246.919 140.521 247.234 140.641 247.531 140.797C247.833 140.953 248.115 141.146 248.375 141.375C248.635 141.599 248.865 141.852 249.062 142.133L245.062 146.953ZM246.156 142.555C246.057 142.518 245.958 142.495 245.859 142.484C245.766 142.474 245.667 142.469 245.562 142.469C245.271 142.469 244.995 142.523 244.734 142.633C244.479 142.737 244.255 142.888 244.062 143.086C243.875 143.284 243.727 143.523 243.617 143.805C243.508 144.081 243.453 144.393 243.453 144.742C243.453 144.82 243.456 144.909 243.461 145.008C243.471 145.107 243.484 145.208 243.5 145.312C243.521 145.411 243.544 145.508 243.57 145.602C243.596 145.695 243.63 145.779 243.672 145.852L246.156 142.555ZM258.18 149H257.664L256.836 147.852C256.633 148.034 256.417 148.206 256.188 148.367C255.964 148.523 255.727 148.661 255.477 148.781C255.227 148.896 254.969 148.987 254.703 149.055C254.443 149.122 254.177 149.156 253.906 149.156C253.318 149.156 252.763 149.057 252.242 148.859C251.727 148.661 251.273 148.375 250.883 148C250.497 147.62 250.193 147.156 249.969 146.609C249.745 146.062 249.633 145.44 249.633 144.742C249.633 144.091 249.745 143.495 249.969 142.953C250.193 142.406 250.497 141.938 250.883 141.547C251.273 141.156 251.727 140.854 252.242 140.641C252.763 140.422 253.318 140.312 253.906 140.312C254.177 140.312 254.445 140.346 254.711 140.414C254.977 140.482 255.234 140.576 255.484 140.695C255.734 140.815 255.971 140.956 256.195 141.117C256.424 141.279 256.638 141.453 256.836 141.641L257.664 140.648H258.18V149ZM256.031 144.742C256.031 144.451 255.974 144.169 255.859 143.898C255.75 143.622 255.599 143.38 255.406 143.172C255.214 142.958 254.987 142.789 254.727 142.664C254.471 142.534 254.198 142.469 253.906 142.469C253.615 142.469 253.339 142.518 253.078 142.617C252.823 142.716 252.599 142.862 252.406 143.055C252.219 143.247 252.07 143.487 251.961 143.773C251.852 144.055 251.797 144.378 251.797 144.742C251.797 145.107 251.852 145.432 251.961 145.719C252.07 146 252.219 146.237 252.406 146.43C252.599 146.622 252.823 146.768 253.078 146.867C253.339 146.966 253.615 147.016 253.906 147.016C254.198 147.016 254.471 146.953 254.727 146.828C254.987 146.698 255.214 146.529 255.406 146.32C255.599 146.107 255.75 145.865 255.859 145.594C255.974 145.318 256.031 145.034 256.031 144.742ZM261.945 149H259.812V140.633H260.328L261.031 141.625C261.375 141.312 261.766 141.073 262.203 140.906C262.641 140.734 263.094 140.648 263.562 140.648H265.445V142.773H263.562C263.339 142.773 263.128 142.815 262.93 142.898C262.732 142.982 262.56 143.096 262.414 143.242C262.268 143.388 262.154 143.56 262.07 143.758C261.987 143.956 261.945 144.167 261.945 144.391V149ZM268.57 149H266.438V140.633H266.953L267.656 141.445C268 141.133 268.388 140.893 268.82 140.727C269.258 140.555 269.714 140.469 270.188 140.469C270.698 140.469 271.18 140.568 271.633 140.766C272.086 140.958 272.482 141.227 272.82 141.57C273.159 141.909 273.424 142.307 273.617 142.766C273.815 143.219 273.914 143.703 273.914 144.219V149H271.781V144.219C271.781 144 271.74 143.794 271.656 143.602C271.573 143.404 271.458 143.232 271.312 143.086C271.167 142.94 270.997 142.826 270.805 142.742C270.612 142.659 270.406 142.617 270.188 142.617C269.964 142.617 269.753 142.659 269.555 142.742C269.357 142.826 269.185 142.94 269.039 143.086C268.893 143.232 268.779 143.404 268.695 143.602C268.612 143.794 268.57 144 268.57 144.219V149ZM277.953 138.359C277.953 138.557 277.914 138.742 277.836 138.914C277.763 139.086 277.661 139.237 277.531 139.367C277.401 139.492 277.247 139.594 277.07 139.672C276.898 139.745 276.714 139.781 276.516 139.781C276.318 139.781 276.13 139.745 275.953 139.672C275.781 139.594 275.63 139.492 275.5 139.367C275.375 139.237 275.273 139.086 275.195 138.914C275.122 138.742 275.086 138.557 275.086 138.359C275.086 138.167 275.122 137.984 275.195 137.812C275.273 137.635 275.375 137.484 275.5 137.359C275.63 137.229 275.781 137.128 275.953 137.055C276.13 136.977 276.318 136.938 276.516 136.938C276.714 136.938 276.898 136.977 277.07 137.055C277.247 137.128 277.401 137.229 277.531 137.359C277.661 137.484 277.763 137.635 277.836 137.812C277.914 137.984 277.953 138.167 277.953 138.359ZM277.586 149H275.438V140.633H277.586V149ZM281.352 149H279.219V140.633H279.734L280.438 141.445C280.781 141.133 281.169 140.893 281.602 140.727C282.039 140.555 282.495 140.469 282.969 140.469C283.479 140.469 283.961 140.568 284.414 140.766C284.867 140.958 285.263 141.227 285.602 141.57C285.94 141.909 286.206 142.307 286.398 142.766C286.596 143.219 286.695 143.703 286.695 144.219V149H284.562V144.219C284.562 144 284.521 143.794 284.438 143.602C284.354 143.404 284.24 143.232 284.094 143.086C283.948 142.94 283.779 142.826 283.586 142.742C283.393 142.659 283.188 142.617 282.969 142.617C282.745 142.617 282.534 142.659 282.336 142.742C282.138 142.826 281.966 142.94 281.82 143.086C281.674 143.232 281.56 143.404 281.477 143.602C281.393 143.794 281.352 144 281.352 144.219V149ZM294.172 144.742C294.172 144.451 294.115 144.169 294 143.898C293.891 143.622 293.74 143.38 293.547 143.172C293.354 142.958 293.128 142.789 292.867 142.664C292.612 142.534 292.339 142.469 292.047 142.469C291.755 142.469 291.479 142.518 291.219 142.617C290.964 142.716 290.74 142.862 290.547 143.055C290.359 143.247 290.211 143.487 290.102 143.773C289.992 144.055 289.938 144.378 289.938 144.742C289.938 145.091 289.992 145.406 290.102 145.688C290.211 145.964 290.359 146.201 290.547 146.398C290.74 146.596 290.964 146.75 291.219 146.859C291.479 146.964 291.755 147.016 292.047 147.016C292.339 147.016 292.612 146.953 292.867 146.828C293.128 146.698 293.354 146.529 293.547 146.32C293.74 146.107 293.891 145.865 294 145.594C294.115 145.318 294.172 145.034 294.172 144.742ZM296.32 147.945C296.32 148.534 296.208 149.086 295.984 149.602C295.76 150.117 295.453 150.568 295.062 150.953C294.677 151.339 294.224 151.643 293.703 151.867C293.188 152.091 292.635 152.203 292.047 152.203L290.977 152.188V150.055L292.031 150.07C292.365 150.07 292.648 150.026 292.883 149.938C293.117 149.854 293.315 149.737 293.477 149.586C293.638 149.44 293.766 149.271 293.859 149.078C293.958 148.885 294.036 148.682 294.094 148.469C294.01 148.604 293.891 148.716 293.734 148.805C293.578 148.888 293.404 148.956 293.211 149.008C293.023 149.065 292.826 149.104 292.617 149.125C292.414 149.146 292.224 149.156 292.047 149.156C291.458 149.156 290.904 149.055 290.383 148.852C289.867 148.648 289.414 148.359 289.023 147.984C288.638 147.604 288.333 147.141 288.109 146.594C287.885 146.047 287.773 145.43 287.773 144.742C287.773 144.112 287.885 143.526 288.109 142.984C288.333 142.443 288.638 141.974 289.023 141.578C289.414 141.182 289.867 140.872 290.383 140.648C290.904 140.424 291.458 140.312 292.047 140.312C292.318 140.312 292.586 140.346 292.852 140.414C293.117 140.482 293.375 140.576 293.625 140.695C293.875 140.815 294.112 140.956 294.336 141.117C294.565 141.279 294.779 141.453 294.977 141.641L295.805 140.648H296.32V147.945Z" fill="white"/>
<defs>
<filter id="filter0_d_266_25468" x="7" y="2" width="266" height="24" filterUnits="userSpaceOnUse" color-interpolation-filters="sRGB">
<feFlood flood-opacity="0" result="BackgroundImageFix"/>
<feColorMatrix in="SourceAlpha" type="matrix" values="0 0 0 0 0 0 0 0 0 0 0 0 0 0 0 0 0 0 127 0" result="hardAlpha"/>
<feOffset/>
<feGaussianBlur stdDeviation="2"/>
<feComposite in2="hardAlpha" operator="out"/>
<feColorMatrix type="matrix" values="0 0 0 0 0.807843 0 0 0 0 0.717647 0 0 0 0 1 0 0 0 1 0"/>
<feBlend mode="normal" in2="BackgroundImageFix" result="effect1_dropShadow_266_25468"/>
<feBlend mode="normal" in="SourceGraphic" in2="effect1_dropShadow_266_25468" result="shape"/>
</filter>
<filter id="filter1_d_266_25468" x="10" y="89" width="266" height="24" filterUnits="userSpaceOnUse" color-interpolation-filters="sRGB">
<feFlood flood-opacity="0" result="BackgroundImageFix"/>
<feColorMatrix in="SourceAlpha" type="matrix" values="0 0 0 0 0 0 0 0 0 0 0 0 0 0 0 0 0 0 127 0" result="hardAlpha"/>
<feOffset/>
<feGaussianBlur stdDeviation="2"/>
<feComposite in2="hardAlpha" operator="out"/>
<feColorMatrix type="matrix" values="0 0 0 0 0.807843 0 0 0 0 0.717647 0 0 0 0 1 0 0 0 1 0"/>
<feBlend mode="normal" in2="BackgroundImageFix" result="effect1_dropShadow_266_25468"/>
<feBlend mode="normal" in="SourceGraphic" in2="effect1_dropShadow_266_25468" result="shape"/>
</filter>
</defs>
</svg>
